<?xml version="1.0" encoding="UTF-8"?>
<!-- Generator: visioncortex VTracer 0.6.3 -->
<svg version="1.1" xmlns="http://www.w3.org/2000/svg" width="1280" height="641">
<path d="M0 0 C96.53 0.5 96.53 0.5 195 1 C195 126.73 195 252.46 195 382 C130.98 382.33 66.96 382.66 1 383 C1 398.84 1 414.68 1 431 C-54.44 431 -109.88 431 -167 431 C-167 302.96 -167 174.92 -167 43 C-111.89 43 -56.78 43 0 43 C0 28.81 0 14.62 0 0 Z M-160 57 C-160.1 58.92 -160.12 60.85 -160.12 62.78 C-160.13 64.04 -160.13 65.3 -160.13 66.6 C-160.13 68.02 -160.12 69.44 -160.12 70.86 C-160.12 72.36 -160.12 73.85 -160.12 75.35 C-160.13 79.47 -160.12 83.6 -160.12 87.72 C-160.11 92.16 -160.11 96.6 -160.11 101.04 C-160.11 108.74 -160.11 116.45 -160.11 124.15 C-160.1 135.28 -160.1 146.42 -160.09 157.55 C-160.09 175.61 -160.08 193.68 -160.08 211.74 C-160.07 229.29 -160.06 246.84 -160.05 264.39 C-160.05 265.47 -160.05 266.55 -160.05 267.67 C-160.05 273.09 -160.05 278.51 -160.05 283.94 C-160.04 328.96 -160.02 373.98 -160 419 C-157.27 420.37 -155.14 420.11 -152.08 420.09 C-150.82 420.08 -149.55 420.08 -148.25 420.07 C-146.85 420.06 -145.44 420.05 -144.04 420.04 C-142.56 420.03 -141.09 420.02 -139.61 420.01 C-135.6 419.99 -131.59 419.96 -127.57 419.93 C-123.38 419.9 -119.19 419.88 -115 419.85 C-107.95 419.8 -100.91 419.75 -93.87 419.7 C-85.72 419.64 -77.57 419.59 -69.42 419.54 C-62.44 419.5 -55.45 419.45 -48.46 419.4 C-44.28 419.37 -40.11 419.35 -35.93 419.32 C-32 419.3 -28.08 419.27 -24.15 419.24 C-22.71 419.23 -21.26 419.22 -19.82 419.21 C-17.85 419.2 -15.89 419.18 -13.92 419.16 C-12.27 419.15 -12.27 419.15 -10.58 419.14 C-8.01 419.17 -8.01 419.17 -6 418 C-5.97 410.33 -5.96 402.66 -5.95 394.98 C-5.94 392.37 -5.93 389.76 -5.92 387.15 C-5.91 383.4 -5.91 379.66 -5.9 375.91 C-5.9 374.73 -5.89 373.56 -5.89 372.35 C-5.89 371.27 -5.89 370.18 -5.89 369.07 C-5.88 368.11 -5.88 367.16 -5.88 366.17 C-5.76 364.02 -5.76 364.02 -7 363 C-7.04 361 -7.04 359 -7 357 C-9.83 356.06 -11.38 355.9 -14.29 355.98 C-15.15 356 -16.01 356.02 -16.9 356.04 C-17.82 356.07 -18.75 356.09 -19.7 356.12 C-20.65 356.14 -21.6 356.17 -22.58 356.19 C-25.62 356.27 -28.65 356.35 -31.69 356.44 C-33.75 356.49 -35.8 356.54 -37.86 356.6 C-42.91 356.72 -47.95 356.86 -53 357 C-53 356.67 -53 356.34 -53 356 C-54.14 355.76 -55.27 355.52 -56.45 355.27 C-71.57 352 -85.31 348.33 -99 341 C-99.98 340.56 -99.98 340.56 -100.98 340.11 C-104.16 338.36 -106.92 336.07 -109.75 333.81 C-110.37 333.32 -111 332.82 -111.64 332.31 C-112.88 331.32 -114.11 330.33 -115.34 329.33 C-116.7 328.24 -118.08 327.15 -119.45 326.07 C-133.14 314.83 -141.91 295.66 -147 279 C-147.66 279 -148.32 279 -149 279 C-148.81 278.44 -148.63 277.89 -148.44 277.31 C-147.79 273.87 -148.45 271.11 -150 268 C-153.67 244.53 -148.97 222.71 -140 201 C-139.34 201 -138.68 201 -138 201 C-137.75 199.76 -137.5 198.53 -137.25 197.25 C-136.31 193.39 -134.91 191.72 -132 189 C-131.88 188.28 -131.75 187.56 -131.62 186.82 C-130.8 183.12 -129.03 180.2 -127.06 177 C-126.46 176.02 -126.46 176.02 -125.85 175.01 C-109.98 149.42 -109.98 149.42 -101.09 145.07 C-98 143.49 -95.78 141.07 -93.38 138.62 C-92.89 138.14 -92.4 137.66 -91.89 137.16 C-89.96 135.22 -88.23 133.48 -87.04 130.99 C-85.39 127.83 -82.68 125.77 -80 123.5 C-79.39 122.98 -78.79 122.47 -78.16 121.93 C-70.58 115.62 -62.33 110.26 -54 105 C-52.58 104.1 -52.58 104.1 -51.13 103.19 C-49 102 -49 102 -46.44 101.56 C-43.88 101.21 -43.88 101.21 -42.25 99.19 C-37.45 94.53 -31.43 93.07 -25 92 C-24.55 91.53 -24.1 91.07 -23.64 90.58 C-21.6 88.61 -19.85 88.06 -17.15 87.21 C-16.22 86.91 -15.28 86.61 -14.32 86.3 C-13.35 85.99 -12.38 85.69 -11.38 85.38 C-9.44 84.76 -7.51 84.14 -5.59 83.52 C-4.73 83.25 -3.88 82.99 -2.99 82.71 C-1.03 82.17 -1.03 82.17 0 81 C0.09 79.15 0.11 77.29 0.1 75.43 C0.09 74.31 0.09 73.18 0.09 72.03 C0.08 70.84 0.07 69.66 0.06 68.44 C0.06 66.66 0.06 66.66 0.05 64.84 C0.04 61.89 0.02 58.95 0 56 C-20.71 55.98 -41.43 55.96 -62.14 55.95 C-71.76 55.94 -81.38 55.94 -90.99 55.92 C-99.37 55.91 -107.75 55.91 -116.13 55.91 C-120.57 55.9 -125.01 55.9 -129.45 55.89 C-133.62 55.89 -137.8 55.89 -141.97 55.89 C-143.51 55.89 -145.04 55.88 -146.58 55.88 C-148.67 55.88 -150.75 55.88 -152.84 55.88 C-154.6 55.88 -154.6 55.88 -156.39 55.88 C-158.93 55.7 -158.93 55.7 -160 57 Z M-142 206 C-141 208 -141 208 -141 208 Z M-144 211 C-143 213 -143 213 -143 213 Z M-145 214 C-144 216 -144 216 -144 216 Z M-146 217 C-145 219 -145 219 -145 219 Z M-147 220 C-146 223 -146 223 -146 223 Z M-148 224 C-147 227 -147 227 -147 227 Z M-149 229 C-148 231 -148 231 -148 231 Z M-150 232 C-149 236 -149 236 -149 236 Z M-151 239 C-151 240.65 -151 242.3 -151 244 C-150.67 244 -150.34 244 -150 244 C-150 242.35 -150 240.7 -150 239 C-150.33 239 -150.66 239 -151 239 Z " fill="#8C6531" transform="translate(167,1)"/>
<path d="M0 0 C8.68 -0.12 17.37 -0.2 26.05 -0.26 C30.08 -0.29 34.12 -0.32 38.15 -0.38 C42.04 -0.43 45.93 -0.46 49.82 -0.47 C51.3 -0.48 52.79 -0.5 54.27 -0.53 C56.35 -0.56 58.43 -0.57 60.51 -0.57 C61.69 -0.58 62.88 -0.59 64.1 -0.6 C67 0 67 0 68.83 2.43 C69.21 3.28 69.6 4.13 70 5 C70.83 6.14 71.69 7.26 72.56 8.38 C78.72 16.48 84.22 25.13 89.62 33.75 C91.73 37.08 93.92 40.29 96.29 43.44 C102.43 51.83 108.07 60.56 113.77 69.24 C115.76 72.26 117.74 75.27 119.73 78.28 C121 80.21 122.28 82.15 123.55 84.08 C124.14 84.97 124.72 85.86 125.33 86.78 C127.67 90.34 129.98 93.88 132.03 97.62 C133.95 100.92 136.08 103.84 138.4 106.86 C141.28 110.71 143.88 114.75 146.51 118.77 C147.42 120.16 147.42 120.16 148.35 121.57 C150.28 124.5 152.2 127.44 154.12 130.38 C158.48 137.01 162.84 143.64 167.21 150.28 C168.4 152.09 169.6 153.91 170.79 155.73 C172.46 158.27 174.13 160.81 175.8 163.35 C176.3 164.11 176.8 164.88 177.31 165.66 C179.6 169.41 179.6 169.41 183 172 C182.67 171.34 182.34 170.68 182 170 C181.91 167.77 181.88 165.54 181.88 163.31 C181.88 162.26 181.88 162.26 181.88 161.2 C181.88 158.85 181.88 156.51 181.89 154.17 C181.89 152.49 181.89 150.82 181.89 149.14 C181.89 144.58 181.89 140.03 181.9 135.47 C181.9 130.71 181.91 125.95 181.91 121.19 C181.91 112.17 181.92 103.16 181.93 94.14 C181.94 83.88 181.94 73.61 181.95 63.35 C181.96 42.23 181.98 21.12 182 0 C190.85 -0.02 199.7 -0.04 208.55 -0.05 C212.65 -0.06 216.76 -0.06 220.87 -0.08 C224.83 -0.09 228.8 -0.09 232.76 -0.09 C234.27 -0.1 235.79 -0.1 237.3 -0.11 C239.42 -0.11 241.53 -0.11 243.64 -0.11 C244.85 -0.12 246.06 -0.12 247.3 -0.12 C250 0 250 0 251 1 C251.1 2.5 251.12 4 251.12 5.5 C251.13 6.47 251.13 7.45 251.13 8.46 C251.13 9.54 251.12 10.63 251.12 11.75 C251.12 13.47 251.12 13.47 251.12 15.22 C251.12 18.41 251.12 21.6 251.12 24.79 C251.11 28.22 251.11 31.66 251.11 35.09 C251.11 41.05 251.11 47 251.11 52.96 C251.1 61.57 251.1 70.18 251.09 78.79 C251.09 92.76 251.08 106.73 251.08 120.7 C251.07 134.28 251.06 147.85 251.05 161.43 C251.05 162.26 251.05 163.1 251.05 163.96 C251.05 168.15 251.05 172.35 251.05 176.54 C251.04 211.36 251.02 246.18 251 281 C242.19 281.4 233.39 281.7 224.58 281.88 C220.49 281.97 216.4 282.09 212.31 282.28 C185.88 283.5 185.88 283.5 179.46 279.36 C175.65 275.46 173.51 271.09 171.74 265.99 C170.76 263.34 169.29 261.19 167.64 258.91 C167.17 258.21 166.71 257.51 166.22 256.79 C165.76 256.1 165.3 255.41 164.82 254.7 C163.73 253.07 162.64 251.44 161.55 249.81 C161 248.98 160.44 248.15 159.86 247.29 C149.97 232.5 140.13 217.67 130.36 202.79 C117.01 182.49 103.48 162.31 89.85 142.19 C84.57 134.38 79.34 126.53 74.12 118.68 C73.08 117.12 72.04 115.56 71 114 C70.67 169.11 70.34 224.22 70 281 C47.23 281 24.46 281 1 281 C0 280 0 280 -0.12 278.08 C-0.12 277.23 -0.12 276.38 -0.12 275.5 C-0.13 274.53 -0.13 273.55 -0.13 272.54 C-0.13 271.46 -0.12 270.37 -0.12 269.25 C-0.12 268.11 -0.12 266.96 -0.12 265.78 C-0.12 262.59 -0.12 259.4 -0.12 256.21 C-0.11 252.78 -0.11 249.34 -0.11 245.91 C-0.11 239.95 -0.11 234 -0.11 228.04 C-0.1 219.43 -0.1 210.82 -0.09 202.21 C-0.09 188.24 -0.08 174.27 -0.08 160.3 C-0.07 146.72 -0.06 133.15 -0.05 119.57 C-0.05 118.74 -0.05 117.9 -0.05 117.04 C-0.05 112.85 -0.05 108.65 -0.05 104.46 C-0.04 69.64 -0.02 34.82 0 0 Z M183 3 C184 7 184 7 184 7 Z M183 10 C184 12 184 12 184 12 Z " fill="#4C3B2E" transform="translate(399,101)"/>
<path d="M0 0 C1.57 2.24 1.92 4.19 2.38 6.88 C2.53 7.78 2.69 8.68 2.86 9.61 C2.97 10.29 3.07 10.98 3.19 11.69 C5.66 9.71 5.66 9.71 8.19 7.69 C9.19 8.69 9.19 8.69 9.25 12.25 C9.23 13.38 9.21 14.52 9.19 15.69 C11.5 15.69 13.81 15.69 16.19 15.69 C16.19 13.05 16.19 10.41 16.19 7.69 C18.06 7.06 18.06 7.06 20.19 6.69 C22.19 8.69 22.19 8.69 22.23 10.71 C22.09 11.87 22.09 11.87 21.94 13.06 C21.85 13.83 21.76 14.6 21.67 15.4 C21.17 17.77 20.36 19.58 19.19 21.69 C21.17 21.69 23.15 21.69 25.19 21.69 C25.37 21.05 25.55 20.41 25.74 19.75 C26.12 18.51 26.12 18.51 26.5 17.25 C26.74 16.43 26.99 15.6 27.24 14.75 C27.55 14.07 27.86 13.39 28.19 12.69 C29.18 12.36 30.17 12.03 31.19 11.69 C33.88 13.62 33.88 13.62 36.19 15.69 C35.59 18.79 34.61 20.75 32.69 23.25 C30.95 25.52 30.11 26.91 29.19 29.69 C33.22 30.05 33.22 30.05 36.88 28.62 C38.78 25.81 39.93 22.85 41.19 19.69 C42.18 20.02 43.17 20.35 44.19 20.69 C45.06 23.19 45.06 23.19 45.19 26.69 C43.48 29.61 41.41 32.14 39.19 34.69 C41.38 35.65 41.38 35.65 44.19 35.69 C46.41 34.23 48.21 32.49 50.19 30.69 C50.85 30.69 51.51 30.69 52.19 30.69 C51.56 33.91 50.41 36.2 48.62 38.94 C48.17 39.64 47.71 40.35 47.25 41.08 C46.9 41.61 46.55 42.14 46.19 42.69 C50.13 43.05 51.75 42.99 55.06 40.69 C55.76 40.03 56.46 39.37 57.19 38.69 C59.19 41.69 59.19 41.69 58.97 43.65 C58.13 45.84 57.11 47.4 55.69 49.25 C53.95 51.52 53.11 52.91 52.19 55.69 C49.5 56.5 49.5 56.5 46.19 56.69 C42.65 53.58 39.89 50.06 37.06 46.31 C30.05 37.68 21.89 33.27 11.19 30.69 C12.8 31.76 12.8 31.76 14.44 32.85 C24.41 39.54 32.31 45.89 39.51 55.57 C41.18 57.77 41.18 57.77 43.35 59.84 C45.39 61.89 45.84 62.85 46.19 65.69 C46.11 66.53 46.02 67.38 45.94 68.25 C46.02 69.05 46.1 69.86 46.19 70.69 C48.6 72.55 48.6 72.55 51.19 73.69 C51 74.9 50.82 76.12 50.62 77.38 C50.2 80.78 50.43 83.33 51.19 86.69 C51.49 92.69 50.69 97.88 49.19 103.69 C52.48 106.6 54.79 108.18 59.19 108.69 C59.19 109.35 59.19 110.01 59.19 110.69 C59.85 110.69 60.51 110.69 61.19 110.69 C61.19 112.34 61.19 113.99 61.19 115.69 C57.32 115.11 55.11 113.2 52.19 110.69 C50.21 111.68 50.21 111.68 48.19 112.69 C48.52 115 48.85 117.31 49.19 119.69 C48.2 120.02 47.21 120.35 46.19 120.69 C46.19 122.67 46.19 124.65 46.19 126.69 C47.1 126.96 48 127.22 48.94 127.5 C54.03 129.36 54.03 129.36 56.19 131.69 C56.44 134.88 56.44 134.88 56.19 137.69 C51.96 137.22 50.09 136.72 47.19 133.69 C45.87 133.69 44.55 133.69 43.19 133.69 C43.54 134.24 43.89 134.8 44.25 135.38 C45.41 138.23 45 139.77 44.19 142.69 C43.2 142.69 42.21 142.69 41.19 142.69 C40.53 144.34 39.87 145.99 39.19 147.69 C37.87 147.36 36.55 147.03 35.19 146.69 C34.88 147.67 34.88 147.67 34.57 148.68 C32.65 152.85 29.95 156.21 27.12 159.81 C26.54 160.57 25.96 161.32 25.35 162.1 C23.64 164.3 21.92 166.49 20.19 168.69 C19.74 169.26 19.29 169.83 18.83 170.42 C8.12 184 -4.38 194.12 -18.31 204.19 C-19.16 204.8 -19.16 204.8 -20.02 205.43 C-24.59 208.68 -29.24 211.62 -34.81 212.69 C-34.81 213.68 -34.81 214.67 -34.81 215.69 C-34.19 215.77 -33.57 215.85 -32.94 215.94 C-30.81 216.69 -30.81 216.69 -29.56 218.56 C-28.81 220.69 -28.81 220.69 -28.81 223.69 C-27.82 224.02 -26.83 224.35 -25.81 224.69 C-23.8 227.3 -22.88 229.41 -22.12 232.62 C-23.2 237.43 -26.82 239.08 -30.81 241.69 C-34.36 243.75 -37.97 245.64 -41.62 247.5 C-42.57 247.99 -43.51 248.48 -44.47 248.98 C-50.2 251.94 -54.08 253.85 -60.68 253.53 C-63.35 253.73 -65.34 254.67 -67.81 255.69 C-77.08 258.16 -86.25 259.32 -95.81 259.69 C-96.64 259.73 -97.47 259.77 -98.32 259.81 C-106.53 260.03 -114.69 258.74 -122.81 257.69 C-123.14 256.04 -123.47 254.39 -123.81 252.69 C-124.6 253.18 -125.38 253.68 -126.19 254.19 C-128.81 255.69 -128.81 255.69 -130.81 255.69 C-130.29 251.31 -129.76 247 -128.81 242.69 C-129.8 242.69 -130.79 242.69 -131.81 242.69 C-131.85 243.41 -131.89 244.13 -131.94 244.88 C-133.23 249.04 -135.19 250.28 -138.81 252.69 C-140.13 252.36 -141.45 252.03 -142.81 251.69 C-142.48 248.39 -142.15 245.09 -141.81 241.69 C-142.56 242.51 -143.3 243.34 -144.06 244.19 C-146.81 246.69 -146.81 246.69 -150.81 246.69 C-150.67 246.17 -150.52 245.66 -150.38 245.12 C-149.65 242 -149.24 238.86 -148.81 235.69 C-149.25 236.26 -149.68 236.84 -150.12 237.44 C-150.68 238.18 -151.24 238.92 -151.81 239.69 C-152.18 240.45 -152.56 241.21 -152.94 242 C-154.81 243.69 -154.81 243.69 -157 243.71 C-159.3 243.46 -161.55 243.12 -163.81 242.69 C-164.46 240.92 -164.46 240.92 -164.81 238.69 C-163.82 236.77 -163.82 236.77 -162.38 234.94 C-161.67 234.02 -161.67 234.02 -160.94 233.08 C-160.57 232.62 -160.2 232.16 -159.81 231.69 C-161.59 233.99 -162.98 235.49 -165.86 236.18 C-167.84 236.41 -169.83 236.56 -171.81 236.69 C-171.81 236.03 -171.81 235.37 -171.81 234.69 C-172.47 234.69 -173.13 234.69 -173.81 234.69 C-172.56 229.42 -170.31 225.72 -165.81 222.69 C-162.35 222.69 -159.81 224.02 -156.81 225.69 C-156.81 225.03 -156.81 224.37 -156.81 223.69 C-157.38 223.43 -157.95 223.17 -158.53 222.91 C-161.88 221.12 -164.65 218.72 -167.59 216.34 C-170.88 213.75 -170.88 213.75 -174.81 212.69 C-175.14 213.68 -175.47 214.67 -175.81 215.69 C-177.59 216.64 -177.59 216.64 -179.75 217.38 C-180.82 217.75 -180.82 217.75 -181.9 218.14 C-183.81 218.69 -183.81 218.69 -185.81 218.69 C-185.2 215.13 -184.23 212 -182.81 208.69 C-184.36 209.28 -184.36 209.28 -185.94 209.88 C-190.48 210.83 -191.98 210.12 -195.81 207.69 C-195.81 207.03 -195.81 206.37 -195.81 205.69 C-196.47 205.69 -197.13 205.69 -197.81 205.69 C-202.53 191.46 -207.07 177.73 -207.81 162.69 C-207.87 161.82 -207.93 160.96 -207.98 160.07 C-208.07 157.58 -207.98 155.17 -207.81 152.69 C-207.75 151.71 -207.75 151.71 -207.69 150.72 C-207.07 141.7 -206.02 133.92 -202.09 125.68 C-200.61 122.21 -199.79 118.79 -198.94 115.12 C-196.61 105.93 -192.68 98.25 -184.81 92.69 C-184.15 92.69 -183.49 92.69 -182.81 92.69 C-183.14 90.05 -183.47 87.41 -183.81 84.69 C-181.17 85.02 -178.53 85.35 -175.81 85.69 C-176.14 83.05 -176.47 80.41 -176.81 77.69 C-173.81 75.69 -173.81 75.69 -170.81 75.69 C-171.15 74.05 -171.15 74.05 -171.5 72.38 C-171.81 68.69 -171.81 68.69 -170.69 66.69 C-168.09 65.3 -166.56 65.87 -163.81 66.69 C-164.31 63.22 -164.31 63.22 -164.81 59.69 C-161.41 57.59 -158.76 57.51 -154.81 57.69 C-155.06 56.78 -155.31 55.87 -155.56 54.94 C-155.81 51.69 -155.81 51.69 -154.31 49.44 C-151.81 47.69 -151.81 47.69 -148.25 46.88 C-144.83 46.08 -144.83 46.08 -143.7 44.01 C-142.75 41.86 -142.75 41.86 -141.81 38.69 C-139.83 38.69 -137.85 38.69 -135.81 38.69 C-135.26 36.99 -135.26 36.99 -134.69 35.25 C-133.88 33.31 -133.88 33.31 -132.81 31.69 C-129.62 30.75 -129.62 30.75 -126.81 30.69 C-126.81 31.35 -126.81 32.01 -126.81 32.69 C-126.15 33.02 -125.49 33.35 -124.81 33.69 C-125.49 34.35 -126.17 35.01 -126.88 35.69 C-133.05 41.66 -133.05 41.66 -137.81 48.69 C-139.46 48.69 -141.11 48.69 -142.81 48.69 C-143.14 50.01 -143.47 51.33 -143.81 52.69 C-143.03 52.94 -142.25 53.18 -141.44 53.44 C-138.42 54.87 -138.1 55.73 -136.81 58.69 C-129.79 53.76 -129.79 53.76 -123.81 47.69 C-123.86 44.93 -123.86 44.93 -124.81 42.69 C-125.47 42.69 -126.13 42.69 -126.81 42.69 C-125.34 38.01 -125.34 38.01 -122.69 36.38 C-122.07 36.15 -121.45 35.92 -120.81 35.69 C-118.75 38 -118.75 38 -116.81 40.69 C-117.14 41.68 -117.47 42.67 -117.81 43.69 C-115.4 43.57 -115.4 43.57 -112.81 42.69 C-110.97 40.23 -110.97 40.23 -109.81 37.69 C-110.93 37.44 -112.04 37.19 -113.19 36.94 C-116.81 35.69 -116.81 35.69 -118.06 33.69 C-118.31 33.03 -118.56 32.37 -118.81 31.69 C-120.3 30.7 -120.3 30.7 -121.81 29.69 C-121.48 28.37 -121.15 27.05 -120.81 25.69 C-116.64 25.34 -114.99 26.04 -111.81 28.69 C-110.33 29.18 -110.33 29.18 -108.81 29.69 C-107.62 32.75 -107.62 32.75 -106.81 35.69 C-105.16 34.7 -103.51 33.71 -101.81 32.69 C-102.14 32.36 -102.47 32.03 -102.81 31.69 C-102.81 30.7 -102.81 29.71 -102.81 28.69 C-104.3 28.19 -104.3 28.19 -105.81 27.69 C-105.81 27.03 -105.81 26.37 -105.81 25.69 C-107.46 25.03 -109.11 24.37 -110.81 23.69 C-110 21.75 -110 21.75 -108.81 19.69 C-107.82 19.36 -106.83 19.03 -105.81 18.69 C-105.4 19.33 -104.99 19.97 -104.56 20.62 C-102.63 22.9 -101.7 23.29 -98.81 23.69 C-99.49 22.78 -100.17 21.87 -100.88 20.94 C-102.81 17.69 -102.81 17.69 -102.69 15.63 C-101.5 12.99 -100.25 12.51 -97.64 11.29 C-96.32 10.67 -96.32 10.67 -94.97 10.03 C-93.53 9.4 -93.53 9.4 -92.06 8.75 C-90.58 8.09 -90.58 8.09 -89.07 7.41 C-80 3.51 -70.92 1.13 -61.27 -0.79 C-58.93 -1.29 -56.64 -1.87 -54.34 -2.5 C-38.89 -6.6 -13.94 -10.09 0 0 Z " fill="#A56832" transform="translate(231.8125,92.3125)"/>
<path d="M0 0 C1.34 -0 1.34 -0 2.71 -0 C4.58 -0 6.46 -0 8.33 0 C11.21 0.01 14.08 0 16.96 -0 C18.79 -0 20.61 -0 22.44 0 C23.3 -0 24.16 -0 25.05 -0.01 C31.09 0.02 31.09 0.02 33.32 1.13 C34.15 1.13 34.97 1.13 35.82 1.13 C38.32 1.13 38.32 1.13 40.32 2.13 C41.31 2.13 42.3 2.13 43.32 2.13 C43.32 2.79 43.32 3.45 43.32 4.13 C44.97 3.8 46.62 3.47 48.32 3.13 C48.32 3.79 48.32 4.45 48.32 5.13 C49.64 4.8 50.96 4.47 52.32 4.13 C52.32 4.79 52.32 5.45 52.32 6.13 C53.64 5.8 54.96 5.47 56.32 5.13 C56.32 5.79 56.32 6.45 56.32 7.13 C57.31 6.8 58.3 6.47 59.32 6.13 C59.32 6.79 59.32 7.45 59.32 8.13 C60.31 7.8 61.3 7.47 62.32 7.13 C62.32 7.79 62.32 8.45 62.32 9.13 C63.97 9.13 65.62 9.13 67.32 9.13 C67.32 9.79 67.32 10.45 67.32 11.13 C68 11.21 68.69 11.3 69.39 11.38 C73.09 12.33 75.98 14.12 79.13 16.2 C79.75 16.6 80.37 17.01 81.01 17.43 C91.73 24.62 100.91 34.79 104.41 47.45 C105.99 52.1 108.27 56.45 110.45 60.84 C112.75 65.55 114.21 70.01 115.32 75.13 C114.68 75.22 114.03 75.3 113.37 75.39 C109.17 76.42 105.46 78.22 101.57 80.07 C100.4 80.61 100.4 80.61 99.21 81.16 C98.47 81.51 97.72 81.86 96.96 82.22 C96.29 82.54 95.61 82.86 94.92 83.19 C93.14 84.05 93.14 84.05 92.32 86.13 C91.48 86.26 90.63 86.38 89.77 86.51 C85.43 87.29 82.07 89.04 78.2 91.07 C77.49 91.43 76.79 91.79 76.07 92.16 C74.72 92.85 73.38 93.54 72.05 94.24 C70.69 94.94 69.32 95.63 67.95 96.31 C66.72 96.93 65.51 97.61 64.32 98.32 C61.85 99.33 60.77 99.11 58.32 98.13 C56.16 95.97 55.77 95.08 55.32 92.13 C55.65 91.14 55.98 90.15 56.32 89.13 C55.66 88.8 55 88.47 54.32 88.13 C54.65 87.47 54.98 86.81 55.32 86.13 C54.66 85.8 54 85.47 53.32 85.13 C52.68 83.35 52.68 83.35 52.07 81.07 C49.51 73.04 44.78 68 37.86 63.36 C37.35 62.95 36.84 62.55 36.32 62.13 C36.32 61.47 36.32 60.81 36.32 60.13 C35.74 59.94 35.16 59.75 34.56 59.55 C27.32 57.13 27.32 57.13 24.55 56.1 C19.03 54.45 13.48 54.72 7.76 54.7 C6.56 54.66 5.36 54.63 4.12 54.6 C-5.02 54.54 -14.87 55.72 -21.89 62.16 C-22.48 62.81 -23.07 63.46 -23.68 64.13 C-27.94 68.07 -27.94 68.07 -31.49 68.38 C-32.21 68.3 -32.94 68.22 -33.68 68.13 C-33.35 69.12 -33.02 70.11 -32.68 71.13 C-34.29 73.24 -35.91 75.17 -37.68 77.13 C-39.27 79.13 -40.57 80.9 -41.68 83.2 C-42.68 85.13 -42.68 85.13 -44.06 86.31 C-46.4 88.94 -47.43 91.99 -48.62 95.26 C-49.01 96.31 -49.01 96.31 -49.4 97.38 C-54.08 110.44 -56.81 123.92 -56.88 137.81 C-56.89 138.73 -56.89 139.66 -56.9 140.61 C-56.91 142.56 -56.92 144.52 -56.92 146.47 C-56.93 149.4 -56.96 152.32 -56.99 155.25 C-57.09 172.85 -56.7 196.03 -44.68 210.13 C-44.27 211.02 -43.85 211.91 -43.43 212.82 C-36.85 225.27 -26.61 233.89 -13.68 239.13 C-11.27 239.74 -9.18 239.97 -6.68 240.13 C-4.68 240.8 -2.68 241.47 -0.68 242.13 C0.71 242.2 2.11 242.22 3.51 242.2 C5.39 242.16 5.39 242.16 7.32 242.13 C7.32 241.8 7.32 241.47 7.32 241.13 C8.21 241.03 9.11 240.94 10.03 240.84 C16.86 239.99 22.9 238.89 29.2 236.07 C31.32 235.13 31.32 235.13 34.82 234.13 C37.9 232.9 38.05 232.1 39.32 229.13 C43.52 224.49 43.52 224.49 46.57 223.13 C47.15 222.8 47.73 222.47 48.32 222.13 C49.01 219.78 49.01 219.78 49.32 217.13 C49.95 215.45 50.61 213.78 51.32 212.13 C51.98 212.13 52.64 212.13 53.32 212.13 C53.51 210.37 53.51 210.37 53.7 208.57 C54.18 204.59 55.13 200.96 56.32 197.13 C61.64 196.65 64.97 198.22 69.45 200.82 C78.58 205.9 88.02 210.26 97.52 214.61 C103.51 217.36 109.45 220.14 115.32 223.13 C114.78 228.53 112.83 232.49 110.32 237.2 C108 241.57 106.28 245.26 105.32 250.13 C103.8 252.81 103.8 252.81 101.95 255.45 C101.34 256.33 100.73 257.21 100.11 258.12 C99.22 259.12 99.22 259.12 98.32 260.13 C97.33 260.13 96.34 260.13 95.32 260.13 C95.23 260.88 95.13 261.62 95.04 262.39 C92.98 270.28 82.94 276.14 76.32 280.13 C74.66 280.83 73 281.5 71.32 282.13 C69.94 282.8 68.56 283.49 67.2 284.2 C64.88 285.39 62.8 286.3 60.32 287.13 C59.78 287.63 59.25 288.12 58.7 288.63 C55.59 290.59 52.96 290.63 49.34 290.82 C47.1 290.96 47.1 290.96 45.32 293.13 C43 293.56 40.66 293.87 38.32 294.13 C37.51 294.23 36.7 294.32 35.86 294.41 C33.68 294.66 31.5 294.9 29.32 295.13 C29.32 295.46 29.32 295.79 29.32 296.13 C23.83 296.04 18.34 295.93 12.85 295.82 C10.99 295.78 9.13 295.74 7.27 295.71 C-24.6 295.16 -24.6 295.16 -33.68 292.13 C-36.76 291.12 -39.84 290.13 -42.93 289.13 C-43.76 288.86 -44.6 288.59 -45.46 288.3 C-49.22 287.1 -52.8 286.03 -56.73 285.57 C-57.7 285.43 -58.68 285.28 -59.68 285.13 C-60.01 284.47 -60.34 283.81 -60.68 283.13 C-61.44 282.99 -62.21 282.84 -62.99 282.7 C-66.05 282.05 -67.22 281.03 -69.68 279.13 C-70.9 278.53 -72.13 277.95 -73.37 277.38 C-78.35 274.94 -82.44 271.68 -86.68 268.13 C-87.87 267.16 -87.87 267.16 -89.09 266.17 C-106.15 251.64 -115.53 232.83 -122.96 212.07 C-123.66 210.09 -123.66 210.09 -124.68 208.13 C-124.18 207.14 -124.18 207.14 -123.68 206.13 C-124.34 205.8 -125 205.47 -125.68 205.13 C-126.77 202.16 -126.72 201.25 -125.68 198.13 C-126.34 198.13 -127 198.13 -127.68 198.13 C-127.18 196.15 -127.18 196.15 -126.68 194.13 C-127.34 194.13 -128 194.13 -128.68 194.13 C-128.66 193.39 -128.64 192.65 -128.62 191.88 C-128.67 189.37 -129.04 187.54 -129.68 185.13 C-129.84 183.96 -130.01 182.78 -130.18 181.57 C-130.57 178.16 -130.57 178.16 -131.68 175.13 C-131.75 173.24 -131.76 171.34 -131.74 169.45 C-131.73 168.45 -131.72 167.46 -131.71 166.43 C-131.7 165.67 -131.69 164.92 -131.68 164.13 C-132.01 164.13 -132.34 164.13 -132.68 164.13 C-133.28 132.82 -131.13 103.33 -118.68 74.13 C-118.02 74.13 -117.36 74.13 -116.68 74.13 C-116.45 72.98 -116.23 71.82 -115.99 70.63 C-114.83 65.96 -112.76 61.85 -109.68 58.13 C-109.02 58.13 -108.36 58.13 -107.68 58.13 C-107.58 57.4 -107.48 56.67 -107.38 55.91 C-103.78 41.63 -83.62 27.57 -71.68 20.13 C-70.8 19.57 -69.92 19.01 -69.01 18.43 C-66.25 16.89 -63.78 16.61 -60.68 16.13 C-60.02 15.47 -59.36 14.81 -58.68 14.13 C-55.18 10.63 -50.13 9.73 -45.49 8.2 C-44.41 7.84 -43.32 7.48 -42.2 7.11 C-28.36 2.61 -14.58 -0.03 0 0 Z M-9.68 1.13 C-9.68 1.46 -9.68 1.79 -9.68 2.13 C-7.7 2.13 -5.72 2.13 -3.68 2.13 C-3.68 1.8 -3.68 1.47 -3.68 1.13 C-5.66 1.13 -7.64 1.13 -9.68 1.13 Z M-17.68 2.13 C-13.68 3.13 -13.68 3.13 -13.68 3.13 Z M-0.68 53.13 C-0.68 53.46 -0.68 53.79 -0.68 54.13 C4.93 54.13 10.54 54.13 16.32 54.13 C16.32 53.8 16.32 53.47 16.32 53.13 C10.71 53.13 5.1 53.13 -0.68 53.13 Z M-113.68 66.13 C-112.68 68.13 -112.68 68.13 -112.68 68.13 Z M-37.68 73.13 C-36.68 75.13 -36.68 75.13 -36.68 75.13 Z M-119.68 79.13 C-118.68 81.13 -118.68 81.13 -118.68 81.13 Z M-121.68 84.13 C-120.68 86.13 -120.68 86.13 -120.68 86.13 Z M-122.68 87.13 C-121.68 89.13 -121.68 89.13 -121.68 89.13 Z M-123.68 90.13 C-122.68 92.13 -122.68 92.13 -122.68 92.13 Z M-124.68 93.13 C-123.68 95.13 -123.68 95.13 -123.68 95.13 Z M-125.68 97.13 C-124.68 99.13 -124.68 99.13 -124.68 99.13 Z M-126.68 101.13 C-125.68 103.13 -125.68 103.13 -125.68 103.13 Z M-127.68 105.13 C-126.68 108.13 -126.68 108.13 -126.68 108.13 Z M-128.68 109.13 C-127.68 113.13 -127.68 113.13 -127.68 113.13 Z M-129.68 115.13 C-128.68 119.13 -128.68 119.13 -128.68 119.13 Z M-130.68 122.13 C-130.68 124.11 -130.68 126.09 -130.68 128.13 C-130.35 128.13 -130.02 128.13 -129.68 128.13 C-129.68 126.15 -129.68 124.17 -129.68 122.13 C-130.01 122.13 -130.34 122.13 -130.68 122.13 Z M-131.68 133.13 C-131.68 136.76 -131.68 140.39 -131.68 144.13 C-131.35 144.13 -131.02 144.13 -130.68 144.13 C-130.68 140.5 -130.68 136.87 -130.68 133.13 C-131.01 133.13 -131.34 133.13 -131.68 133.13 Z M-58.68 140.13 C-58.68 146.4 -58.68 152.67 -58.68 159.13 C-58.35 159.13 -58.02 159.13 -57.68 159.13 C-57.68 152.86 -57.68 146.59 -57.68 140.13 C-58.01 140.13 -58.34 140.13 -58.68 140.13 Z M56.32 201.13 C57.32 203.13 57.32 203.13 57.32 203.13 Z M55.32 204.13 C56.32 206.13 56.32 206.13 56.32 206.13 Z M54.32 207.13 C55.32 209.13 55.32 209.13 55.32 209.13 Z M77.32 276.13 C78.32 278.13 78.32 278.13 78.32 278.13 Z " fill="#4C3B2E" transform="translate(810.6796875,92.8671875)"/>
<path d="M0 0 C2.87 0.03 5.74 0.04 8.61 0.05 C10.44 0.06 12.27 0.07 14.1 0.08 C15.38 0.08 15.38 0.08 16.69 0.09 C22.65 0.16 22.65 0.16 24.88 1.28 C25.71 1.28 26.53 1.28 27.38 1.28 C29.88 1.28 29.88 1.28 31.88 2.28 C32.87 2.28 33.86 2.28 34.88 2.28 C34.88 2.94 34.88 3.6 34.88 4.28 C36.53 3.95 38.18 3.62 39.88 3.28 C39.88 3.94 39.88 4.6 39.88 5.28 C41.2 4.95 42.52 4.62 43.88 4.28 C43.88 4.94 43.88 5.6 43.88 6.28 C45.2 5.95 46.52 5.62 47.88 5.28 C47.88 5.94 47.88 6.6 47.88 7.28 C48.87 6.95 49.86 6.62 50.88 6.28 C50.88 6.94 50.88 7.6 50.88 8.28 C51.87 7.95 52.86 7.62 53.88 7.28 C53.88 7.94 53.88 8.6 53.88 9.28 C55.2 9.45 55.2 9.45 56.55 9.62 C68.22 11.94 79.18 21.54 86.88 30.28 C88.51 32.72 88.51 32.72 89.88 35.28 C90.65 36.49 91.42 37.7 92.2 38.91 C94.25 42.2 96.22 45.53 98.13 48.91 C98.63 49.79 99.13 50.66 99.65 51.57 C100.99 54.52 101.38 57.09 101.88 60.28 C102.69 62.59 103.54 64.88 104.45 67.16 C104.9 68.31 105.36 69.46 105.82 70.65 C106.17 71.52 106.52 72.39 106.88 73.28 C104.64 74.78 102.59 75.98 100.2 77.16 C99.5 77.5 98.8 77.85 98.08 78.2 C96.61 78.92 95.15 79.64 93.69 80.36 C92.99 80.7 92.29 81.05 91.57 81.41 C90.94 81.72 90.3 82.03 89.64 82.35 C87.63 83.38 87.63 83.38 84.88 85.28 C83.52 85.75 82.14 86.19 80.76 86.59 C74.6 88.57 69.24 91.71 63.88 95.28 C61.56 96.1 59.21 96.8 56.84 97.5 C54.69 98.1 54.69 98.1 53.88 100.28 C52.89 99.95 51.9 99.62 50.88 99.28 C50.88 98.62 50.88 97.96 50.88 97.28 C49.89 97.28 48.9 97.28 47.88 97.28 C48.21 95.63 48.54 93.98 48.88 92.28 C48.22 91.95 47.56 91.62 46.88 91.28 C47.21 90.29 47.54 89.3 47.88 88.28 C47.22 87.95 46.56 87.62 45.88 87.28 C45.43 85.8 45.04 84.29 44.7 82.78 C42.56 75.17 37.58 69.61 31.88 64.28 C29.89 63.27 27.89 62.26 25.88 61.28 C25.43 60.75 24.98 60.21 24.51 59.66 C22.51 57.97 21.39 57.98 18.82 57.72 C14.88 57.28 14.88 57.28 12.88 55.28 C8.61 54.79 4.3 54.91 0.01 54.91 C-1.76 54.87 -1.76 54.87 -3.56 54.83 C-11.61 54.81 -18.78 55.8 -26.12 59.28 C-26.61 60.27 -26.61 60.27 -27.12 61.28 C-28.02 61.71 -28.93 62.15 -29.87 62.59 C-33.38 64.42 -35.4 66.43 -38.12 69.28 C-40.08 70.99 -42.09 72.63 -44.12 74.28 C-44.78 73.95 -45.44 73.62 -46.12 73.28 C-45.79 74.27 -45.46 75.26 -45.12 76.28 C-45.74 76.82 -46.35 77.35 -46.99 77.91 C-49.4 80.59 -50.18 82.84 -51.12 86.28 C-51.78 86.28 -52.44 86.28 -53.12 86.28 C-59.76 101.03 -59.76 101.03 -62.18 116.78 C-62.12 120.28 -62.12 120.28 -64.12 123.28 C-64.57 125.45 -64.57 125.45 -64.75 127.86 C-64.83 128.77 -64.92 129.67 -65 130.6 C-65.12 132.05 -65.12 132.05 -65.24 133.53 C-65.37 135.02 -65.37 135.02 -65.49 136.55 C-67.34 159.86 -66.14 185.68 -56.12 207.28 C-55.46 207.94 -54.8 208.6 -54.12 209.28 C-54.12 209.94 -54.12 210.6 -54.12 211.28 C-52.79 212.62 -51.46 213.96 -50.12 215.28 C-48.84 217.03 -47.59 218.81 -46.37 220.59 C-39.65 229.88 -31.17 236.97 -19.79 239.88 C-17.74 240.21 -17.74 240.21 -15.12 240.28 C-15.12 240.94 -15.12 241.6 -15.12 242.28 C-12.48 241.95 -9.84 241.62 -7.12 241.28 C-7.12 241.61 -7.12 241.94 -7.12 242.28 C-4.81 242.28 -2.5 242.28 -0.12 242.28 C-0.12 241.95 -0.12 241.62 -0.12 241.28 C0.71 241.16 1.53 241.04 2.38 240.91 C7.78 240.1 13.19 239.27 18.57 238.28 C19.75 238.06 19.75 238.06 20.96 237.84 C23.77 237.02 25.1 235.05 27.13 232.97 C29.88 230.28 29.88 230.28 32.88 227.97 C36.51 225.02 38.57 221.28 40.88 217.28 C41.54 216.29 42.2 215.3 42.88 214.28 C44.18 211.68 44.45 209.14 44.88 206.28 C45.54 206.28 46.2 206.28 46.88 206.28 C46.97 205 47.05 203.72 47.13 202.41 C47.31 199.67 47.44 198.68 49.51 196.83 C53.14 195.99 55.53 197.69 58.63 199.41 C60.06 200.16 61.49 200.91 62.92 201.66 C63.71 202.08 64.49 202.5 65.3 202.93 C69.13 204.94 73 206.86 76.88 208.79 C79.98 210.33 83.08 211.89 86.18 213.45 C89.59 215.15 93.01 216.82 96.46 218.43 C97.12 218.74 97.77 219.05 98.45 219.37 C100.11 220.15 101.79 220.92 103.47 221.68 C106.33 223.58 106.97 225.02 107.88 228.28 C107.25 228.81 107.25 228.81 106.61 229.35 C104.25 231.99 102.81 235 101.26 238.16 C100.79 239.07 100.79 239.07 100.31 240.01 C99 242.66 97.92 245.07 97.36 247.98 C96.78 250.78 95.7 252.09 93.88 254.28 C93.3 255.11 92.72 255.94 92.12 256.8 C86.06 265.41 80.24 272.33 70.88 277.28 C69.87 278.26 68.86 279.26 67.88 280.28 C66.89 280.61 65.9 280.94 64.88 281.28 C64.88 281.61 64.88 281.94 64.88 282.28 C64.34 282.46 63.8 282.63 63.24 282.81 C57.59 284.66 52.04 286.72 46.51 288.91 C44.94 289.52 43.37 290.14 41.8 290.76 C41.12 291.03 40.43 291.3 39.73 291.57 C27.09 296.41 11.81 295.62 -1.55 295.53 C-2.76 295.53 -2.76 295.53 -3.98 295.52 C-32.65 295.44 -32.65 295.44 -42.12 292.28 C-45.2 291.29 -48.28 290.32 -51.37 289.34 C-52.2 289.08 -53.03 288.81 -53.89 288.54 C-57.62 287.36 -61.34 286.2 -65.1 285.15 C-68.12 284.28 -68.12 284.28 -70.12 283.28 C-70.75 282.98 -71.38 282.69 -72.03 282.38 C-72.74 282.04 -73.45 281.7 -74.18 281.34 C-74.89 281 -75.61 280.67 -76.34 280.32 C-78.12 279.28 -78.12 279.28 -79.12 277.28 C-79.65 277.16 -80.19 277.03 -80.74 276.91 C-87.02 275.25 -91.64 271.15 -96.32 266.87 C-98.24 265.11 -98.24 265.11 -101.12 263.28 C-101.12 262.62 -101.12 261.96 -101.12 261.28 C-101.96 260.96 -101.96 260.96 -102.82 260.63 C-116.55 252.54 -124.98 229.53 -130.12 215.28 C-130.5 214.23 -130.88 213.18 -131.28 212.1 C-132.12 209.28 -132.12 209.28 -132.12 205.28 C-132.78 205.28 -133.44 205.28 -134.12 205.28 C-133.62 203.3 -133.62 203.3 -133.12 201.28 C-133.78 200.95 -134.44 200.62 -135.12 200.28 C-134.79 199.29 -134.46 198.3 -134.12 197.28 C-134.78 197.28 -135.44 197.28 -136.12 197.28 C-135.79 195.63 -135.46 193.98 -135.12 192.28 C-135.78 192.28 -136.44 192.28 -137.12 192.28 C-137.12 190.63 -137.12 188.98 -137.12 187.28 C-137.45 187.28 -137.78 187.28 -138.12 187.28 C-138.09 185.67 -138.09 185.67 -138.05 184.03 C-138.1 181.08 -138.26 179.03 -139.12 176.28 C-139.96 173.36 -140.25 170.75 -140.28 167.71 C-140.29 166.8 -140.3 165.9 -140.31 164.97 C-140.31 164 -140.32 163.03 -140.32 162.02 C-140.33 161.01 -140.33 159.99 -140.34 158.94 C-140.35 156.78 -140.35 154.62 -140.36 152.46 C-140.37 149.22 -140.4 145.97 -140.43 142.73 C-140.51 126.49 -139 111.29 -134.37 95.66 C-134.11 94.79 -133.86 93.92 -133.6 93.03 C-130.47 82.63 -126.01 72.96 -121.12 63.28 C-120.46 63.28 -119.8 63.28 -119.12 63.28 C-119.04 62.59 -118.96 61.9 -118.88 61.19 C-117.91 57.51 -116.07 54.81 -113.87 51.78 C-113.43 51.17 -112.98 50.56 -112.53 49.94 C-100.24 33.46 -84.71 21.71 -66.12 13.28 C-65.11 12.81 -64.1 12.34 -63.07 11.85 C-57.33 9.29 -51.46 7.38 -45.43 5.66 C-44.76 5.46 -44.09 5.27 -43.4 5.07 C-28.9 1.11 -14.98 -0.17 0 0 Z M-19.12 1.28 C-19.12 1.61 -19.12 1.94 -19.12 2.28 C-16.81 2.28 -14.5 2.28 -12.12 2.28 C-12.12 1.95 -12.12 1.62 -12.12 1.28 C-14.43 1.28 -16.74 1.28 -19.12 1.28 Z M-26.12 2.28 C-22.12 3.28 -22.12 3.28 -22.12 3.28 Z M-9.12 53.28 C-9.12 53.61 -9.12 53.94 -9.12 54.28 C-3.84 54.28 1.44 54.28 6.88 54.28 C6.88 53.95 6.88 53.62 6.88 53.28 C1.6 53.28 -3.68 53.28 -9.12 53.28 Z M-127.12 77.28 C-126.12 79.28 -126.12 79.28 -126.12 79.28 Z M-129.12 82.28 C-128.12 84.28 -128.12 84.28 -128.12 84.28 Z M-130.12 85.28 C-129.12 87.28 -129.12 87.28 -129.12 87.28 Z M-131.12 88.28 C-130.12 90.28 -130.12 90.28 -130.12 90.28 Z M-132.12 91.28 C-131.12 93.28 -131.12 93.28 -131.12 93.28 Z M-133.12 94.28 C-132.12 96.28 -132.12 96.28 -132.12 96.28 Z M-134.12 98.28 C-133.12 100.28 -133.12 100.28 -133.12 100.28 Z M-135.12 101.28 C-134.12 104.28 -134.12 104.28 -134.12 104.28 Z M-136.12 106.28 C-135.12 109.28 -135.12 109.28 -135.12 109.28 Z M-137.12 110.28 C-137.12 111.93 -137.12 113.58 -137.12 115.28 C-136.79 115.28 -136.46 115.28 -136.12 115.28 C-136.12 113.63 -136.12 111.98 -136.12 110.28 C-136.45 110.28 -136.78 110.28 -137.12 110.28 Z M-138.12 117.28 C-137.12 121.28 -137.12 121.28 -137.12 121.28 Z M-139.12 124.28 C-139.12 126.59 -139.12 128.9 -139.12 131.28 C-138.79 131.28 -138.46 131.28 -138.12 131.28 C-138.12 128.97 -138.12 126.66 -138.12 124.28 C-138.45 124.28 -138.78 124.28 -139.12 124.28 Z M48.88 198.28 C49.88 200.28 49.88 200.28 49.88 200.28 Z M44.88 209.28 C45.88 211.28 45.88 211.28 45.88 211.28 Z M92.88 251.28 C93.88 253.28 93.88 253.28 93.88 253.28 Z " fill="#4C3B2E" transform="translate(1067.116943359375,92.71875)"/>
<path d="M0 0 C8.57 -0.02 17.14 -0.04 25.71 -0.05 C29.69 -0.06 33.67 -0.06 37.65 -0.08 C41.49 -0.09 45.33 -0.09 49.17 -0.09 C50.63 -0.1 52.1 -0.1 53.57 -0.11 C55.62 -0.11 57.66 -0.11 59.71 -0.11 C61.47 -0.12 61.47 -0.12 63.25 -0.12 C66 0 66 0 68 1 C68 93.4 68 185.8 68 281 C45.89 281 23.78 281 1 281 C0 280 0 280 -0.12 278.08 C-0.12 277.23 -0.12 276.38 -0.12 275.5 C-0.13 274.53 -0.13 273.55 -0.13 272.54 C-0.13 271.46 -0.12 270.37 -0.12 269.25 C-0.12 268.11 -0.12 266.96 -0.12 265.78 C-0.12 262.59 -0.12 259.4 -0.12 256.21 C-0.11 252.78 -0.11 249.34 -0.11 245.91 C-0.11 239.95 -0.11 234 -0.11 228.04 C-0.1 219.43 -0.1 210.82 -0.09 202.21 C-0.09 188.24 -0.08 174.27 -0.08 160.3 C-0.07 146.72 -0.06 133.15 -0.05 119.57 C-0.05 118.74 -0.05 117.9 -0.05 117.04 C-0.05 112.85 -0.05 108.65 -0.05 104.46 C-0.04 69.64 -0.02 34.82 0 0 Z " fill="#4A392C" transform="translate(1208,101)"/>
<path d="M0 0 C1.47 2.33 2.06 3.54 1.69 6.31 C1.46 7.2 1.23 8.09 1 9 C0.66 11.33 0.32 13.66 0 16 C1.07 15.96 2.15 15.92 3.25 15.88 C6.89 16 7.96 16.38 11 18 C12.01 18.07 13.02 18.14 14.06 18.21 C19.15 18.89 22.86 21.76 27 24.62 C27.77 25.13 28.54 25.64 29.33 26.17 C36.13 30.78 41.78 36.07 46.69 42.69 C48.42 45.01 50.1 47.1 52.16 49.15 C54.2 51.2 54.66 52.16 55 55 C54.92 55.85 54.83 56.69 54.75 57.56 C54.83 58.37 54.92 59.17 55 60 C57.41 61.86 57.41 61.86 60 63 C59.72 64.83 59.72 64.83 59.44 66.69 C59.01 70.09 59.24 72.64 60 76 C60.3 82.01 59.51 87.19 58 93 C61.29 95.91 63.6 97.5 68 98 C68 98.66 68 99.32 68 100 C68.66 100 69.32 100 70 100 C70 101.65 70 103.3 70 105 C66.13 104.43 63.92 102.51 61 100 C59.02 100.99 59.02 100.99 57 102 C57.5 105.47 57.5 105.47 58 109 C56.51 109.5 56.51 109.5 55 110 C55 111.98 55 113.96 55 116 C55.91 116.27 56.81 116.54 57.75 116.81 C62.84 118.67 62.84 118.67 65 121 C65.25 124.19 65.25 124.19 65 127 C60.77 126.53 58.9 126.03 56 123 C54.68 123 53.36 123 52 123 C52.35 123.56 52.7 124.11 53.06 124.69 C54.22 127.54 53.81 129.09 53 132 C52.01 132 51.02 132 50 132 C49.34 133.65 48.68 135.3 48 137 C46.68 136.67 45.36 136.34 44 136 C43.8 136.66 43.59 137.31 43.38 137.99 C41.47 142.17 38.76 145.52 35.94 149.12 C35.35 149.88 34.77 150.63 34.17 151.41 C32.45 153.61 30.73 155.81 29 158 C28.55 158.57 28.1 159.14 27.64 159.73 C16.93 173.31 4.43 183.43 -9.5 193.5 C-10.34 194.11 -10.34 194.11 -11.21 194.74 C-15.37 197.7 -19.68 199.94 -24.31 202.06 C-26.18 202.89 -26.18 202.89 -27 205 C-29.49 206.25 -31.95 207.4 -34.5 208.5 C-35.23 208.81 -35.95 209.13 -36.7 209.45 C-41.76 211.58 -46.51 213.35 -52 214 C-52.99 213.34 -53.98 212.68 -55 212 C-55.31 209.44 -55.42 207.11 -55.4 204.55 C-55.41 203.77 -55.41 202.99 -55.42 202.19 C-55.44 199.57 -55.43 196.95 -55.43 194.33 C-55.44 192.46 -55.45 190.59 -55.46 188.71 C-55.49 183.62 -55.5 178.53 -55.51 173.43 C-55.52 168.11 -55.54 162.79 -55.57 157.47 C-55.61 147.39 -55.64 137.31 -55.66 127.23 C-55.69 115.76 -55.73 104.29 -55.78 92.82 C-55.87 69.21 -55.94 45.61 -56 22 C-55.45 21.73 -54.89 21.47 -54.32 21.2 C-53.6 20.84 -52.87 20.49 -52.12 20.12 C-51.41 19.78 -50.69 19.43 -49.95 19.07 C-47.85 18.03 -47.85 18.03 -46 16 C-43.27 16.03 -40.7 16.56 -38 17 C-35.69 14.28 -35.69 14.28 -36.38 11.81 C-36.58 11.21 -36.79 10.62 -37 10 C-35.12 9.38 -35.12 9.38 -33 9 C-31 11 -31 11 -31 15 C-29.02 15 -27.04 15 -25 15 C-24.67 14.34 -24.34 13.68 -24 13 C-21.44 12.97 -18.88 12.95 -16.31 12.94 C-15.23 12.92 -15.23 12.92 -14.13 12.91 C-10.28 12.89 -6.73 13.06 -3 14 C-3.61 9.66 -4.26 5.32 -5 1 C-3 0 -3 0 0 0 Z " fill="#D3A47A" transform="translate(223,103)"/>
<path d="M0 0 C0.33 0 0.66 0 1 0 C1.33 7.92 1.66 15.84 2 24 C4.54 23.53 7.07 23.05 9.69 22.56 C17.12 21.23 24.45 20.29 32 20 C33.94 19.92 33.94 19.92 35.91 19.84 C65.18 19.02 92.05 29.64 114 49 C114.62 49.53 115.25 50.06 115.89 50.6 C132.19 65.46 142.97 91.66 144.19 113.44 C144.59 131.95 144.26 149.08 139 167 C138.69 168.16 138.69 168.16 138.37 169.34 C131.93 193.02 118.9 213.49 102 231 C101.41 231.61 100.82 232.22 100.22 232.85 C93.39 239.89 86.52 246.69 78.79 252.77 C76.72 254.42 74.72 256.1 72.74 257.86 C52.68 275.61 29.35 288.17 3.75 296 C3.05 296.22 2.34 296.44 1.62 296.67 C-2.27 297.8 -5.1 298.21 -9 297 C-9.33 297.66 -9.66 298.32 -10 299 C-16.5 299.19 -22.99 299.37 -29.49 299.54 C-31.7 299.6 -33.91 299.66 -36.12 299.72 C-39.29 299.82 -42.47 299.9 -45.64 299.98 C-47.13 300.02 -47.13 300.02 -48.65 300.07 C-49.57 300.09 -50.49 300.11 -51.44 300.14 C-52.25 300.16 -53.06 300.18 -53.89 300.2 C-56 300 -56 300 -59 298 C-61.32 297.3 -63.65 296.66 -66 296.06 C-67.35 295.71 -68.7 295.36 -70.05 295.01 C-71.37 294.67 -72.68 294.34 -74 294 C-76.06 293.46 -78.13 292.92 -80.19 292.38 C-81.03 292.16 -81.87 291.94 -82.73 291.71 C-84.98 291.01 -86.92 290.1 -89 289 C-90.58 288.26 -90.58 288.26 -92.19 287.5 C-95 286 -95 286 -96 284 C-96.54 283.88 -97.07 283.75 -97.62 283.62 C-105.63 281.52 -111.85 275.2 -118 270 C-118.74 269.41 -119.48 268.82 -120.24 268.21 C-132.56 258.11 -143.09 239.42 -147 224 C-147 223.01 -147 222.02 -147 221 C-147.66 221 -148.32 221 -149 221 C-148.5 219.02 -148.5 219.02 -148 217 C-148.66 216.67 -149.32 216.34 -150 216 C-150.41 213.93 -150.41 213.93 -150.62 211.44 C-150.7 210.61 -150.77 209.78 -150.85 208.93 C-150.9 208.3 -150.95 207.66 -151 207 C-151.33 207 -151.66 207 -152 207 C-152.53 183.12 -149.7 162.93 -140 141 C-139.34 141 -138.68 141 -138 141 C-137.88 140.05 -137.75 139.1 -137.62 138.12 C-137 135 -137 135 -135 133 C-133.89 130.99 -133 129.01 -132.22 126.84 C-127.51 115.88 -119.81 105.89 -112 97 C-110.8 95.6 -110.8 95.6 -109.58 94.18 C-103.55 87.27 -103.55 87.27 -99 85 C-97.24 83.43 -95.54 81.8 -93.88 80.12 C-93.01 79.26 -92.14 78.4 -91.24 77.51 C-89.27 75.3 -88.28 73.6 -87 71 C-77.67 60.85 -60.38 45.83 -46.88 42.47 C-44.79 42.09 -44.79 42.09 -42.81 40.19 C-38.72 37.01 -33.98 34.7 -28.91 33.51 C-26.69 33.03 -26.69 33.03 -24 31 C-22 30.15 -19.97 29.34 -17.94 28.56 C-16.87 28.15 -15.81 27.74 -14.71 27.32 C-10.2 25.72 -5.59 24.38 -1 23 C-0.67 15.41 -0.34 7.82 0 0 Z M8.28 31.41 C5.86 32.04 3.44 32.54 1 33.03 C-8.91 35.06 -18.01 37.93 -27.25 42.06 C-28.69 42.7 -28.69 42.7 -30.16 43.35 C-31.48 43.97 -31.48 43.97 -32.83 44.6 C-33.61 44.96 -34.39 45.33 -35.2 45.71 C-37.14 46.87 -37.14 46.87 -37.88 48.95 C-38.08 52.35 -35.97 54.37 -34 57 C-37.38 55.81 -39.65 54.72 -42 52 C-43.32 53.32 -44.64 54.64 -46 56 C-44.63 57.54 -44.63 57.54 -43 59 C-42.34 59 -41.68 59 -41 59 C-40.5 60.48 -40.5 60.48 -40 62 C-39.34 62 -38.68 62 -38 62 C-38 62.99 -38 63.98 -38 65 C-37.67 65.33 -37.34 65.66 -37 66 C-38.65 66.99 -40.3 67.98 -42 69 C-42.31 67.61 -42.31 67.61 -42.62 66.19 C-44.36 62.17 -46.04 61.6 -50 60 C-50.33 59.67 -50.66 59.34 -51 59 C-52.67 58.96 -54.33 58.96 -56 59 C-56.86 60.78 -56.86 60.78 -57 63 C-55.27 65.15 -55.27 65.15 -53 67 C-52.53 67.56 -52.05 68.11 -51.56 68.69 C-49.49 70.43 -47.64 70.64 -45 71 C-46.19 73.44 -46.19 73.44 -48 76 C-50.69 76.81 -50.69 76.81 -53 77 C-52.63 76.13 -52.63 76.13 -52.25 75.25 C-52.17 74.51 -52.08 73.76 -52 73 C-53.85 70.73 -53.85 70.73 -56 69 C-58.99 70.1 -59.85 70.68 -61.25 73.62 C-61.5 74.41 -61.75 75.19 -62 76 C-61.34 76 -60.68 76 -60 76 C-59.13 78.14 -59.13 78.14 -59 81 C-60.94 83.22 -62.7 84.95 -64.94 86.81 C-65.51 87.31 -66.09 87.82 -66.69 88.33 C-68.11 89.57 -69.55 90.79 -71 92 C-72.35 90.65 -73.69 89.27 -75 87.88 C-76.79 85.77 -76.79 85.77 -79 86 C-78.67 84.68 -78.34 83.36 -78 82 C-77.24 82.08 -76.48 82.15 -75.69 82.23 C-72.95 82.28 -72.95 82.28 -71.34 80.43 C-70.88 79.73 -70.41 79.03 -69.94 78.31 C-69.18 77.22 -69.18 77.22 -68.41 76.1 C-67.95 75.41 -67.48 74.71 -67 74 C-64.79 71.16 -62.61 68.48 -60 66 C-60.66 66 -61.32 66 -62 66 C-62 65.34 -62 64.68 -62 64 C-64.92 63.94 -64.92 63.94 -68 65 C-69.49 67.27 -70.14 69.38 -71 72 C-72.98 72 -74.96 72 -77 72 C-77.2 72.55 -77.39 73.11 -77.59 73.68 C-80.03 79.57 -80.03 79.57 -82.98 80.87 C-84.98 81.28 -86.99 81.64 -89 82 C-91.37 84.85 -91.37 84.85 -90.62 88.19 C-90.42 89.12 -90.21 90.04 -90 91 C-94.45 91.5 -94.45 91.5 -99 92 C-99.93 95.7 -100.08 96.63 -99 100 C-99.76 99.77 -100.53 99.55 -101.31 99.31 C-103.95 98.75 -103.95 98.75 -105.88 100 C-107.62 103.1 -106.7 105.63 -106 109 C-107.21 109.22 -107.21 109.22 -108.44 109.44 C-110.92 109.74 -110.92 109.74 -112 111 C-111.9 112.91 -111.9 112.91 -111.56 115.06 C-111.38 116.36 -111.19 117.66 -111 119 C-113.64 118.67 -116.28 118.34 -119 118 C-118.67 120.64 -118.34 123.28 -118 126 C-118.74 126.23 -119.48 126.45 -120.24 126.69 C-125.97 129.42 -129.73 135.88 -132.07 141.63 C-132.8 144.07 -133.41 146.52 -134 149 C-134.46 150.51 -134.94 152.01 -135.44 153.5 C-135.8 154.62 -135.8 154.62 -136.18 155.75 C-137 158 -137 158 -138.01 160.15 C-142.95 170.86 -143.77 184.31 -143 196 C-142.94 197.14 -142.89 198.29 -142.83 199.46 C-141.83 213.19 -137.31 226.01 -133 239 C-132.34 239 -131.68 239 -131 239 C-131 239.66 -131 240.32 -131 241 C-126.02 243.72 -126.02 243.72 -120.56 243.19 C-119.72 242.8 -118.87 242.4 -118 242 C-118.31 242.72 -118.62 243.44 -118.94 244.19 C-119.93 246.8 -120.53 249.25 -121 252 C-115.19 250.74 -115.19 250.74 -110 248 C-110.33 246.68 -110.66 245.36 -111 244 C-110.01 244.99 -110.01 244.99 -109 246 C-108.41 246.28 -107.83 246.55 -107.23 246.84 C-103.19 248.95 -99.92 252.16 -96.46 255.1 C-94.25 257.2 -94.25 257.2 -92 257 C-91.67 257.99 -91.34 258.98 -91 260 C-92.69 258.93 -94.39 257.85 -96.08 256.78 C-98.53 255.78 -99.56 256.02 -102 257 C-105.31 259.45 -107.67 261.91 -108.88 265.88 C-108.92 266.58 -108.96 267.28 -109 268 C-108.34 268 -107.68 268 -107 268 C-107 268.66 -107 269.32 -107 270 C-100.39 269.56 -100.39 269.56 -95 266 C-96.33 267.43 -97.67 268.86 -99 270.3 C-100.43 272.27 -100.43 272.27 -99 276 C-96.03 276.33 -93.06 276.66 -90 277 C-89.65 276.42 -89.3 275.85 -88.94 275.25 C-88.49 274.51 -88.03 273.76 -87.56 273 C-87.11 272.26 -86.66 271.51 -86.19 270.75 C-85.8 270.17 -85.41 269.6 -85 269 C-84.67 269 -84.34 269 -84 269 C-85 276.43 -85 276.43 -86 280 C-81.87 280.45 -81.87 280.45 -79.25 277.5 C-78.51 276.68 -77.77 275.85 -77 275 C-77.33 278.3 -77.66 281.6 -78 285 C-74.25 286.42 -74.25 286.42 -72.08 284.96 C-68.15 281.75 -68.15 281.75 -66.56 277.12 C-66.78 276.07 -66.78 276.07 -67 275 C-66.01 275.33 -65.02 275.66 -64 276 C-64.14 276.66 -64.29 277.32 -64.44 278 C-65.12 281.66 -65.56 285.31 -66 289 C-62.45 287.6 -62.45 287.6 -59 286 C-58.67 287.65 -58.34 289.3 -58 291 C-44.55 292.81 -44.55 292.81 -31 293 C-29.47 292.96 -29.47 292.96 -27.92 292.91 C-12.12 292.49 -12.12 292.49 2 287 C3.18 287.05 4.36 287.11 5.58 287.16 C10.36 287.21 13.56 285.7 17.69 283.44 C18.71 282.9 18.71 282.9 19.76 282.35 C21.16 281.61 22.56 280.86 23.96 280.1 C25.9 279.05 27.86 278.03 29.82 277.02 C36.52 273.83 36.52 273.83 42 269 C42.63 264.96 42.13 263.23 40.12 259.62 C39.42 258.76 38.72 257.89 38 257 C37.34 257 36.68 257 36 257 C35.88 256.24 35.75 255.47 35.62 254.69 C35.12 251.8 35.12 251.8 33 249 C32.01 249 31.02 249 30 249 C30 248.01 30 247.02 30 246 C30.55 245.9 31.1 245.79 31.66 245.68 C51.4 239.92 73.43 217.82 85.44 201.75 C86 201.01 86.55 200.27 87.13 199.51 C88.76 197.34 90.38 195.17 92 193 C92.45 192.4 92.9 191.8 93.37 191.18 C97.91 186.07 97.91 186.07 100 180 C101.32 180.33 102.64 180.66 104 181 C104.99 179.02 105.98 177.04 107 175 C107.99 175 108.98 175 110 175 C109.43 170.87 109.43 170.87 108 167 C110.9 167.4 112.7 167.77 115.06 169.56 C117.13 171.4 117.13 171.4 121 171 C121.67 168.21 121.67 168.21 121 165 C118.2 162.52 114.83 160 111 160 C111 158.02 111 156.04 111 154 C111.99 153.67 112.98 153.34 114 153 C113.67 150.69 113.34 148.38 113 146 C114.32 145.34 115.64 144.68 117 144 C118.46 145.3 119.93 146.6 121.39 147.91 C123.09 149.28 123.09 149.28 126 149 C126 147.35 126 145.7 126 144 C125.34 144 124.68 144 124 144 C124 143.34 124 142.68 124 142 C123.09 141.73 122.19 141.46 121.25 141.19 C118.29 140.1 116.38 139.02 114 137 C114.14 136.44 114.29 135.89 114.44 135.31 C115.98 128.98 116.63 123.42 115.44 116.94 C114.92 113.43 115.37 110.47 116 107 C115.18 106.65 114.35 106.3 113.5 105.94 C112.68 105.3 111.85 104.66 111 104 C110.88 100.63 110.88 100.63 111 97 C109.64 93.93 108.4 92.31 105.75 90.25 C103.2 88.16 101.63 86.31 99.69 83.69 C93.22 75.19 84.89 69.71 76 64 C89.56 67.6 98.26 73.94 105.93 85.46 C108.18 88.23 109.57 89.13 113 90 C115.74 89.59 115.74 89.59 118 88 C119.12 85.66 119.12 85.66 120 83 C121.08 81.76 121.08 81.76 122.19 80.5 C124.32 78.13 124.32 78.13 123.75 75.19 C123.5 74.47 123.25 73.74 123 73 C122.01 73 121.02 73 120 73 C119.57 73.5 119.13 73.99 118.69 74.5 C117 76 117 76 113.81 76.19 C112.42 76.09 112.42 76.09 111 76 C111.35 75.47 111.7 74.94 112.06 74.39 C112.51 73.68 112.97 72.98 113.44 72.25 C114.12 71.21 114.12 71.21 114.81 70.14 C115.96 68.07 116.55 66.31 117 64 C114.07 64.42 113.11 64.88 111.06 67.12 C110.38 67.74 109.7 68.36 109 69 C106.25 68.75 106.25 68.75 104 68 C104.44 67.49 104.89 66.98 105.35 66.46 C109.14 62.06 109.14 62.06 109.88 56.5 C109.44 55.26 109.44 55.26 109 54 C108.01 53.67 107.02 53.34 106 53 C105.73 53.55 105.47 54.11 105.2 54.68 C104.84 55.4 104.49 56.13 104.12 56.88 C103.78 57.59 103.43 58.31 103.07 59.05 C102 61 102 61 100 63 C96.88 63.12 96.88 63.12 94 63 C94.6 61.73 95.2 60.46 95.81 59.19 C96.15 58.48 96.49 57.77 96.83 57.04 C98.01 54.99 99.34 53.66 101 52 C101.15 49.93 101.15 49.93 100 48 C97.52 46.23 97.52 46.23 95 45 C91.56 47.66 91 50.9 90 55 C88.02 55 86.04 55 84 55 C84.74 53.45 84.74 53.45 85.5 51.88 C86.96 48.46 87.44 45.75 87 42 C86.01 41.01 86.01 41.01 85 40 C82.89 40.32 82.89 40.32 81 41 C81 43.64 81 46.28 81 49 C78.69 49 76.38 49 74 49 C74 46.69 74 44.38 74 42 C71 41.67 71 41.67 69.31 43.5 C68.88 44 68.45 44.49 68 45 C67.92 44.18 67.85 43.36 67.77 42.52 C67.21 39 66.58 36.21 65 33 C61.2 30.67 57.36 29.8 53 29 C51.83 28.74 51.83 28.74 50.63 28.48 C36.67 25.93 21.83 27.72 8.28 31.41 Z M-142 148 C-141 150 -141 150 -141 150 Z M-144 153 C-143 155 -143 155 -143 155 Z M-145 156 C-144 158 -144 158 -144 158 Z M-146 159 C-145 161 -145 161 -145 161 Z M-147 162 C-146 165 -146 165 -146 165 Z M-148 166 C-147 169 -147 169 -147 169 Z M-149 171 C-148 173 -148 173 -148 173 Z M-150 174 C-149 178 -149 178 -149 178 Z M-151 181 C-151 182.65 -151 184.3 -151 186 C-150.67 186 -150.34 186 -150 186 C-150 184.35 -150 182.7 -150 181 C-150.33 181 -150.66 181 -151 181 Z " fill="#29252A" transform="translate(167,59)"/>
<path d="M0 0 C0.29 2.82 0.29 2.82 0.19 6.12 C0.15 7.77 0.15 7.77 0.11 9.45 C0.07 10.29 0.04 11.13 0 12 C-1.98 12.33 -3.96 12.66 -6 13 C-5.38 13.72 -4.76 14.44 -4.12 15.19 C-1.74 18.34 0.12 20.96 -0.12 25.01 C-1 27 -1 27 -3.4 28.27 C-4.38 28.59 -5.36 28.92 -6.38 29.25 C-7.35 29.59 -8.33 29.92 -9.34 30.27 C-12 31 -12 31 -15 31 C-17.01 29.34 -18.41 27.46 -20 25.38 C-21.85 22.76 -21.85 22.76 -25 22 C-23.8 26.5 -22.78 28.36 -19 31 C-19 31.99 -19 32.98 -19 34 C-20.65 34.66 -22.3 35.32 -24 36 C-24.93 32.99 -25.04 32.13 -24 29 C-25.18 28.57 -25.18 28.57 -26.38 28.12 C-29 27 -29 27 -31 25 C-31.99 25 -32.98 25 -34 25 C-33.32 28.09 -33.32 28.09 -31 29.25 C-28.09 31.8 -28.28 34.27 -28 38 C-30.41 40 -32.54 41.24 -35.44 42.5 C-41.49 45.44 -46.33 50.19 -51.36 54.58 C-53.84 56.73 -56.39 58.8 -58.94 60.88 C-59.83 61.6 -60.72 62.33 -61.64 63.08 C-63.01 64.19 -64.38 65.3 -65.77 66.39 C-69.34 69.22 -72.2 72.43 -75.14 75.89 C-77.06 78.07 -79.1 80.1 -81.19 82.12 C-84.3 85.19 -86.7 88.27 -89 92 C-89.87 93.19 -90.74 94.38 -91.62 95.56 C-93.25 97.77 -94.07 99.22 -94.94 101.88 C-95.29 102.58 -95.64 103.28 -96 104 C-99.13 104.81 -99.13 104.81 -102 105 C-101.32 106.11 -100.64 107.23 -99.94 108.38 C-98.78 110.27 -98.78 110.27 -98 112 C-98.33 112.66 -98.66 113.32 -99 114 C-102 115 -102 115 -103.94 114.38 C-106.13 113.75 -106.13 113.75 -108.25 115.31 C-108.83 115.87 -109.41 116.43 -110 117 C-110 117.66 -110 118.32 -110 119 C-108.02 119 -106.04 119 -104 119 C-103.38 121.31 -103.38 121.31 -103 124 C-103.66 124.99 -104.32 125.98 -105 127 C-106.65 126.34 -108.3 125.68 -110 125 C-110 124.34 -110 123.68 -110 123 C-110.62 123.5 -111.24 123.99 -111.88 124.5 C-114 126 -114 126 -116 126 C-113.31 129.32 -109.87 130.38 -106 132 C-105.01 132.99 -105.01 132.99 -104 134 C-104.33 135.32 -104.66 136.64 -105 138 C-108.96 138 -112.92 138 -117 138 C-116.67 138.99 -116.34 139.98 -116 141 C-113.36 141.33 -110.72 141.66 -108 142 C-107.38 143.81 -107.38 143.81 -107 146 C-107.66 146.99 -108.32 147.98 -109 149 C-112.72 149.48 -113.79 149.14 -117 147 C-117.66 148.98 -118.32 150.96 -119 153 C-120.65 153 -122.3 153 -124 153 C-124 150.69 -124 148.38 -124 146 C-124.66 146 -125.32 146 -126 146 C-126.04 148.33 -126.04 150.67 -126 153 C-125.67 153.33 -125.34 153.66 -125 154 C-122.8 153.75 -120.62 153.42 -118.44 153.06 C-117.24 152.87 -116.04 152.67 -114.81 152.47 C-113.88 152.32 -112.95 152.16 -112 152 C-109 155.62 -109 155.62 -109 159 C-112.04 159.08 -114.07 158.98 -117 158 C-117.99 159.65 -118.98 161.3 -120 163 C-121.65 162.67 -123.3 162.34 -125 162 C-125 161.34 -125 160.68 -125 160 C-125.66 160 -126.32 160 -127 160 C-127 161.98 -127 163.96 -127 166 C-126.13 165.84 -125.27 165.67 -124.38 165.5 C-121.18 165.03 -118.22 165 -115 165 C-113.33 164.71 -111.65 164.39 -110 164 C-108.65 166.71 -108.93 169.01 -109 172 C-109.99 172 -110.98 172 -112 172 C-112 172.66 -112 173.32 -112 174 C-110.35 174 -108.7 174 -107 174 C-106.62 175.99 -106.29 177.99 -106 180 C-107.88 181.88 -110.57 181.41 -113.09 181.62 C-115.23 181.86 -115.23 181.86 -117 184 C-120.62 183.62 -120.62 183.62 -124 183 C-123.94 184.46 -123.85 185.92 -123.75 187.38 C-123.7 188.19 -123.66 189 -123.61 189.84 C-123.21 192.19 -123.21 192.19 -120.95 193.29 C-120.31 193.52 -119.66 193.76 -119 194 C-119.02 192.87 -119.04 191.73 -119.06 190.56 C-119 187 -119 187 -118 186 C-116.93 186.04 -115.86 186.08 -114.75 186.12 C-110.79 185.99 -109.15 185.29 -106 183 C-104.44 184.25 -104.44 184.25 -103 186 C-103.31 188.19 -103.31 188.19 -104 190 C-105.7 190.4 -105.7 190.4 -107.44 190.81 C-108.61 191.2 -109.79 191.6 -111 192 C-111.33 192.99 -111.66 193.98 -112 195 C-113.98 195.33 -115.96 195.66 -118 196 C-118 198.31 -118 200.62 -118 203 C-116.39 202.04 -116.39 202.04 -114.75 201.06 C-112.64 199.84 -111.15 199.03 -108.75 198.56 C-106.68 198.12 -106.68 198.12 -105.56 195.44 C-104 193 -104 193 -101.5 192.38 C-99 193 -99 193 -97.56 195 C-97.05 195.99 -96.53 196.98 -96 198 C-92.13 203.97 -87.84 208 -82 212 C-79.76 213.54 -79.76 213.54 -78 215 C-78 215.66 -78 216.32 -78 217 C-77.45 217.18 -76.91 217.36 -76.35 217.55 C-74.76 218.08 -73.18 218.61 -71.59 219.14 C-69.9 219.7 -68.21 220.24 -66.5 220.76 C-65.72 221.01 -64.93 221.25 -64.12 221.5 C-63.41 221.72 -62.69 221.93 -61.95 222.16 C-59.71 223.12 -58.48 224.07 -57 226 C-57.3 228.01 -57.63 230.01 -58 232 C-57.18 234.32 -57.18 234.32 -56 236 C-55.9 234.74 -55.79 233.48 -55.69 232.19 C-55.35 229.4 -55.2 228.26 -53.44 226 C-52.96 225.67 -52.49 225.34 -52 225 C-52.33 224.01 -52.66 223.02 -53 222 C-49.04 220.68 -46.96 221.84 -43 223 C-40.21 223.17 -40.21 223.17 -38 223 C-37.34 224.32 -36.68 225.64 -36 227 C-36.99 227.99 -37.98 228.98 -39 230 C-38.34 230 -37.68 230 -37 230 C-37 232.64 -37 235.28 -37 238 C-36.01 238 -35.02 238 -34 238 C-34 235.69 -34 233.38 -34 231 C-31.69 231.33 -29.38 231.66 -27 232 C-27 232.99 -27 233.98 -27 235 C-27.66 235 -28.32 235 -29 235 C-28.5 235.78 -28.01 236.57 -27.5 237.38 C-26 240 -26 240 -26 242 C-25.34 241.67 -24.68 241.34 -24 241 C-23.31 238.65 -23.31 238.65 -22.88 235.94 C-22.71 235.02 -22.54 234.1 -22.37 233.15 C-22.19 232.09 -22.19 232.09 -22 231 C-18.23 230.19 -14.85 230 -11 230 C-11.19 228.05 -11.19 228.05 -12 226 C-13.98 224.72 -13.98 224.72 -16 224 C-16 223.67 -16 223.34 -16 223 C-15.02 223.02 -15.02 223.02 -14.02 223.04 C-9.22 223.08 -4.72 222.99 0 222 C0 222.66 0 223.32 0 224 C-1.65 224.33 -3.3 224.66 -5 225 C-5 228.63 -5 232.26 -5 236 C-4.01 236.33 -3.02 236.66 -2 237 C-2.66 237 -3.32 237 -4 237 C-2.79 241.61 -2.79 241.61 -1 246 C-0.96 248 -0.96 250 -1 252 C-11.68 254.6 -21.96 256.68 -33 257 C-33.82 257.04 -34.64 257.08 -35.49 257.12 C-43.7 257.36 -51.87 256.06 -60 255 C-60.5 252.52 -60.5 252.52 -61 250 C-61.78 250.5 -62.57 250.99 -63.38 251.5 C-66 253 -66 253 -68 253 C-67.48 248.62 -66.94 244.31 -66 240 C-66.99 240 -67.98 240 -69 240 C-69.04 240.72 -69.08 241.44 -69.12 242.19 C-70.42 246.35 -72.38 247.59 -76 250 C-77.32 249.67 -78.64 249.34 -80 249 C-79.67 245.7 -79.34 242.4 -79 239 C-79.74 239.82 -80.48 240.65 -81.25 241.5 C-84 244 -84 244 -88 244 C-87.86 243.48 -87.71 242.97 -87.56 242.44 C-86.84 239.31 -86.43 236.17 -86 233 C-86.43 233.58 -86.87 234.15 -87.31 234.75 C-87.87 235.49 -88.43 236.24 -89 237 C-89.37 237.76 -89.74 238.53 -90.12 239.31 C-92 241 -92 241 -94.19 241.03 C-96.49 240.77 -98.73 240.44 -101 240 C-101.65 238.23 -101.65 238.23 -102 236 C-101 234.08 -101 234.08 -99.56 232.25 C-98.85 231.33 -98.85 231.33 -98.13 230.39 C-97.76 229.93 -97.38 229.47 -97 229 C-98.78 231.3 -100.16 232.8 -103.05 233.49 C-105.02 233.72 -107.01 233.87 -109 234 C-109 233.34 -109 232.68 -109 232 C-109.66 232 -110.32 232 -111 232 C-109.75 226.73 -107.5 223.03 -103 220 C-99.54 220 -97 221.34 -94 223 C-94 222.34 -94 221.68 -94 221 C-94.57 220.74 -95.13 220.48 -95.72 220.22 C-99.06 218.43 -101.84 216.03 -104.78 213.66 C-108.07 211.06 -108.07 211.06 -112 210 C-112.33 210.99 -112.66 211.98 -113 213 C-114.78 213.95 -114.78 213.95 -116.94 214.69 C-118 215.06 -118 215.06 -119.09 215.45 C-121 216 -121 216 -123 216 C-122.39 212.44 -121.42 209.32 -120 206 C-121.55 206.59 -121.55 206.59 -123.12 207.19 C-127.67 208.14 -129.16 207.43 -133 205 C-133 204.34 -133 203.68 -133 203 C-133.66 203 -134.32 203 -135 203 C-139.72 188.77 -144.25 175.04 -145 160 C-145.06 159.14 -145.11 158.27 -145.17 157.38 C-145.26 154.89 -145.16 152.49 -145 150 C-144.94 149.02 -144.94 149.02 -144.88 148.03 C-144.25 139.02 -143.21 131.23 -139.28 122.99 C-137.8 119.53 -136.98 116.11 -136.12 112.44 C-133.79 103.24 -129.87 95.57 -122 90 C-121.34 90 -120.68 90 -120 90 C-120.33 87.36 -120.66 84.72 -121 82 C-118.36 82.33 -115.72 82.66 -113 83 C-113.33 80.36 -113.66 77.72 -114 75 C-111 73 -111 73 -108 73 C-108.34 71.36 -108.34 71.36 -108.69 69.69 C-109 66 -109 66 -107.88 64 C-105.28 62.62 -103.75 63.18 -101 64 C-101.5 60.53 -101.5 60.53 -102 57 C-98.6 54.91 -95.95 54.82 -92 55 C-92.25 54.09 -92.5 53.19 -92.75 52.25 C-93 49 -93 49 -91.5 46.75 C-89 45 -89 45 -85.44 44.19 C-82.02 43.39 -82.02 43.39 -80.88 41.32 C-79.94 39.17 -79.94 39.17 -79 36 C-77.02 36 -75.04 36 -73 36 C-72.44 34.3 -72.44 34.3 -71.88 32.56 C-71.07 30.62 -71.07 30.62 -70 29 C-66.81 28.06 -66.81 28.06 -64 28 C-64 28.66 -64 29.32 -64 30 C-63.34 30.33 -62.68 30.66 -62 31 C-62.68 31.66 -63.36 32.32 -64.06 33 C-70.24 38.97 -70.24 38.97 -75 46 C-76.65 46 -78.3 46 -80 46 C-80.33 47.32 -80.66 48.64 -81 50 C-80.22 50.25 -79.43 50.5 -78.62 50.75 C-75.61 52.19 -75.28 53.05 -74 56 C-66.97 51.07 -66.97 51.07 -61 45 C-61.05 42.24 -61.05 42.24 -62 40 C-62.66 40 -63.32 40 -64 40 C-62.52 35.32 -62.52 35.32 -59.88 33.69 C-59.26 33.46 -58.64 33.23 -58 33 C-55.94 35.31 -55.94 35.31 -54 38 C-54.33 38.99 -54.66 39.98 -55 41 C-52.59 40.89 -52.59 40.89 -50 40 C-48.16 37.54 -48.16 37.54 -47 35 C-48.11 34.75 -49.23 34.5 -50.38 34.25 C-54 33 -54 33 -55.25 31 C-55.5 30.34 -55.75 29.68 -56 29 C-56.99 28.34 -57.98 27.68 -59 27 C-58.67 25.68 -58.34 24.36 -58 23 C-53.83 22.65 -52.18 23.35 -49 26 C-47.52 26.5 -47.52 26.5 -46 27 C-44.81 30.06 -44.81 30.06 -44 33 C-42.35 32.01 -40.7 31.02 -39 30 C-39.33 29.67 -39.66 29.34 -40 29 C-40 28.01 -40 27.02 -40 26 C-41.48 25.5 -41.48 25.5 -43 25 C-43 24.34 -43 23.68 -43 23 C-44.65 22.34 -46.3 21.68 -48 21 C-47.19 19.06 -47.19 19.06 -46 17 C-45.01 16.67 -44.02 16.34 -43 16 C-42.59 16.64 -42.17 17.28 -41.75 17.94 C-39.82 20.21 -38.89 20.6 -36 21 C-36.68 20.09 -37.36 19.19 -38.06 18.25 C-40 15 -40 15 -39.9 12.95 C-38.65 10.24 -37.27 9.76 -34.58 8.53 C-33.66 8.1 -32.74 7.68 -31.8 7.24 C-30.81 6.81 -29.83 6.38 -28.81 5.94 C-27.82 5.5 -26.82 5.05 -25.8 4.6 C-5.96 -3.98 -5.96 -3.98 0 0 Z " fill="#D2A37A" transform="translate(169,95)"/>
<path d="M0 0 C1.04 0 2.08 0 3.16 0 C11.63 0.13 21.93 0.52 29.06 5.69 C30.64 7.92 30.98 9.88 31.44 12.56 C31.6 13.46 31.75 14.36 31.92 15.29 C32.08 16.32 32.08 16.32 32.25 17.38 C33.9 16.06 35.55 14.73 37.25 13.38 C38.25 14.38 38.25 14.38 38.31 17.94 C38.29 19.07 38.27 20.21 38.25 21.38 C40.56 21.38 42.87 21.38 45.25 21.38 C45.25 18.73 45.25 16.09 45.25 13.38 C47.12 12.75 47.12 12.75 49.25 12.38 C51.25 14.38 51.25 14.38 51.3 16.4 C51.2 17.17 51.1 17.95 51 18.75 C50.91 19.52 50.82 20.29 50.73 21.09 C50.23 23.45 49.42 25.27 48.25 27.38 C50.23 27.38 52.21 27.38 54.25 27.38 C54.43 26.74 54.61 26.1 54.8 25.44 C55.05 24.62 55.3 23.79 55.56 22.94 C55.81 22.11 56.05 21.29 56.3 20.44 C56.61 19.76 56.93 19.08 57.25 18.38 C58.24 18.05 59.23 17.72 60.25 17.38 C62.94 19.31 62.94 19.31 65.25 21.38 C64.65 24.48 63.67 26.44 61.75 28.94 C60.01 31.2 59.18 32.6 58.25 35.38 C62.29 35.74 62.29 35.74 65.94 34.31 C67.85 31.49 69 28.54 70.25 25.38 C71.74 25.87 71.74 25.87 73.25 26.38 C74.12 28.88 74.12 28.88 74.25 32.38 C72.55 35.3 70.48 37.83 68.25 40.38 C70.45 41.33 70.45 41.33 73.25 41.38 C75.48 39.92 77.27 38.18 79.25 36.38 C79.91 36.38 80.57 36.38 81.25 36.38 C80.62 39.59 79.47 41.88 77.69 44.62 C77.23 45.33 76.78 46.04 76.31 46.77 C75.96 47.3 75.61 47.83 75.25 48.38 C79.19 48.74 80.82 48.68 84.12 46.38 C84.83 45.72 85.53 45.06 86.25 44.38 C88.25 47.38 88.25 47.38 88.03 49.34 C87.19 51.53 86.18 53.09 84.75 54.94 C83.01 57.2 82.18 58.6 81.25 61.38 C78.56 62.19 78.56 62.19 75.25 62.38 C71.71 59.26 68.95 55.75 66.12 52 C58.77 42.95 49.41 37.61 37.84 36.05 C36.32 35.9 34.8 35.75 33.28 35.62 C30.45 35.28 27.92 34.35 25.25 33.38 C23.59 33.02 21.92 32.69 20.25 32.38 C20.25 27.04 20.25 21.71 20.25 16.38 C18.6 16.7 16.95 17.03 15.25 17.38 C15.75 18.59 16.24 19.81 16.75 21.06 C17.97 24.3 18.58 26.88 18.25 30.38 C15.6 31.06 13.67 31.46 10.96 30.91 C7.92 30.31 5.1 30.24 2 30.25 C0.94 30.25 -0.11 30.24 -1.2 30.24 C-3.68 30.09 -3.68 30.09 -4.75 31.38 C-6.75 31.42 -8.75 31.42 -10.75 31.38 C-11.41 29.72 -12.07 28.08 -12.75 26.38 C-14.07 26.38 -15.39 26.38 -16.75 26.38 C-16.75 27.36 -16.75 28.36 -16.75 29.38 C-16.09 29.7 -15.43 30.03 -14.75 30.38 C-15.74 31.69 -16.73 33.02 -17.75 34.38 C-18.93 34.11 -20.1 33.84 -21.31 33.56 C-23.91 33.22 -25.25 33.1 -27.56 34.39 C-28.69 35.3 -29.82 36.23 -30.94 37.16 C-34.04 39.24 -37.08 39.18 -40.75 39.38 C-40.75 38.38 -40.75 37.4 -40.75 36.38 C-38.77 35.72 -36.79 35.06 -34.75 34.38 C-35.53 28.94 -37.68 25.05 -41.75 21.38 C-35.88 19.38 -35.88 19.38 -34.75 19.38 C-34.72 17.58 -34.7 15.79 -34.69 14 C-34.68 13 -34.66 12 -34.65 10.98 C-34.57 8.39 -34.57 8.39 -35.75 6.38 C-33.82 5.74 -31.88 5.12 -29.94 4.5 C-28.86 4.15 -27.78 3.8 -26.67 3.45 C-17.86 0.9 -9.15 -0.01 0 0 Z " fill="#A56732" transform="translate(202.75,86.625)"/>
<path d="M0 0 C0.99 0.33 1.98 0.66 3 1 C3.53 2.8 3.53 2.8 4 5 C4.8 6.45 5.66 7.86 6.56 9.25 C7.02 9.96 7.47 10.66 7.94 11.39 C8.29 11.92 8.64 12.45 9 13 C7.68 13.66 6.36 14.32 5 15 C5 16.32 5 17.64 5 19 C2.03 19 -0.94 19 -4 19 C-2.12 22.77 -1.31 23.79 2 26 C1.67 27.32 1.34 28.64 1 30 C0.01 30 -0.98 30 -2 30 C-2 29.34 -2 28.68 -2 28 C-4.97 27.01 -7.94 26.02 -11 25 C-9.79 29.55 -8.73 31.27 -5 34 C-5 35.32 -5 36.64 -5 38 C-8.67 37.69 -9.78 37.24 -12.31 34.44 C-12.87 33.63 -13.43 32.83 -14 32 C-14.99 32.33 -15.98 32.66 -17 33 C-17.33 33.99 -17.66 34.98 -18 36 C-17.2 36.74 -16.39 37.49 -15.56 38.25 C-13.23 40.75 -12.36 41.72 -12 45 C-13.98 45.5 -13.98 45.5 -16 46 C-16 45.34 -16 44.68 -16 44 C-19.91 42.53 -19.91 42.53 -24 42 C-23.77 47.03 -23.77 47.03 -20.94 50.94 C-20.3 51.29 -19.66 51.64 -19 52 C-21.47 52.5 -21.47 52.5 -24 53 C-24 52.34 -24 51.68 -24 51 C-26.64 50.67 -29.28 50.34 -32 50 C-32 51.65 -32 53.3 -32 55 C-31.07 55.43 -31.07 55.43 -30.12 55.88 C-28 57 -28 57 -26 59 C-26.66 59.99 -27.32 60.98 -28 62 C-30.88 61.81 -30.88 61.81 -34 61 C-35.38 58.44 -35.38 58.44 -36 56 C-37.65 56 -39.3 56 -41 56 C-40.53 60.25 -38.03 62.2 -35 65 C-35.66 66.32 -36.32 67.64 -37 69 C-38.65 68.67 -40.3 68.34 -42 68 C-42.99 64.53 -42.99 64.53 -44 61 C-45.32 61.66 -46.64 62.32 -48 63 C-48.2 66.72 -48.15 67.77 -46 71 C-46 72.32 -46 73.64 -46 75 C-48.87 73.71 -50.98 72.43 -53 70 C-53 69.34 -53 68.68 -53 68 C-53.66 68 -54.32 68 -55 68 C-54.34 71.63 -53.68 75.26 -53 79 C-55.44 77.75 -55.44 77.75 -58 76 C-58.62 73.88 -58.62 73.88 -59 72 C-59.99 71.67 -60.98 71.34 -62 71 C-63.12 68.12 -63.12 68.12 -64 65 C-64.33 64.01 -64.66 63.02 -65 62 C-62.67 59.45 -60.22 57.8 -57.25 56.06 C-56.36 55.53 -55.46 55 -54.54 54.46 C-52.58 53.33 -50.58 52.28 -48.56 51.25 C-44.04 48.7 -40.43 44.99 -36.66 41.47 C-34.48 39.45 -32.28 37.52 -30 35.62 C-27.56 33.49 -25.88 31.58 -24 29 C-23.34 29 -22.68 29 -22 29 C-21.72 27.98 -21.72 27.98 -21.44 26.94 C-18.96 21.88 -14.58 18.42 -10.44 14.69 C-7.51 11.46 -5.48 7.99 -3.33 4.21 C-2 2 -2 2 0 0 Z " fill="#A56731" transform="translate(269,245)"/>
<path d="M0 0 C0.5 0.99 0.5 0.99 1 2 C1.64 2.12 2.28 2.25 2.94 2.38 C5 3 5 3 6.25 4.88 C7 7 7 7 7 10 C7.99 10.33 8.98 10.66 10 11 C12.02 13.61 12.94 15.72 13.69 18.94 C12.61 23.74 8.99 25.39 5 28 C1.46 30.06 -2.16 31.95 -5.81 33.81 C-6.75 34.3 -7.69 34.79 -8.66 35.29 C-18.05 40.15 -18.05 40.15 -23.19 40.06 C-24.45 40.04 -25.7 40.02 -27 40 C-29.79 35.09 -31.25 31.74 -31 26 C-31.33 25.01 -31.66 24.02 -32 23 C-33.07 19.8 -33.23 17.35 -33 14 C-32 13 -32 13 -28.62 12.62 C-25.1 12.38 -25.1 12.38 -23.56 10.56 C-21.43 8.43 -19.13 8.23 -16.25 7.6 C-13.01 6.74 -10.09 5.3 -7.05 3.89 C-4.74 2.89 -2.5 2.32 0 2 C0 1.34 0 0.68 0 0 Z " fill="#A56832" transform="translate(196,306)"/>
<path d="M0 0 C0.66 0 1.32 0 2 0 C3.73 2.96 4.21 4.69 3.69 8.06 C3.2 11.54 2.8 15 2.5 18.5 C2.36 19.89 2.36 19.89 2.23 21.32 C2.09 22.97 1.99 24.62 1.96 26.28 C1.71 32.47 -0.84 36.48 -4.09 41.67 C-6.84 46.46 -8.65 51.47 -10.54 56.65 C-11.98 59.96 -13.62 62.31 -16 65 C-20.41 63.65 -22.43 61.81 -25 58 C-25 57.34 -25 56.68 -25 56 C-26.32 55.34 -27.64 54.68 -29 54 C-29 50.8 -28.26 48.91 -27 46 C-26.01 46 -25.02 46 -24 46 C-24.33 43.36 -24.66 40.72 -25 38 C-23.31 37.25 -23.31 37.25 -21 37 C-19.29 38.28 -17.63 39.62 -16 41 C-13.82 41.78 -13.82 41.78 -12 42 C-11.79 39.16 -11.79 39.16 -13 36 C-15.82 33.94 -18.83 32.45 -22 31 C-22 29.02 -22 27.04 -22 25 C-19.64 23.52 -18.31 22.98 -15.5 23.12 C-12.47 24.18 -11.02 25.53 -9 28 C-9 28.66 -9 29.32 -9 30 C-7.68 30.33 -6.36 30.66 -5 31 C-5 29.93 -5 28.85 -5 27.75 C-5 25.17 -5 22.58 -5 20 C-4.34 19.67 -3.68 19.34 -3 19 C-2.93 15.66 -2.93 13.2 -4 10 C-5.98 9.27 -7.98 8.61 -10 8 C-10.99 7.34 -11.98 6.68 -13 6 C-13 5.01 -13 4.02 -13 3 C-7.56 3.5 -7.56 3.5 -2 4 C-1.34 2.68 -0.68 1.36 0 0 Z " fill="#A56732" transform="translate(300,188)"/>
<path d="M0 0 C3 0.32 3.96 0.95 6.06 3.19 C8.02 6.03 9.49 8.91 11 12 C10.08 12.61 9.16 13.21 8.21 13.84 C-25.09 35.84 -58.38 60.41 -75 98 C-78.41 98 -81.63 97.51 -85 97 C-85.33 96.01 -85.66 95.02 -86 94 C-81.65 90.89 -81.65 90.89 -78.31 91.44 C-77.17 91.72 -77.17 91.72 -76 92 C-75.01 91.01 -75.01 91.01 -74 90 C-74.77 87.01 -74.77 87.01 -76 84 C-76.99 83.67 -77.98 83.34 -79 83 C-76.24 82.4 -73.84 82 -71 82 C-70.81 81.22 -70.63 80.43 -70.44 79.62 C-66.14 68.78 -57.16 59.95 -48.89 51.96 C-46.91 49.98 -46.91 49.98 -45.07 47.52 C-42.92 44.91 -40.71 42.97 -38.06 40.88 C-34.33 37.89 -30.66 34.87 -27.04 31.75 C-19.86 25.57 -12.64 19.99 -4 16 C-4.29 10.64 -4.29 10.64 -7.56 6.56 C-8.37 6.05 -9.17 5.53 -10 5 C-9.67 4.01 -9.34 3.02 -9 2 C-4.98 2.62 -2.12 4.45 1 7 C1.38 9.75 1.38 9.75 1 12 C1.66 12 2.32 12 3 12 C3.99 12 4.98 12 6 12 C4.63 8.84 4.01 8.01 1 6 C0.31 2.88 0.31 2.88 0 0 Z " fill="#272329" transform="translate(144,117)"/>
<path d="M0 0 C2.89 5.08 4.09 9.96 5.19 15.62 C5.36 16.51 5.54 17.39 5.72 18.3 C6.95 24.9 7.49 31.27 7 38 C6.01 38.5 6.01 38.5 5 39 C5 38.34 5 37.68 5 37 C2.69 37 0.38 37 -2 37 C-1.67 39.97 -1.34 42.94 -1 46 C-1.33 45.34 -1.66 44.68 -2 44 C-2.99 44 -3.98 44 -5 44 C-6.72 40.55 -5.95 36.64 -5.84 32.85 C-5.77 29.8 -5.77 29.8 -8 27 C-9.32 27 -10.64 27 -12 27 C-12.33 26.01 -12.66 25.02 -13 24 C-13.85 23.59 -14.69 23.18 -15.56 22.75 C-16.37 22.17 -17.17 21.59 -18 21 C-18.25 17.5 -18.25 17.5 -18 14 C-18.33 13.01 -18.66 12.02 -19 11 C-17.76 10.59 -16.52 10.18 -15.25 9.75 C-11.63 8.4 -9.57 6.93 -7 4 C-2.33 0 -2.33 0 0 0 Z " fill="#A56731" transform="translate(295,142)"/>
<path d="M0 0 C3.15 2.83 4.54 5.07 6 9 C6.69 10.24 7.4 11.47 8.12 12.69 C10 16 10 16 10 18 C10.66 18 11.32 18 12 18 C13.48 19.54 13.48 19.54 15.19 21.62 C24.67 32.67 36.72 39.48 50.2 44.58 C53.18 46.09 53.97 46.88 55 50 C54.01 50.66 53.02 51.32 52 52 C51.5 53.93 51.5 53.93 51.44 56.06 C51.29 57.36 51.15 58.66 51 60 C50.01 60.5 50.01 60.5 49 61 C46.51 56.32 47.14 53.06 48 48 C47.31 47.83 46.62 47.66 45.91 47.48 C29.76 43.32 29.76 43.32 24 37 C22.72 36.05 21.43 35.11 20.12 34.19 C15.03 30.42 11.11 26.4 8.44 20.62 C7.25 17.74 7.25 17.74 4.31 17.12 C3.55 17.08 2.79 17.04 2 17 C1.84 17.74 1.67 18.49 1.5 19.25 C-0.67 23.24 -3.86 24.41 -8 26 C-9.33 26.36 -10.66 26.7 -12 27 C-12.33 24.69 -12.66 22.38 -13 20 C-11.91 19.73 -10.81 19.46 -9.69 19.19 C-6.15 18.05 -5.35 17.56 -3 15 C-0.31 13.81 -0.31 13.81 2 13 C1.65 11.02 1.65 11.02 1 9 C0.34 8.67 -0.32 8.34 -1 8 C-1.52 8.5 -2.03 8.99 -2.56 9.5 C-5.81 11.5 -8.26 11.22 -12 11 C-12 13.31 -12 15.62 -12 18 C-12.66 18.33 -13.32 18.66 -14 19 C-16.89 15.74 -18.64 13.4 -19 9 C-18.67 8.34 -18.34 7.68 -18 7 C-16.33 7.06 -16.33 7.06 -14.62 7.12 C-10.96 7.41 -10.96 7.41 -9 5 C-6.34 4.43 -3.71 4.26 -1 4 C-0.67 2.68 -0.34 1.36 0 0 Z " fill="#272329" transform="translate(63,271)"/>
<path d="M0 0 C0.17 0.68 0.34 1.35 0.52 2.05 C1.93 7.24 3 10.28 7 14 C6.75 16.25 6.75 16.25 6 18 C5.01 18 4.02 18 3 18 C2.77 18.63 2.55 19.26 2.31 19.91 C1 22 1 22 -1.31 22.9 C-2.2 23.06 -3.09 23.21 -4 23.38 C-4.89 23.55 -5.77 23.72 -6.69 23.9 C-7.83 23.95 -7.83 23.95 -9 24 C-9.66 23.34 -10.32 22.68 -11 22 C-10.67 20.67 -10.33 19.33 -10 18 C-10.66 17.34 -11.32 16.68 -12 16 C-12 14.68 -12 13.36 -12 12 C-14.31 12.33 -16.62 12.66 -19 13 C-18.67 17.62 -18.34 22.24 -18 27 C-18.99 27 -19.98 27 -21 27 C-21.33 26.67 -21.66 26.34 -22 26 C-21.98 25.11 -21.96 24.23 -21.94 23.31 C-21.84 20 -21.84 20 -23 17 C-24.07 13.8 -24.23 11.35 -24 8 C-23 7 -23 7 -19.62 6.62 C-16.1 6.38 -16.1 6.38 -14.56 4.56 C-12.32 2.32 -9.89 2.08 -6.84 1.43 C-0.72 0 -0.72 0 0 0 Z " fill="#2A2529" transform="translate(187,312)"/>
<path d="M0 0 C0.45 0.41 0.89 0.82 1.36 1.24 C4.79 4.3 7.61 6.45 12 8 C13.47 10.93 13.36 12.72 13 16 C11.76 19.08 10.36 21.65 8 24 C4.19 24.5 4.19 24.5 1 24 C1 24.99 1 25.98 1 27 C1.99 27.66 2.98 28.32 4 29 C4.99 28.67 5.98 28.34 7 28 C7.33 29.65 7.66 31.3 8 33 C3.43 34.18 0.31 33.75 -4.12 32.31 C-6.84 30.41 -7.7 27.98 -9 25 C-7.68 23.68 -6.36 22.36 -5 21 C-4.67 21.33 -4.34 21.66 -4 22 C-4.33 19.36 -4.66 16.72 -5 14 C-3.31 13.25 -3.31 13.25 -1 13 C0.71 14.28 2.37 15.62 4 17 C6.18 17.78 6.18 17.78 8 18 C8.21 15.16 8.21 15.16 7 12 C4.18 9.94 1.17 8.45 -2 7 C-2 5.02 -2 3.04 -2 1 C-1.34 0.67 -0.68 0.34 0 0 Z " fill="#282329" transform="translate(280,212)"/>
<path d="M0 0 C0.33 0 0.66 0 1 0 C1 92.07 1 184.14 1 279 C0.67 279 0.34 279 0 279 C0 186.93 0 94.86 0 0 Z " fill="#1C1611" transform="translate(1206,101)"/>
<path d="M0 0 C0.66 0 1.32 0 2 0 C2.33 1.98 2.66 3.96 3 6 C4.32 6.33 5.64 6.66 7 7 C7.33 5.02 7.66 3.04 8 1 C11.38 1 13.83 1.87 17 3 C17.33 2.01 17.66 1.02 18 0 C18.99 0.66 19.98 1.32 21 2 C21.25 4.8 21.25 4.8 21.07 8.32 C21.02 9.58 20.96 10.83 20.91 12.13 C20.83 13.46 20.76 14.79 20.69 16.12 C20.62 17.46 20.56 18.8 20.5 20.14 C20.35 23.43 20.18 26.72 20 30 C19.67 29.34 19.34 28.68 19 28 C17.35 28 15.7 28 14 28 C14 27.34 14 26.68 14 26 C14.99 26 15.98 26 17 26 C16.67 23.36 16.34 20.72 16 18 C15.32 18.33 14.64 18.66 13.94 19 C10.47 20.18 7.64 20.07 4 20 C2.32 20.29 0.65 20.6 -1 21 C-2.04 17.87 -1.93 17.01 -1 14 C-0.34 14 0.32 14 1 14 C1 14.66 1 15.32 1 16 C3.37 16.42 3.37 16.42 6 16 C7.86 13.59 7.86 13.59 9 11 C11.64 11.66 14.28 12.32 17 13 C16.01 11.02 15.02 9.04 14 7 C13.44 7.16 12.88 7.33 12.3 7.5 C9.87 8.03 7.73 8.1 5.25 8.06 C4.45 8.05 3.65 8.04 2.83 8.04 C2.22 8.02 1.62 8.01 1 8 C0.67 8.66 0.34 9.32 0 10 C-0.75 6.34 -1.24 3.58 0 0 Z " fill="#272329" transform="translate(43,241)"/>
<path d="M0 0 C2.47 1.48 4 2.89 6 5 C5.52 5.4 5.04 5.8 4.54 6.21 C2.64 8.42 2.55 9.69 2.38 12.56 C2.08 16.84 2.08 16.84 1 19 C-0.65 18.67 -2.3 18.34 -4 18 C-4 12.67 -4 7.33 -4 2 C-5.65 2.33 -7.3 2.66 -9 3 C-8.5 4.22 -8.01 5.43 -7.5 6.69 C-6.28 9.92 -5.67 12.5 -6 16 C-8.38 16.62 -8.38 16.62 -11 17 C-13.65 14.35 -14.55 11.43 -16 8 C-16.66 7.01 -17.32 6.02 -18 5 C-16.68 4.34 -15.36 3.68 -14 3 C-14.33 1.35 -14.66 -0.3 -15 -2 C-10.65 -4.17 -4.41 -1.42 0 0 Z " fill="#272329" transform="translate(227,101)"/>
<path d="M0 0 C2.35 2.35 3 4.26 4.12 7.38 C4.48 8.33 4.83 9.29 5.2 10.27 C6 13 6 13 6 17 C4.02 17 2.04 17 0 17 C-0.66 15.35 -1.32 13.7 -2 12 C-3.32 12 -4.64 12 -6 12 C-6 12.99 -6 13.98 -6 15 C-5.34 15.33 -4.68 15.66 -4 16 C-4.99 17.32 -5.98 18.64 -7 20 C-9.31 19.67 -11.62 19.34 -14 19 C-13.01 17.52 -13.01 17.52 -12 16 C-12.02 14.82 -12.04 13.65 -12.06 12.44 C-12.04 11.3 -12.02 10.17 -12 9 C-11.01 8.34 -10.02 7.68 -9 7 C-10.32 6.67 -11.64 6.34 -13 6 C-13 5.01 -13 4.02 -13 3 C-4.13 -0.61 -4.13 -0.61 0 0 Z " fill="#272329" transform="translate(192,101)"/>
<path d="M0 0 C1.94 0.75 1.94 0.75 4 2 C4.75 4.12 4.75 4.12 5 6 C1.53 7.64 -0.34 8.26 -4 7 C-4.66 7 -5.32 7 -6 7 C-6.33 10.3 -6.66 13.6 -7 17 C-7.99 17.33 -8.98 17.66 -10 18 C-13 14.38 -13 14.38 -13 11 C-12.34 11 -11.68 11 -11 11 C-11 10.01 -11 9.02 -11 8 C-13.31 7.67 -15.62 7.34 -18 7 C-18 9.31 -18 11.62 -18 14 C-18.99 14 -19.98 14 -21 14 C-21.12 12.89 -21.25 11.77 -21.38 10.62 C-21.65 6.97 -21.65 6.97 -24 5 C-22.61 3.01 -22.61 3.01 -20 1 C-16.76 0.51 -13.58 0.67 -10.31 0.81 C-8.58 0.86 -6.85 0.91 -5.11 0.96 C-3.97 1 -3.97 1 -2.79 1.05 C-0.98 1.2 -0.98 1.2 0 0 Z " fill="#272329" transform="translate(153,319)"/>
<path d="M0 0 C2.4 1.6 4.01 3.01 6 5 C6.99 5.66 7.98 6.32 9 7 C8.34 7 7.68 7 7 7 C6.67 7.99 6.34 8.98 6 10 C2.99 10.07 0.27 10.06 -2.69 9.44 C-5.15 8.78 -5.15 8.78 -8 10 C-7.48 10.72 -6.97 11.44 -6.44 12.19 C-4.79 15.42 -4.94 16.62 -6 20 C-8.31 19.67 -10.62 19.34 -13 19 C-13.79 20.75 -13.79 20.75 -14 23 C-12.65 25.73 -12.65 25.73 -11 28 C-12.26 27.84 -13.52 27.67 -14.81 27.5 C-17.26 27.18 -19.52 27 -22 27 C-20.98 24.69 -19.94 22.41 -18.88 20.12 C-18.59 19.47 -18.31 18.82 -18.02 18.15 C-16.35 14.65 -15.47 13.19 -11.82 11.7 C-10.89 11.47 -9.96 11.24 -9 11 C-8.31 9.34 -7.65 7.67 -7 6 C-4.81 3.82 -2.44 1.9 0 0 Z " fill="#272329" transform="translate(85,149)"/>
<path d="M0 0 C62.7 0 125.4 0 190 0 C190 0.33 190 0.66 190 1 C127.3 1 64.6 1 0 1 C0 0.67 0 0.34 0 0 Z " fill="#8C6531" transform="translate(170,0)"/>
<path d="M0 0 C0.66 0 1.32 0 2 0 C2 0.66 2 1.32 2 2 C3.42 1.86 4.83 1.71 6.25 1.56 C7.04 1.48 7.83 1.4 8.64 1.32 C10.82 1.02 12.88 0.58 15 0 C15.74 1.71 16.47 3.42 17.2 5.13 C17.84 6.62 18.51 8.09 19.19 9.56 C20.16 12.47 20.14 14.95 20 18 C17 18 17 18 14 16 C14.33 14.35 14.66 12.7 15 11 C13.25 10.21 13.25 10.21 11 10 C8.27 11.35 8.27 11.35 6 13 C5.57 12.55 5.13 12.09 4.69 11.62 C2.89 9.8 2.89 9.8 0 8 C-0.41 5.29 -0.13 2.76 0 0 Z " fill="#272329" transform="translate(277,155)"/>
<path d="M0 0 C1.02 0.98 2.02 1.98 3 3 C3.66 3.33 4.32 3.66 5 4 C5.33 3.01 5.66 2.02 6 1 C6.99 1 7.98 1 9 1 C8.88 3.04 8.76 5.08 8.62 7.12 C8.56 8.26 8.49 9.4 8.41 10.57 C8.01 13.95 7.19 16.82 6 20 C2.04 19.67 -1.92 19.34 -6 19 C-6.33 17.68 -6.66 16.36 -7 15 C-2.94 14.23 0.86 13.9 5 14 C4.89 12.07 4.89 12.07 4 10 C1.7 8.43 1.7 8.43 -1.06 7.25 C-1.98 6.82 -2.9 6.39 -3.85 5.95 C-4.91 5.48 -4.91 5.48 -6 5 C-6 4.34 -6 3.68 -6 3 C-2.54 0 -2.54 0 0 0 Z " fill="#272329" transform="translate(59,218)"/>
<path d="M0 0 C-0.03 0.92 -0.03 0.92 -0.07 1.86 C-0.09 2.67 -0.11 3.48 -0.12 4.31 C-0.16 5.51 -0.16 5.51 -0.2 6.74 C-0.16 9.28 -0.16 9.28 2 12 C2.12 14.69 2.12 14.69 2 17 C-0.97 17 -3.94 17 -7 17 C-7.19 15.38 -7.38 13.75 -7.56 12.12 C-7.67 11.22 -7.77 10.32 -7.88 9.38 C-8 7 -8 7 -7 5 C-7.66 5 -8.32 5 -9 5 C-9.66 3.35 -10.32 1.7 -11 0 C-4.04 -2.41 -4.04 -2.41 0 0 Z " fill="#272329" transform="translate(208,100)"/>
<path d="M0 0 C2.78 1.94 4.91 3.8 7.06 6.44 C7.38 9.75 7.38 9.75 7.06 12.44 C7.72 12.44 8.38 12.44 9.06 12.44 C8.06 15.44 8.06 15.44 6.39 16.61 C-0.51 19.99 -0.51 19.99 -4.94 19.44 C-4.94 18.45 -4.94 17.46 -4.94 16.44 C-2.96 15.78 -0.98 15.12 1.06 14.44 C0.29 9.01 -1.87 5.12 -5.94 1.44 C-2.55 -0.74 -2.55 -0.74 0 0 Z " fill="#282429" transform="translate(166.9375,106.5625)"/>
<path d="M0 0 C0.46 0.34 0.92 0.68 1.39 1.02 C5.19 3.81 5.19 3.81 9.31 6.06 C11.67 7.37 12.22 8.43 13 11 C12.62 14.25 12.62 14.25 12 17 C10.12 16.75 10.12 16.75 8 16 C7.69 15.36 7.38 14.72 7.06 14.06 C6.14 11.78 6.14 11.78 3.62 10.81 C1.43 10.13 -0.75 9.5 -3 9 C-3.19 6.19 -3.19 6.19 -3 3 C-1.49 1.3 -1.49 1.3 0 0 Z " fill="#272329" transform="translate(283,202)"/>
<path d="M0 0 C3.22 1.26 3.81 3.56 5.2 6.58 C6.34 9.67 6.74 12.51 7.01 15.79 C5.03 16.78 5.03 16.78 3.01 17.79 C-0.44 15.49 -0.62 14.56 -1.99 10.79 C-2.55 9.78 -3.1 8.77 -3.68 7.73 C-4.99 4.79 -4.99 4.79 -4.8 2.48 C-3.63 0.05 -2.64 -0.28 0 0 Z " fill="#272329" transform="translate(194.98828125,308.2109375)"/>
<path d="M0 0 C1.32 0.99 2.64 1.98 4 3 C3.67 4.32 3.34 5.64 3 7 C1.87 7.27 0.73 7.54 -0.44 7.81 C-1.61 8.2 -2.79 8.6 -4 9 C-4.33 9.99 -4.66 10.98 -5 12 C-7.31 12 -9.62 12 -12 12 C-12.1 5.85 -12.1 5.85 -12 4 C-11.67 3.67 -11.34 3.34 -11 3 C-9.36 3.06 -9.36 3.06 -7.69 3.12 C-3.84 2.99 -2.7 2.59 0 0 Z " fill="#D2A47A" transform="translate(62,278)"/>
<path d="M0 0 C0.78 0.04 1.57 0.08 2.38 0.12 C2.76 2.12 3.09 4.12 3.38 6.12 C1.49 8.01 -1.2 7.53 -3.71 7.75 C-5.86 7.99 -5.86 7.99 -7.62 10.12 C-11.25 9.75 -11.25 9.75 -14.62 9.12 C-13.75 4.38 -13.75 4.38 -12.62 2.12 C-11.35 2.17 -10.07 2.21 -8.75 2.25 C-6.61 2.37 -6.61 2.37 -4.62 2.12 C-2.62 0.12 -2.62 0.12 0 0 Z " fill="#D3A47A" transform="translate(59.625,268.875)"/>
<path d="M0 0 C2.29 3.44 3.99 7.01 5.78 10.72 C6.92 13.11 6.92 13.11 9 15 C6.36 15 3.72 15 1 15 C0.78 15.9 0.78 15.9 0.56 16.81 C0.11 18.56 -0.43 20.29 -1 22 C-2.32 21.67 -3.64 21.34 -5 21 C-5 17.76 -4.38 16.52 -2.94 13.69 C-1.09 9.73 -0.68 7.3 -2 3 C-2.66 3 -3.32 3 -4 3 C-4 2.34 -4 1.68 -4 1 C-2.68 0.67 -1.36 0.34 0 0 Z " fill="#272329" transform="translate(62,178)"/>
<path d="M0 0 C2.99 0.5 4.39 1.26 7 3 C7.04 5 7.04 7 7 9 C7.91 11.79 7.91 11.79 9 14 C2.95 14.2 2.95 14.2 1 14 C-1 12 -1 12 -1.23 9.43 C-1.22 8.44 -1.2 7.46 -1.19 6.44 C-1.18 5.45 -1.17 4.45 -1.17 3.43 C-1 1 -1 1 0 0 Z " fill="#272329" transform="translate(233,108)"/>
<path d="M0 0 C1.32 1.32 2.64 2.64 4 4 C1.03 8.45 1.03 8.45 -2 13 C-7 12 -7 12 -10 10 C-8.07 5.09 -4.26 2.84 0 0 Z " fill="#D4A57B" transform="translate(58,307)"/>
<path d="M0 0 C-0.23 0.5 -0.46 1 -0.7 1.51 C-3.75 8.23 -6.4 15.09 -9 22 C-11.72 17.67 -10.7 14.5 -9.7 9.7 C-8.61 5.49 -7.59 2.11 -3.94 -0.44 C-2 -1 -2 -1 0 0 Z " fill="#272329" transform="translate(57,204)"/>
<path d="M0 0 C1.32 0.33 2.64 0.66 4 1 C4 1.99 4 2.98 4 4 C4.66 4.33 5.32 4.66 6 5 C3.24 6.8 2.11 7.01 -1.25 6.62 C-2.16 6.42 -3.06 6.21 -4 6 C-4.33 7.32 -4.66 8.64 -5 10 C-5.66 10 -6.32 10 -7 10 C-7 9.34 -7 8.68 -7 8 C-7.66 8 -8.32 8 -9 8 C-9 6.35 -9 4.7 -9 3 C-6.24 2.4 -3.84 2 -1 2 C-0.67 1.34 -0.34 0.68 0 0 Z " fill="#272329" transform="translate(51,265)"/>
<path d="M0 0 C7.38 2.18 7.38 2.18 10 5 C10.25 8.19 10.25 8.19 10 11 C6.59 10.69 4.44 10.31 1.62 8.31 C-0.44 5.38 -0.32 3.51 0 0 Z " fill="#A66832" transform="translate(278,219)"/>
<path d="M0 0 C21.78 0 43.56 0 66 0 C66 0.33 66 0.66 66 1 C44.22 1 22.44 1 0 1 C0 0.67 0 0.34 0 0 Z " fill="#342A26" transform="translate(1208,99)"/>
<path d="M0 0 C21.78 0 43.56 0 66 0 C66 0.33 66 0.66 66 1 C44.22 1 22.44 1 0 1 C0 0.67 0 0.34 0 0 Z " fill="#2E241D" transform="translate(582,99)"/>
<path d="M0 0 C20.79 0 41.58 0 63 0 C63 0.33 63 0.66 63 1 C42.21 1 21.42 1 0 1 C0 0.67 0 0.34 0 0 Z " fill="#362C2A" transform="translate(400,99)"/>
<path d="M0 0 C1.49 2.36 2.06 3.56 1.69 6.38 C1.46 7.24 1.23 8.11 1 9 C0.66 11 0.33 13 0 15 C-0.66 15 -1.32 15 -2 15 C-3.2 10.34 -4.29 5.76 -5 1 C-3 0 -3 0 0 0 Z " fill="#A66832" transform="translate(223,103)"/>
<path d="M0 0 C2.19 -0.31 2.19 -0.31 5 0 C7.81 2.38 7.81 2.38 10 5 C10 5.66 10 6.32 10 7 C10.99 7.33 11.98 7.66 13 8 C12.34 8.66 11.68 9.32 11 10 C9.73 9.4 8.46 8.8 7.19 8.19 C6.13 7.68 6.13 7.68 5.04 7.17 C2.94 5.97 1.51 4.89 0 3 C0 2.01 0 1.02 0 0 Z " fill="#A46833" transform="translate(281,211)"/>
<path d="M0 0 C0.99 0.33 1.98 0.66 3 1 C3.38 2.32 3.7 3.66 4 5 C4.96 6.69 5.95 8.36 7 10 C4.69 10.62 4.69 10.62 2 11 C-1 9 -1 9 -1.51 7.05 C-1.67 5.04 -1.84 3.02 -2 1 C-1.34 0.67 -0.68 0.34 0 0 Z " fill="#272329" transform="translate(158,111)"/>
<path d="M0 0 C0.99 0.66 1.98 1.32 3 2 C3.12 5.38 3.12 5.38 3 9 C3.43 11.31 3.43 11.31 4 13 C2.35 12.67 0.7 12.34 -1 12 C-1.92 7.28 -2.23 4.33 0 0 Z " fill="#272329" transform="translate(154,327)"/>
<path d="M0 0 C0.33 1.98 0.66 3.96 1 6 C-2 7 -2 7 -5 6 C-5 5.34 -5 4.68 -5 4 C-5.99 4 -6.98 4 -8 4 C-5.98 -0.48 -4.8 -1.44 0 0 Z " fill="#272329" transform="translate(126,320)"/>
<path d="M0 0 C0.66 0.33 1.32 0.66 2 1 C-4.34 8.69 -10.87 16.03 -18 23 C-18.66 22.67 -19.32 22.34 -20 22 C-19.59 21.6 -19.17 21.19 -18.75 20.78 C-16.87 18.94 -15 17.1 -13.12 15.25 C-12.47 14.62 -11.82 13.98 -11.15 13.33 C-10.21 12.4 -10.21 12.4 -9.26 11.45 C-8.39 10.6 -8.39 10.6 -7.51 9.74 C-5.93 7.92 -5.04 6.16 -4 4 C-2.71 2.63 -1.38 1.29 0 0 Z " fill="#433A38" transform="translate(84,126)"/>
<path d="M0 0 C1.65 2.97 2.44 5.66 3 9 C-0.13 10.04 -1.02 10.15 -4 9 C-4.66 8.01 -5.32 7.02 -6 6 C-5.2 5.38 -4.39 4.76 -3.56 4.12 C-0.96 2.26 -0.96 2.26 0 0 Z " fill="#CC9F78" transform="translate(100,135)"/>
<path d="M0 0 C2.64 0.66 5.28 1.32 8 2 C8 2.66 8 3.32 8 4 C8.66 4 9.32 4 10 4 C10 5.65 10 7.3 10 9 C5.74 8.53 3.74 6.11 1 3 C0.67 2.01 0.34 1.02 0 0 Z " fill="#A66832" transform="translate(283,199)"/>
<path d="M0 0 C3 2 3 2 3.4 3.88 C3.39 4.58 3.38 5.28 3.38 6 C3.38 6.7 3.39 7.4 3.4 8.12 C3 10 3 10 0 12 C-2 10 -2 10 -2.01 8.12 C-1.9 7.42 -1.8 6.72 -1.69 6 C-1.59 5.3 -1.49 4.6 -1.39 3.88 C-1 2 -1 2 0 0 Z " fill="#272329" transform="translate(120,327)"/>
<path d="M0 0 C1.56 1.12 1.56 1.12 3 3 C2.69 6.19 2.69 6.19 2 9 C1.34 9 0.68 9 0 9 C-2 6 -2 6 -1.69 3.38 C-1 1 -1 1 0 0 Z " fill="#272329" transform="translate(45,227)"/>
<path d="M0 0 C1.32 0 2.64 0 4 0 C4.33 1.65 4.66 3.3 5 5 C2 6 2 6 -0.19 5.06 C-0.79 4.71 -1.38 4.36 -2 4 C-1.34 2.68 -0.68 1.36 0 0 Z " fill="#A66832" transform="translate(180,324)"/>
<path d="M0 0 C8.91 0 17.82 0 27 0 C27 0.33 27 0.66 27 1 C18.09 1 9.18 1 0 1 C0 0.67 0 0.34 0 0 Z " fill="#DCCDBA" transform="translate(1052,389)"/>
<path d="M0 0 C2.97 0.5 2.97 0.5 6 1 C5.67 2.32 5.34 3.64 5 5 C2.56 4.62 2.56 4.62 0 4 C-0.33 3.34 -0.66 2.68 -1 2 C-0.67 1.34 -0.34 0.68 0 0 Z " fill="#272329" transform="translate(141,338)"/>
<path d="M0 0 C1.32 0.33 2.64 0.66 4 1 C4 2.98 4 4.96 4 7 C3.01 7 2.02 7 1 7 C0 6 0 6 -0.06 2.94 C-0.04 1.97 -0.02 1 0 0 Z " fill="#272329" transform="translate(165,332)"/>
<path d="M0 0 C1.32 0.66 2.64 1.32 4 2 C4 2.99 4 3.98 4 5 C2.35 5.66 0.7 6.32 -1 7 C-1.62 5.19 -1.62 5.19 -2 3 C-1.34 2.01 -0.68 1.02 0 0 Z " fill="#D4A57B" transform="translate(146,124)"/>
<path d="M0 0 C8.25 0 16.5 0 25 0 C25 0.33 25 0.66 25 1 C16.75 1 8.5 1 0 1 C0 0.67 0 0.34 0 0 Z " fill="#D9BC9F" transform="translate(805,389)"/>
<path d="M0 0 C7.59 0 15.18 0 23 0 C23 0.33 23 0.66 23 1 C15.41 1 7.82 1 0 1 C0 0.67 0 0.34 0 0 Z " fill="#E5D1BB" transform="translate(118,359)"/>
<path d="M0 0 C0.66 0.33 1.32 0.66 2 1 C-1.63 4.63 -5.26 8.26 -9 12 C-9 9 -9 9 -7.03 6.74 C-5.78 5.54 -5.78 5.54 -4.5 4.31 C-3.66 3.5 -2.83 2.7 -1.97 1.86 C-1.32 1.25 -0.67 0.63 0 0 Z " fill="#272329" transform="translate(75,134)"/>
<path d="M0 0 C0.33 0 0.66 0 1 0 C1 5.94 1 11.88 1 18 C0.67 18 0.34 18 0 18 C0 12.06 0 6.12 0 0 Z " fill="#4B3A2D" transform="translate(926,232)"/>
<path d="M0 0 C5.61 0 11.22 0 17 0 C17 0.33 17 0.66 17 1 C11.39 1 5.78 1 0 1 C0 0.67 0 0.34 0 0 Z " fill="#4B3A2D" transform="translate(1061,92)"/>
<path d="M0 0 C5.28 0 10.56 0 16 0 C16 0.33 16 0.66 16 1 C10.72 1 5.44 1 0 1 C0 0.67 0 0.34 0 0 Z " fill="#4B3A2D" transform="translate(814,92)"/>
<path d="M0 0 C0.33 0 0.66 0 1 0 C1 4.95 1 9.9 1 15 C0.67 15 0.34 15 0 15 C0 10.05 0 5.1 0 0 Z " fill="#CEA179" transform="translate(1001,238)"/>
<path d="M0 0 C1.98 0 3.96 0 6 0 C6 0.33 6 0.66 6 1 C4.02 1 2.04 1 0 1 C0 0.67 0 0.34 0 0 Z " fill="#C7B4A4" transform="translate(147,358)"/>
<path d="M0 0 C0.33 0 0.66 0 1 0 C1 1.98 1 3.96 1 6 C0.67 6 0.34 6 0 6 C0 4.02 0 2.04 0 0 Z " fill="#DCD9CF" transform="translate(1002,259)"/>
<path d="M0 0 C0.33 0 0.66 0 1 0 C1 1.98 1 3.96 1 6 C0.67 6 0.34 6 0 6 C0 4.02 0 2.04 0 0 Z " fill="#DCD9CF" transform="translate(1002,224)"/>
<path d="M0 0 C1.65 0 3.3 0 5 0 C5 0.33 5 0.66 5 1 C3.35 1 1.7 1 0 1 C0 0.67 0 0.34 0 0 Z " fill="#D7D2C9" transform="translate(1084,388)"/>
<path d="M0 0 C1.65 0 3.3 0 5 0 C5 0.33 5 0.66 5 1 C3.35 1 1.7 1 0 1 C0 0.67 0 0.34 0 0 Z " fill="#D7D2C9" transform="translate(1042,388)"/>
<path d="M0 0 C1.65 0 3.3 0 5 0 C5 0.33 5 0.66 5 1 C3.35 1 1.7 1 0 1 C0 0.67 0 0.34 0 0 Z " fill="#D7D2C9" transform="translate(794,388)"/>
<path d="M0 0 C0.66 0.33 1.32 0.66 2 1 C1.01 1 0.02 1 -1 1 C-0.67 0.67 -0.34 0.34 0 0 Z " fill="#4B3A2D" transform="translate(846,325)"/>
<path d="M0 0 C0 3 0 3 0 3 Z " fill="#4B3A2D" transform="translate(858,313)"/>
<path d="M0 0 C1 4 1 4 1 4 Z " fill="#CEC9BF" transform="translate(755,269)"/>
<path d="M0 0 C1 4 1 4 1 4 Z " fill="#E1CDB6" transform="translate(754,261)"/>
<path d="M0 0 C1 4 1 4 1 4 Z " fill="#272329" transform="translate(14,251)"/>
<path d="M0 0 C1 4 1 4 1 4 Z " fill="#EAE2D4" transform="translate(754,221)"/>
<path d="M0 0 C3 1 3 1 3 1 Z " fill="#E5DBCA" transform="translate(1092,387)"/>
<path d="M0 0 C3 1 3 1 3 1 Z " fill="#E5DBCA" transform="translate(1035,387)"/>
<path d="M0 0 C3 1 3 1 3 1 Z " fill="#EFEADD" transform="translate(844,387)"/>
<path d="M0 0 C3 1 3 1 3 1 Z " fill="#EFEADD" transform="translate(787,387)"/>
<path d="M0 0 C3 1 3 1 3 1 Z " fill="#FAF9F0" transform="translate(1098,386)"/>
<path d="M0 0 C3 1 3 1 3 1 Z " fill="#FAF9F0" transform="translate(1029,386)"/>
<path d="M0 0 C3 1 3 1 3 1 Z " fill="#EFEADD" transform="translate(781,386)"/>
<path d="M0 0 C3 1 3 1 3 1 Z " fill="#E3CEB6" transform="translate(101,356)"/>
<path d="M0 0 C0.99 0.5 0.99 0.5 2 1 C1.01 1.5 1.01 1.5 0 2 C0 1.34 0 0.68 0 0 Z " fill="#785D47" transform="translate(906,353)"/>
<path d="" fill="#4B3A2D" transform="translate(0,0)"/>
<path d="" fill="#BFB9AF" transform="translate(0,0)"/>
<path d="" fill="#BFB9AF" transform="translate(0,0)"/>
<path d="" fill="#EFEADD" transform="translate(0,0)"/>
<path d="" fill="#EFEADD" transform="translate(0,0)"/>
<path d="" fill="#BFB9AF" transform="translate(0,0)"/>
<path d="M0 0 C3 1 3 1 3 1 Z " fill="#BFB9AF" transform="translate(1053,148)"/>
<path d="M0 0 C3 1 3 1 3 1 Z " fill="#BFB9AF" transform="translate(829,148)"/>
<path d="M0 0 C2 1 2 1 2 1 Z " fill="#EAE2D4" transform="translate(1107,384)"/>
<path d="M0 0 C2 1 2 1 2 1 Z " fill="#FAF9F0" transform="translate(1020,384)"/>
<path d="M0 0 C2 1 2 1 2 1 Z " fill="#908E8C" transform="translate(858,384)"/>
<path d="M0 0 C2 1 2 1 2 1 Z " fill="#FAF9F0" transform="translate(772,384)"/>
<path d="M0 0 C2 1 2 1 2 1 Z " fill="#908E8C" transform="translate(1113,382)"/>
<path d="M0 0 C2 1 2 1 2 1 Z " fill="#A2998E" transform="translate(1013,382)"/>
<path d="M0 0 C2 1 2 1 2 1 Z " fill="#908E8C" transform="translate(765,382)"/>
<path d="M0 0 C2 1 2 1 2 1 Z " fill="#938372" transform="translate(1116,381)"/>
<path d="M0 0 C2 1 2 1 2 1 Z " fill="#938372" transform="translate(1121,379)"/>
<path d="M0 0 C2 1 2 1 2 1 Z " fill="#938372" transform="translate(1004,379)"/>
<path d="M0 0 C2 1 2 1 2 1 Z " fill="#938372" transform="translate(756,379)"/>
<path d="M0 0 C2 1 2 1 2 1 Z " fill="#938372" transform="translate(1123,378)"/>
<path d="M0 0 C2 1 2 1 2 1 Z " fill="#A2998E" transform="translate(875,378)"/>
<path d="M0 0 C2 1 2 1 2 1 Z " fill="#938372" transform="translate(1125,377)"/>
<path d="M0 0 C2 1 2 1 2 1 Z " fill="#938372" transform="translate(999,377)"/>
<path d="M0 0 C2 1 2 1 2 1 Z " fill="#938372" transform="translate(877,377)"/>
<path d="M0 0 C2 1 2 1 2 1 Z " fill="#938372" transform="translate(1127,376)"/>
<path d="M0 0 C2 1 2 1 2 1 Z " fill="#938372" transform="translate(879,376)"/>
<path d="M0 0 C2 1 2 1 2 1 Z " fill="#908E8C" transform="translate(106,357)"/>
<path d="M0 0 C2 1 2 1 2 1 Z " fill="#FAF9F0" transform="translate(97,355)"/>
<path d="M0 0 C2 1 2 1 2 1 Z " fill="#908E8C" transform="translate(94,354)"/>
<path d="M0 0 C2 1 2 1 2 1 Z " fill="#EAE2D4" transform="translate(90,353)"/>
<path d="M0 0 C2 1 2 1 2 1 Z " fill="#BFB3AA" transform="translate(87,352)"/>
<path d="M0 0 C2 1 2 1 2 1 Z " fill="#7D7C78" transform="translate(85,351)"/>
<path d="" fill="#A2998E" transform="translate(0,0)"/>
<path d="" fill="#938372" transform="translate(0,0)"/>
<path d="" fill="#938372" transform="translate(0,0)"/>
<path d="" fill="#938372" transform="translate(0,0)"/>
<path d="M0 0 C2 1 2 1 2 1 Z " fill="#4B3A2D" transform="translate(814,334)"/>
<path d="" fill="#938372" transform="translate(0,0)"/>
<path d="" fill="#938372" transform="translate(0,0)"/>
<path d="" fill="#938372" transform="translate(0,0)"/>
<path d="" fill="#938372" transform="translate(0,0)"/>
<path d="M0 0 C2 1 2 1 2 1 Z " fill="#4B3A2D" transform="translate(1086,330)"/>
<path d="" fill="#938372" transform="translate(0,0)"/>
<path d="M0 0 C2 1 2 1 2 1 Z " fill="#4B3A2D" transform="translate(1088,329)"/>
<path d="" fill="#938372" transform="translate(0,0)"/>
<path d="M0 0 C2 1 2 1 2 1 Z " fill="#4B3A2D" transform="translate(1090,328)"/>
<path d="" fill="#938372" transform="translate(0,0)"/>
<path d="" fill="#A2998E" transform="translate(0,0)"/>
<path d="" fill="#A2998E" transform="translate(0,0)"/>
<path d="" fill="#4B3A2D" transform="translate(0,0)"/>
<path d="" fill="#4B3A2D" transform="translate(0,0)"/>
<path d="" fill="#A2998E" transform="translate(0,0)"/>
<path d="" fill="#938372" transform="translate(0,0)"/>
<path d="" fill="#908E8C" transform="translate(0,0)"/>
<path d="" fill="#EAE2D4" transform="translate(0,0)"/>
<path d="" fill="#A2998E" transform="translate(0,0)"/>
<path d="" fill="#A2998E" transform="translate(0,0)"/>
<path d="" fill="#FAF9F0" transform="translate(0,0)"/>
<path d="" fill="#A2998E" transform="translate(0,0)"/>
<path d="" fill="#EAE2D4" transform="translate(0,0)"/>
<path d="" fill="#FAF9F0" transform="translate(0,0)"/>
<path d="" fill="#EAE2D4" transform="translate(0,0)"/>
<path d="" fill="#EAE2D4" transform="translate(0,0)"/>
<path d="" fill="#A2998E" transform="translate(0,0)"/>
<path d="" fill="#A2998E" transform="translate(0,0)"/>
<path d="" fill="#FAF9F0" transform="translate(0,0)"/>
<path d="" fill="#272329" transform="translate(0,0)"/>
<path d="" fill="#A2998E" transform="translate(0,0)"/>
<path d="" fill="#FAF9F0" transform="translate(0,0)"/>
<path d="" fill="#EAE2D4" transform="translate(0,0)"/>
<path d="M0 0 C2 1 2 1 2 1 Z " fill="#A2998E" transform="translate(871,192)"/>
<path d="" fill="#272329" transform="translate(0,0)"/>
<path d="M0 0 C2 1 2 1 2 1 Z " fill="#938372" transform="translate(1124,190)"/>
<path d="M0 0 C2 1 2 1 2 1 Z " fill="#817770" transform="translate(1126,189)"/>
<path d="" fill="#938372" transform="translate(0,0)"/>
<path d="" fill="#272329" transform="translate(0,0)"/>
<path d="" fill="#938372" transform="translate(0,0)"/>
<path d="M0 0 C2 1 2 1 2 1 Z " fill="#938372" transform="translate(886,185)"/>
<path d="" fill="#938372" transform="translate(0,0)"/>
<path d="M0 0 C2 1 2 1 2 1 Z " fill="#938372" transform="translate(1139,183)"/>
<path d="M0 0 C2 1 2 1 2 1 Z " fill="#938372" transform="translate(1141,182)"/>
<path d="" fill="#A2998E" transform="translate(0,0)"/>
<path d="M0 0 C2 1 2 1 2 1 Z " fill="#938372" transform="translate(1143,181)"/>
<path d="M0 0 C2 1 2 1 2 1 Z " fill="#938372" transform="translate(1145,180)"/>
<path d="M0 0 C2 1 2 1 2 1 Z " fill="#817770" transform="translate(1147,179)"/>
<path d="M0 0 C2 1 2 1 2 1 Z " fill="#938372" transform="translate(899,179)"/>
<path d="M0 0 C2 1 2 1 2 1 Z " fill="#A2998E" transform="translate(1156,175)"/>
<path d="M0 0 C2 1 2 1 2 1 Z " fill="#938372" transform="translate(1158,174)"/>
<path d="M0 0 C2 1 2 1 2 1 Z " fill="#938372" transform="translate(1160,173)"/>
<path d="M0 0 C2 1 2 1 2 1 Z " fill="#938372" transform="translate(912,173)"/>
<path d="M0 0 C2 1 2 1 2 1 Z " fill="#938372" transform="translate(914,172)"/>
<path d="M0 0 C2 1 2 1 2 1 Z " fill="#817770" transform="translate(916,171)"/>
<path d="M0 0 C2 1 2 1 2 1 Z " fill="#A2998E" transform="translate(1169,169)"/>
<path d="M0 0 C2 1 2 1 2 1 Z " fill="#908E8C" transform="translate(1171,168)"/>
<path d="" fill="#4B3A2D" transform="translate(0,0)"/>
<path d="" fill="#908E8C" transform="translate(0,0)"/>
<path d="" fill="#A2998E" transform="translate(0,0)"/>
<path d="" fill="#4B3A2D" transform="translate(0,0)"/>
<path d="" fill="#A2998E" transform="translate(0,0)"/>
<path d="" fill="#A2998E" transform="translate(0,0)"/>
<path d="" fill="#908E8C" transform="translate(0,0)"/>
<path d="" fill="#4B3A2D" transform="translate(0,0)"/>
<path d="" fill="#A2998E" transform="translate(0,0)"/>
<path d="M0 0 C2 1 2 1 2 1 Z " fill="#908E8C" transform="translate(1043,151)"/>
<path d="" fill="#A2998E" transform="translate(0,0)"/>
<path d="" fill="#A2998E" transform="translate(0,0)"/>
<path d="" fill="#4B3A2D" transform="translate(0,0)"/>
<path d="M0 0 C2 1 2 1 2 1 Z " fill="#EAE2D4" transform="translate(1049,149)"/>
<path d="M0 0 C2 1 2 1 2 1 Z " fill="#DBCCB8" transform="translate(834,149)"/>
<path d="M0 0 C2 1 2 1 2 1 Z " fill="#EAE2D4" transform="translate(801,149)"/>
<path d="M0 0 C2 1 2 1 2 1 Z " fill="#A2998E" transform="translate(1078,148)"/>
<path d="" fill="#A2998E" transform="translate(0,0)"/>
<path d="M0 0 C2 1 2 1 2 1 Z " fill="#FAF9F0" transform="translate(805,148)"/>
<path d="" fill="#A2998E" transform="translate(0,0)"/>
<path d="" fill="#A2998E" transform="translate(0,0)"/>
<path d="" fill="#A2998E" transform="translate(0,0)"/>
<path d="" fill="#A2998E" transform="translate(0,0)"/>
<path d="M0 0 C2 1 2 1 2 1 Z " fill="#4B3A2D" transform="translate(746,109)"/>
<path d="M0 0 C2 1 2 1 2 1 Z " fill="#4B3A2D" transform="translate(748,108)"/>
<path d="M0 0 C2 1 2 1 2 1 Z " fill="#4B3A2D" transform="translate(750,107)"/>
<path d="M0 0 C2 1 2 1 2 1 Z " fill="#272329" transform="translate(120,101)"/>
<path d="M0 0 C2 1 2 1 2 1 Z " fill="#272329" transform="translate(138,92)"/>
<path d="" fill="#4B3A2D" transform="translate(0,0)"/>
<path d="" fill="#FAF9F0" transform="translate(0,0)"/>
<path d="" fill="#FAF9F0" transform="translate(0,0)"/>
<path d="" fill="#FAF9F0" transform="translate(0,0)"/>
<path d="" fill="#4B3A2D" transform="translate(0,0)"/>
<path d="" fill="#272329" transform="translate(0,0)"/>
<path d="" fill="#4B3A2D" transform="translate(0,0)"/>
<path d="" fill="#FAF9F0" transform="translate(0,0)"/>
<path d="" fill="#FAF9F0" transform="translate(0,0)"/>
<path d="" fill="#FAF9F0" transform="translate(0,0)"/>
<path d="" fill="#FAF9F0" transform="translate(0,0)"/>
<path d="" fill="#DBCCB8" transform="translate(0,0)"/>
<path d="" fill="#FAF9F0" transform="translate(0,0)"/>
<path d="" fill="#FAF9F0" transform="translate(0,0)"/>
<path d="" fill="#FAF9F0" transform="translate(0,0)"/>
<path d="" fill="#D4A57B" transform="translate(0,0)"/>
<path d="" fill="#D4A57B" transform="translate(0,0)"/>
<path d="" fill="#D4A57B" transform="translate(0,0)"/>
<path d="" fill="#856D65" transform="translate(0,0)"/>
<path d="" fill="#D4A57B" transform="translate(0,0)"/>
<path d="" fill="#D4A57B" transform="translate(0,0)"/>
<path d="" fill="#DBCCB8" transform="translate(0,0)"/>
<path d="" fill="#DBCCB8" transform="translate(0,0)"/>
<path d="" fill="#856D65" transform="translate(0,0)"/>
<path d="" fill="#000000" transform="translate(0,0)"/>
<path d="" fill="#856D65" transform="translate(0,0)"/>
<path d="" fill="#4B3A2D" transform="translate(0,0)"/>
<path d="" fill="#4B3A2D" transform="translate(0,0)"/>
<path d="" fill="#4B3A2D" transform="translate(0,0)"/>
<path d="" fill="#4B3A2D" transform="translate(0,0)"/>
<path d="" fill="#4B3A2D" transform="translate(0,0)"/>
<path d="" fill="#4B3A2D" transform="translate(0,0)"/>
<path d="" fill="#000000" transform="translate(0,0)"/>
<path d="" fill="#4B3A2D" transform="translate(0,0)"/>
<path d="" fill="#FAF9F0" transform="translate(0,0)"/>
<path d="" fill="#4B3A2D" transform="translate(0,0)"/>
<path d="" fill="#FAF9F0" transform="translate(0,0)"/>
<path d="" fill="#4B3A2D" transform="translate(0,0)"/>
<path d="" fill="#272329" transform="translate(0,0)"/>
<path d="" fill="#DBCCB8" transform="translate(0,0)"/>
<path d="" fill="#FAF9F0" transform="translate(0,0)"/>
<path d="" fill="#FAF9F0" transform="translate(0,0)"/>
<path d="" fill="#4B3A2D" transform="translate(0,0)"/>
<path d="" fill="#4B3A2D" transform="translate(0,0)"/>
<path d="" fill="#FAF9F0" transform="translate(0,0)"/>
<path d="" fill="#D4A57B" transform="translate(0,0)"/>
<path d="" fill="#FAF9F0" transform="translate(0,0)"/>
<path d="" fill="#FAF9F0" transform="translate(0,0)"/>
<path d="" fill="#4B3A2D" transform="translate(0,0)"/>
<path d="" fill="#FAF9F0" transform="translate(0,0)"/>
<path d="" fill="#4B3A2D" transform="translate(0,0)"/>
<path d="" fill="#4B3A2D" transform="translate(0,0)"/>
<path d="" fill="#4B3A2D" transform="translate(0,0)"/>
<path d="" fill="#DBCCB8" transform="translate(0,0)"/>
<path d="" fill="#DBCCB8" transform="translate(0,0)"/>
<path d="" fill="#4B3A2D" transform="translate(0,0)"/>
<path d="" fill="#FAF9F0" transform="translate(0,0)"/>
<path d="" fill="#4B3A2D" transform="translate(0,0)"/>
<path d="" fill="#4B3A2D" transform="translate(0,0)"/>
<path d="" fill="#4B3A2D" transform="translate(0,0)"/>
<path d="" fill="#4B3A2D" transform="translate(0,0)"/>
<path d="" fill="#4B3A2D" transform="translate(0,0)"/>
<path d="" fill="#FAF9F0" transform="translate(0,0)"/>
<path d="" fill="#DBCCB8" transform="translate(0,0)"/>
<path d="" fill="#FAF9F0" transform="translate(0,0)"/>
<path d="" fill="#4B3A2D" transform="translate(0,0)"/>
<path d="" fill="#4B3A2D" transform="translate(0,0)"/>
<path d="" fill="#FAF9F0" transform="translate(0,0)"/>
<path d="" fill="#4B3A2D" transform="translate(0,0)"/>
<path d="" fill="#4B3A2D" transform="translate(0,0)"/>
<path d="" fill="#FAF9F0" transform="translate(0,0)"/>
<path d="" fill="#4B3A2D" transform="translate(0,0)"/>
<path d="" fill="#4B3A2D" transform="translate(0,0)"/>
<path d="" fill="#4B3A2D" transform="translate(0,0)"/>
<path d="" fill="#4B3A2D" transform="translate(0,0)"/>
<path d="" fill="#4B3A2D" transform="translate(0,0)"/>
<path d="" fill="#FAF9F0" transform="translate(0,0)"/>
<path d="" fill="#272329" transform="translate(0,0)"/>
<path d="" fill="#4B3A2D" transform="translate(0,0)"/>
<path d="" fill="#FAF9F0" transform="translate(0,0)"/>
<path d="" fill="#856D65" transform="translate(0,0)"/>
<path d="" fill="#4B3A2D" transform="translate(0,0)"/>
<path d="" fill="#DBCCB8" transform="translate(0,0)"/>
<path d="" fill="#4B3A2D" transform="translate(0,0)"/>
<path d="" fill="#4B3A2D" transform="translate(0,0)"/>
<path d="" fill="#4B3A2D" transform="translate(0,0)"/>
<path d="" fill="#4B3A2D" transform="translate(0,0)"/>
<path d="" fill="#DBCCB8" transform="translate(0,0)"/>
<path d="" fill="#FAF9F0" transform="translate(0,0)"/>
<path d="" fill="#DBCCB8" transform="translate(0,0)"/>
<path d="" fill="#FAF9F0" transform="translate(0,0)"/>
<path d="" fill="#4B3A2D" transform="translate(0,0)"/>
<path d="" fill="#4B3A2D" transform="translate(0,0)"/>
<path d="" fill="#DBCCB8" transform="translate(0,0)"/>
<path d="" fill="#FAF9F0" transform="translate(0,0)"/>
<path d="" fill="#4B3A2D" transform="translate(0,0)"/>
<path d="" fill="#272329" transform="translate(0,0)"/>
<path d="" fill="#272329" transform="translate(0,0)"/>
<path d="" fill="#4B3A2D" transform="translate(0,0)"/>
<path d="" fill="#DBCCB8" transform="translate(0,0)"/>
</svg>
