<?xml version="1.0" encoding="UTF-8"?>
<!-- Generator: visioncortex VTracer 0.6.3 -->
<svg version="1.1" xmlns="http://www.w3.org/2000/svg" width="1280" height="641">
<path d="M0 0 C96.53 0.5 96.53 0.5 195 1 C195 126.73 195 252.46 195 382 C130.98 382.33 66.96 382.66 1 383 C1 398.84 1 414.68 1 431 C-54.44 431 -109.88 431 -167 431 C-167 302.96 -167 174.92 -167 43 C-111.89 43 -56.78 43 0 43 C0 28.81 0 14.62 0 0 Z M-160 57 C-160.1 58.92 -160.12 60.85 -160.12 62.78 C-160.13 64.04 -160.13 65.3 -160.13 66.6 C-160.13 68.02 -160.12 69.44 -160.12 70.86 C-160.12 72.36 -160.12 73.85 -160.12 75.35 C-160.13 79.47 -160.12 83.6 -160.12 87.72 C-160.11 92.16 -160.11 96.6 -160.11 101.04 C-160.11 108.74 -160.11 116.45 -160.11 124.15 C-160.1 135.28 -160.1 146.42 -160.09 157.55 C-160.09 175.61 -160.08 193.68 -160.08 211.74 C-160.07 229.29 -160.06 246.84 -160.05 264.39 C-160.05 265.47 -160.05 266.55 -160.05 267.67 C-160.05 273.09 -160.05 278.51 -160.05 283.94 C-160.04 328.96 -160.02 373.98 -160 419 C-157.27 420.37 -155.14 420.11 -152.08 420.09 C-150.82 420.08 -149.55 420.08 -148.25 420.07 C-146.85 420.06 -145.44 420.05 -144.04 420.04 C-142.56 420.03 -141.09 420.02 -139.61 420.01 C-135.6 419.99 -131.59 419.96 -127.57 419.93 C-123.38 419.9 -119.19 419.88 -115 419.85 C-107.95 419.8 -100.91 419.75 -93.87 419.7 C-85.72 419.64 -77.57 419.59 -69.42 419.54 C-62.44 419.5 -55.45 419.45 -48.46 419.4 C-44.28 419.37 -40.11 419.35 -35.93 419.32 C-32 419.3 -28.08 419.27 -24.15 419.24 C-22.71 419.23 -21.26 419.22 -19.82 419.21 C-17.85 419.2 -15.89 419.18 -13.92 419.16 C-12.27 419.15 -12.27 419.15 -10.58 419.14 C-8.01 419.17 -8.01 419.17 -6 418 C-5.97 410.33 -5.96 402.66 -5.95 394.98 C-5.94 392.37 -5.93 389.76 -5.92 387.15 C-5.91 383.4 -5.91 379.66 -5.9 375.91 C-5.9 374.73 -5.89 373.56 -5.89 372.35 C-5.89 371.27 -5.89 370.18 -5.89 369.07 C-5.88 368.11 -5.88 367.16 -5.88 366.17 C-5.76 364.02 -5.76 364.02 -7 363 C-7.04 361 -7.04 359 -7 357 C-9.84 356.05 -11.68 355.87 -14.62 355.88 C-15.42 355.87 -16.22 355.87 -17.04 355.87 C-19 355.78 -19 355.78 -20 357 C-21.55 357.09 -23.1 357.11 -24.66 357.1 C-25.6 357.09 -26.54 357.09 -27.5 357.09 C-28.49 357.08 -29.48 357.07 -30.5 357.06 C-31.49 357.06 -32.48 357.05 -33.5 357.05 C-36 357.04 -38.5 357.02 -41 357 C-41.33 357 -41.66 357 -42 357 C-53.82 355.69 -65.11 353.75 -76.43 350.09 C-79.92 348.94 -79.92 348.94 -83.29 348.48 C-86 348 -86 348 -89 346 C-89.85 345.67 -90.69 345.34 -91.56 345 C-94 344 -94 344 -96 342 C-96.95 341.55 -97.9 341.09 -98.88 340.62 C-101.93 339.03 -103.6 337.4 -106 335 C-107.08 334.62 -107.08 334.62 -108.19 334.22 C-118.09 329.91 -126.7 320.13 -132 311 C-132.39 310.35 -132.77 309.71 -133.17 309.04 C-138.93 299.34 -143.7 289.81 -147 279 C-147.66 279 -148.32 279 -149 279 C-148.81 278.44 -148.63 277.89 -148.44 277.31 C-147.79 273.87 -148.45 271.11 -150 268 C-153.67 244.53 -148.97 222.71 -140 201 C-139.34 201 -138.68 201 -138 201 C-137.75 199.76 -137.5 198.53 -137.25 197.25 C-136.31 193.39 -134.91 191.72 -132 189 C-131.88 188.28 -131.75 187.56 -131.62 186.82 C-130.8 183.12 -129.03 180.2 -127.06 177 C-126.46 176.02 -126.46 176.02 -125.85 175.01 C-109.98 149.42 -109.98 149.42 -101.09 145.07 C-98 143.49 -95.78 141.07 -93.38 138.62 C-92.89 138.14 -92.4 137.66 -91.89 137.16 C-89.95 135.21 -88.22 133.46 -87.01 130.96 C-85.47 127.98 -82.98 126.11 -80.44 124 C-79.87 123.53 -79.31 123.06 -78.73 122.57 C-55.1 103.16 -55.1 103.16 -44 101 C-43.56 100.55 -43.12 100.1 -42.66 99.64 C-37.97 95.01 -31.36 92.93 -25 92 C-24.33 91.3 -24.33 91.3 -23.64 90.59 C-21.6 88.61 -19.85 88.07 -17.15 87.21 C-16.22 86.91 -15.28 86.61 -14.32 86.3 C-13.35 85.99 -12.38 85.69 -11.38 85.38 C-9.44 84.76 -7.51 84.14 -5.59 83.52 C-4.73 83.25 -3.88 82.99 -2.99 82.71 C-1.03 82.17 -1.03 82.17 0 81 C0.09 79.15 0.11 77.29 0.1 75.43 C0.09 74.31 0.09 73.18 0.09 72.03 C0.08 70.84 0.07 69.66 0.06 68.44 C0.06 66.66 0.06 66.66 0.05 64.84 C0.04 61.89 0.02 58.95 0 56 C-20.71 55.98 -41.43 55.96 -62.14 55.95 C-71.76 55.94 -81.38 55.94 -90.99 55.92 C-99.37 55.91 -107.75 55.91 -116.13 55.91 C-120.57 55.9 -125.01 55.9 -129.45 55.89 C-133.62 55.89 -137.8 55.89 -141.97 55.89 C-143.51 55.89 -145.04 55.88 -146.58 55.88 C-148.67 55.88 -150.75 55.88 -152.84 55.88 C-154.6 55.88 -154.6 55.88 -156.39 55.88 C-158.93 55.7 -158.93 55.7 -160 57 Z M-142 206 C-141 208 -141 208 -141 208 Z M-144 211 C-143 213 -143 213 -143 213 Z M-145 214 C-144 216 -144 216 -144 216 Z M-146 217 C-145 219 -145 219 -145 219 Z M-147 220 C-146 223 -146 223 -146 223 Z M-148 224 C-147 227 -147 227 -147 227 Z M-149 229 C-148 231 -148 231 -148 231 Z M-150 232 C-149 236 -149 236 -149 236 Z M-151 239 C-151 240.65 -151 242.3 -151 244 C-150.67 244 -150.34 244 -150 244 C-150 242.35 -150 240.7 -150 239 C-150.33 239 -150.66 239 -151 239 Z " fill="#8C6531" transform="translate(167,1)"/>
<path d="M0 0 C1.94 -0.02 1.94 -0.02 3.93 -0.05 C9.1 -0.08 14.27 -0.08 19.44 -0.06 C23.36 -0.05 27.28 -0.06 31.21 -0.12 C35 -0.17 38.8 -0.17 42.59 -0.14 C44.03 -0.13 45.47 -0.15 46.92 -0.18 C58.11 -0.43 58.11 -0.43 62.43 3.38 C64.54 6.22 66.25 9.1 67.95 12.2 C69.08 13.89 70.21 15.58 71.37 17.26 C72.49 18.97 73.61 20.69 74.73 22.4 C75.34 23.33 75.95 24.26 76.57 25.22 C79.14 29.12 81.69 33.03 84.25 36.95 C93.68 51.37 93.68 51.37 103.57 65.48 C107.59 71.04 111.35 76.75 115.08 82.51 C115.8 83.61 116.52 84.71 117.26 85.85 C120.98 91.56 124.66 97.3 128.33 103.05 C129.03 104.15 129.73 105.26 130.46 106.4 C131.79 108.48 133.11 110.57 134.43 112.66 C138.13 118.5 142.02 124.15 146.15 129.7 C148.56 133.03 150.72 136.49 152.9 139.97 C156.97 146.37 161.22 152.65 165.46 158.94 C166.52 160.54 167.56 162.14 168.59 163.75 C169.12 164.58 169.65 165.4 170.2 166.25 C170.68 167.01 171.16 167.76 171.66 168.54 C172.08 169.09 172.51 169.63 172.95 170.2 C173.61 170.2 174.27 170.2 174.95 170.2 C174.95 114.43 174.95 58.66 174.95 1.2 C177.82 -0.24 180.22 0.12 183.42 0.17 C184.09 0.18 184.75 0.19 185.43 0.2 C187.63 0.24 189.83 0.28 192.03 0.32 C193.55 0.34 195.07 0.37 196.59 0.39 C200.6 0.45 204.61 0.52 208.61 0.59 C212.7 0.66 216.79 0.73 220.88 0.79 C228.91 0.92 236.93 1.06 244.95 1.2 C244.98 37.1 245 73.01 245.01 108.92 C245.01 113.16 245.01 117.39 245.01 121.62 C245.01 122.89 245.01 122.89 245.01 124.18 C245.01 137.85 245.02 151.52 245.03 165.19 C245.04 179.2 245.05 193.22 245.05 207.23 C245.05 215.89 245.05 224.55 245.06 233.2 C245.07 239.13 245.07 245.06 245.07 250.98 C245.07 254.41 245.07 257.83 245.07 261.26 C245.08 264.96 245.08 268.67 245.08 272.37 C245.08 274.01 245.08 274.01 245.08 275.69 C245.08 276.67 245.08 277.66 245.08 278.67 C245.08 279.53 245.08 280.38 245.08 281.26 C244.95 283.2 244.95 283.2 243.95 284.2 C241.93 284.32 239.89 284.37 237.86 284.39 C235.9 284.41 235.9 284.41 233.91 284.44 C232.47 284.45 231.03 284.46 229.6 284.47 C228.87 284.48 228.15 284.48 227.41 284.49 C223.59 284.51 219.77 284.53 215.96 284.55 C212.01 284.56 208.07 284.61 204.13 284.66 C201.1 284.69 198.07 284.7 195.03 284.71 C193.58 284.72 192.13 284.73 190.68 284.76 C188.64 284.79 186.6 284.78 184.57 284.78 C183.41 284.79 182.25 284.8 181.05 284.8 C176.4 283.89 174.37 281.03 171.57 277.4 C171.03 276.57 171.03 276.57 170.47 275.72 C170.04 275.07 169.61 274.41 169.17 273.74 C168.71 273.02 168.24 272.31 167.77 271.57 C166.69 269.93 165.61 268.29 164.53 266.65 C163.95 265.76 163.37 264.88 162.78 263.97 C160.26 260.14 157.71 256.33 155.16 252.52 C148.86 243.1 142.59 233.66 136.37 224.19 C122.79 203.53 109.11 182.93 95.26 162.45 C94.08 160.71 92.9 158.96 91.72 157.21 C91.14 156.37 90.57 155.52 89.98 154.65 C83.5 145.05 77.08 135.41 70.68 125.76 C70.29 125.18 69.91 124.6 69.51 124 C68.49 122.46 67.46 120.92 66.44 119.38 C65.13 117.31 65.13 117.31 63.95 116.2 C63.95 117.06 63.95 117.92 63.94 118.8 C63.84 139.69 63.73 160.58 63.62 181.47 C63.56 191.57 63.51 201.67 63.46 211.77 C63.41 220.57 63.37 229.37 63.32 238.17 C63.29 242.84 63.27 247.5 63.25 252.16 C63.23 256.55 63.2 260.93 63.17 265.31 C63.16 266.93 63.16 268.54 63.15 270.16 C63.14 272.35 63.13 274.54 63.11 276.74 C63.11 277.97 63.1 279.2 63.09 280.47 C62.95 283.2 62.95 283.2 61.95 284.2 C59.88 284.31 57.8 284.35 55.72 284.36 C55.07 284.36 54.42 284.37 53.75 284.37 C51.59 284.39 49.43 284.39 47.27 284.4 C45.78 284.41 44.28 284.41 42.78 284.42 C39.64 284.43 36.5 284.43 33.36 284.44 C29.33 284.44 25.3 284.47 21.27 284.49 C18.18 284.51 15.09 284.52 12 284.52 C10.52 284.52 9.03 284.53 7.54 284.54 C5.47 284.56 3.39 284.56 1.32 284.55 C0.13 284.56 -1.05 284.56 -2.27 284.56 C-3.18 284.44 -4.1 284.32 -5.05 284.2 C-7.19 280.98 -7.3 280.16 -7.29 276.46 C-7.3 275.48 -7.3 274.5 -7.31 273.49 C-7.3 272.41 -7.3 271.33 -7.29 270.21 C-7.29 269.07 -7.3 267.92 -7.3 266.74 C-7.3 263.56 -7.3 260.37 -7.29 257.19 C-7.29 253.76 -7.29 250.33 -7.29 246.9 C-7.3 240.17 -7.29 233.45 -7.28 226.73 C-7.27 218.9 -7.27 211.08 -7.27 203.26 C-7.27 189.3 -7.27 175.35 -7.25 161.4 C-7.24 147.84 -7.23 134.29 -7.23 120.74 C-7.23 119.9 -7.23 119.07 -7.23 118.21 C-7.23 117.37 -7.23 116.54 -7.23 115.68 C-7.23 100.27 -7.23 84.86 -7.22 69.44 C-7.21 63.98 -7.21 58.52 -7.21 53.07 C-7.21 46.42 -7.21 39.77 -7.2 33.12 C-7.19 29.73 -7.19 26.33 -7.19 22.94 C-7.19 19.27 -7.19 15.6 -7.18 11.93 C-7.18 10.84 -7.18 9.76 -7.18 8.64 C-7.18 7.66 -7.18 6.69 -7.17 5.68 C-7.17 4.84 -7.17 3.99 -7.17 3.11 C-6.89 -1.1 -3.49 0.04 0 0 Z M242.95 3.2 C242.95 94.94 242.95 186.68 242.95 281.2 C237.34 281.2 231.73 281.2 225.95 281.2 C225.95 281.53 225.95 281.86 225.95 282.2 C231.89 282.2 237.83 282.2 243.95 282.2 C243.95 190.13 243.95 98.06 243.95 3.2 C243.62 3.2 243.29 3.2 242.95 3.2 Z M59.95 118.2 C59.95 119.85 59.95 121.5 59.95 123.2 C60.28 123.2 60.61 123.2 60.95 123.2 C60.95 121.55 60.95 119.9 60.95 118.2 C60.62 118.2 60.29 118.2 59.95 118.2 Z M59.95 127.2 C60.95 131.2 60.95 131.2 60.95 131.2 Z M59.95 135.2 C59.95 142.46 59.95 149.72 59.95 157.2 C60.28 157.2 60.61 157.2 60.95 157.2 C60.95 149.94 60.95 142.68 60.95 135.2 C60.62 135.2 60.29 135.2 59.95 135.2 Z M59.95 160.2 C60.95 164.2 60.95 164.2 60.95 164.2 Z M59.95 173.2 C59.95 176.83 59.95 180.46 59.95 184.2 C60.28 184.2 60.61 184.2 60.95 184.2 C60.95 180.57 60.95 176.94 60.95 173.2 C60.62 173.2 60.29 173.2 59.95 173.2 Z M59.95 192.2 C59.95 193.85 59.95 195.5 59.95 197.2 C60.28 197.2 60.61 197.2 60.95 197.2 C60.95 195.55 60.95 193.9 60.95 192.2 C60.62 192.2 60.29 192.2 59.95 192.2 Z M59.95 215.2 C60.95 219.2 60.95 219.2 60.95 219.2 Z M59.95 223.2 C59.95 227.16 59.95 231.12 59.95 235.2 C60.28 235.2 60.61 235.2 60.95 235.2 C60.95 231.24 60.95 227.28 60.95 223.2 C60.62 223.2 60.29 223.2 59.95 223.2 Z M59.95 246.2 C59.95 248.18 59.95 250.16 59.95 252.2 C60.28 252.2 60.61 252.2 60.95 252.2 C60.95 250.22 60.95 248.24 60.95 246.2 C60.62 246.2 60.29 246.2 59.95 246.2 Z M59.95 253.2 C59.95 258.48 59.95 263.76 59.95 269.2 C60.28 269.2 60.61 269.2 60.95 269.2 C60.95 263.92 60.95 258.64 60.95 253.2 C60.62 253.2 60.29 253.2 59.95 253.2 Z M59.95 276.2 C59.95 277.85 59.95 279.5 59.95 281.2 C60.28 281.2 60.61 281.2 60.95 281.2 C60.95 279.55 60.95 277.9 60.95 276.2 C60.62 276.2 60.29 276.2 59.95 276.2 Z M9.95 281.2 C9.95 281.53 9.95 281.86 9.95 282.2 C12.26 282.2 14.57 282.2 16.95 282.2 C16.95 281.87 16.95 281.54 16.95 281.2 C14.64 281.2 12.33 281.2 9.95 281.2 Z M27.95 281.2 C31.95 282.2 31.95 282.2 31.95 282.2 Z M35.95 281.2 C39.95 282.2 39.95 282.2 39.95 282.2 Z M43.95 281.2 C43.95 281.53 43.95 281.86 43.95 282.2 C46.59 282.2 49.23 282.2 51.95 282.2 C51.95 281.87 51.95 281.54 51.95 281.2 C49.31 281.2 46.67 281.2 43.95 281.2 Z M55.95 281.2 C57.93 282.19 57.93 282.19 59.95 283.2 C59.95 282.54 59.95 281.88 59.95 281.2 C58.63 281.2 57.31 281.2 55.95 281.2 Z M176.95 281.2 C176.95 281.53 176.95 281.86 176.95 282.2 C181.24 282.2 185.53 282.2 189.95 282.2 C189.95 281.87 189.95 281.54 189.95 281.2 C185.66 281.2 181.37 281.2 176.95 281.2 Z M193.95 281.2 C193.95 281.53 193.95 281.86 193.95 282.2 C197.91 282.2 201.87 282.2 205.95 282.2 C205.95 281.87 205.95 281.54 205.95 281.2 C201.99 281.2 198.03 281.2 193.95 281.2 Z M216.95 281.2 C216.95 281.53 216.95 281.86 216.95 282.2 C218.6 282.2 220.25 282.2 221.95 282.2 C221.95 281.87 221.95 281.54 221.95 281.2 C220.3 281.2 218.65 281.2 216.95 281.2 Z " fill="#F9FBFB" transform="translate(406.045166015625,99.8037109375)"/>
<path d="M0 0 C1.88 2.59 1.82 5.46 2.15 8.58 C2.48 9.57 2.81 10.56 3.15 11.58 C5.63 9.6 5.63 9.6 8.15 7.58 C9.15 8.58 9.15 8.58 9.21 12.14 C9.19 13.28 9.17 14.41 9.15 15.58 C10.82 15.62 12.49 15.62 14.15 15.58 C16.12 13.61 15.81 10.23 16.15 7.58 C18.03 6.96 18.03 6.96 20.15 6.58 C22.15 8.58 22.15 8.58 22.2 10.61 C22.05 11.77 22.05 11.77 21.9 12.96 C21.81 13.73 21.73 14.5 21.64 15.29 C21.14 17.66 20.33 19.48 19.15 21.58 C21.13 21.58 23.11 21.58 25.15 21.58 C25.32 20.94 25.49 20.31 25.67 19.65 C25.91 18.82 26.15 18 26.4 17.14 C26.75 15.91 26.75 15.91 27.11 14.65 C28.15 12.58 28.15 12.58 30.12 11.69 C32.15 11.58 32.15 11.58 34.46 13.27 C36.15 15.58 36.15 15.58 35.91 17.5 C35.1 19.73 34.1 21.27 32.65 23.14 C30.92 25.41 30.08 26.81 29.15 29.58 C31.94 30.25 31.94 30.25 35.15 29.58 C37.74 26.58 39.39 23.1 41.15 19.58 C42.14 19.91 43.13 20.24 44.15 20.58 C45.03 23.08 45.03 23.08 45.15 26.58 C43.45 29.51 41.38 32.04 39.15 34.58 C41.35 35.54 41.35 35.54 44.15 35.58 C46.38 34.12 48.17 32.38 50.15 30.58 C50.81 30.58 51.47 30.58 52.15 30.58 C51.52 33.8 50.37 36.09 48.59 38.83 C48.13 39.54 47.68 40.24 47.21 40.97 C46.86 41.5 46.51 42.03 46.15 42.58 C50.09 42.95 51.72 42.88 55.03 40.58 C55.73 39.92 56.43 39.26 57.15 38.58 C59.15 41.58 59.15 41.58 58.93 43.55 C58.09 45.73 57.08 47.29 55.65 49.14 C53.92 51.41 53.08 52.81 52.15 55.58 C49.46 56.39 49.46 56.39 46.15 56.58 C42.59 53.45 39.78 49.9 36.9 46.14 C29.66 37.26 22.06 33.72 11.15 30.58 C12.76 31.65 12.76 31.65 14.41 32.74 C24.38 39.43 32.27 45.79 39.48 55.47 C41.15 57.66 41.15 57.66 43.31 59.73 C45.36 61.79 45.81 62.75 46.15 65.58 C46.07 66.43 45.99 67.27 45.9 68.14 C45.98 68.95 46.07 69.75 46.15 70.58 C48.56 72.25 48.56 72.25 51.15 73.58 C52.15 76.58 52.15 76.58 51.15 78.96 C49.95 82.11 50.4 83.34 51.15 86.58 C51.45 92.59 50.66 97.77 49.15 103.58 C53.78 106.92 53.78 106.92 59.15 108.58 C59.15 109.24 59.15 109.9 59.15 110.58 C59.81 110.58 60.47 110.58 61.15 110.58 C61.15 112.23 61.15 113.88 61.15 115.58 C57.28 115.01 55.07 113.09 52.15 110.58 C50.17 111.57 50.17 111.57 48.15 112.58 C48.48 114.89 48.81 117.2 49.15 119.58 C48.16 119.91 47.17 120.24 46.15 120.58 C46.15 122.56 46.15 124.54 46.15 126.58 C47.06 126.85 47.97 127.12 48.9 127.39 C53.99 129.25 53.99 129.25 56.15 131.58 C56.4 134.77 56.4 134.77 56.15 137.58 C51.93 137.11 50.05 136.61 47.15 133.58 C45.83 133.58 44.51 133.58 43.15 133.58 C43.5 134.14 43.85 134.7 44.21 135.27 C45.37 138.12 44.96 139.67 44.15 142.58 C43.16 142.58 42.17 142.58 41.15 142.58 C40.49 144.23 39.83 145.88 39.15 147.58 C37.83 147.25 36.51 146.92 35.15 146.58 C34.94 147.24 34.74 147.9 34.52 148.58 C32.64 152.7 30 156.02 27.21 159.58 C26.63 160.33 26.05 161.08 25.45 161.86 C23.7 164.11 21.93 166.35 20.15 168.58 C19.41 169.51 19.41 169.51 18.66 170.46 C6.61 185.51 -8.64 199.95 -26.05 208.62 C-27.96 209.58 -27.96 209.58 -29.89 211.2 C-31.85 212.58 -31.85 212.58 -34.85 212.58 C-34.85 213.57 -34.85 214.56 -34.85 215.58 C-33.86 215.58 -32.87 215.58 -31.85 215.58 C-29.74 218.47 -28.85 219.97 -28.85 223.58 C-27.86 223.91 -26.87 224.24 -25.85 224.58 C-23.62 228.22 -21.95 231.3 -22.85 235.58 C-26.14 238.52 -29.61 240.69 -33.48 242.78 C-35.06 243.63 -35.06 243.63 -36.67 244.51 C-37.76 245.09 -38.85 245.67 -39.97 246.27 C-41.07 246.86 -42.17 247.46 -43.3 248.07 C-53.87 253.76 -53.87 253.76 -60.71 253.42 C-63.38 253.62 -65.38 254.56 -67.85 255.58 C-77.11 258.06 -86.28 259.21 -95.85 259.58 C-96.67 259.62 -97.5 259.66 -98.35 259.71 C-103.86 259.86 -109.31 259.34 -114.79 258.77 C-115.91 258.66 -115.91 258.66 -117.05 258.56 C-121.03 258.1 -123.27 257.7 -125.85 254.58 C-128.5 254.81 -128.5 254.81 -130.85 255.58 C-131.03 251.49 -130.65 249.18 -128.85 245.58 C-128.91 243.4 -128.91 243.4 -129.85 241.58 C-130.84 241.25 -131.83 240.92 -132.85 240.58 C-132.38 241.88 -132.38 241.88 -131.91 243.21 C-131.85 246.58 -131.85 246.58 -133.2 248.35 C-135.05 250.03 -136.62 251.44 -138.85 252.58 C-140.17 252.25 -141.49 251.92 -142.85 251.58 C-142.52 248.28 -142.19 244.98 -141.85 241.58 C-142.59 242.41 -143.33 243.23 -144.1 244.08 C-146.85 246.58 -146.85 246.58 -150.85 246.58 C-150.06 243.17 -148.98 239.89 -147.85 236.58 C-148.51 236.25 -149.17 235.92 -149.85 235.58 C-151.5 238.22 -153.15 240.86 -154.85 243.58 C-157.82 243.25 -160.79 242.92 -163.85 242.58 C-164.85 238.58 -164.85 238.58 -163.85 236.66 C-163.38 236.06 -162.9 235.45 -162.41 234.83 C-161.7 233.91 -161.7 233.91 -160.98 232.97 C-160.6 232.51 -160.23 232.05 -159.85 231.58 C-160.9 232.54 -160.9 232.54 -161.97 233.52 C-165.13 235.78 -166.99 236.5 -170.85 236.58 C-172.72 235.14 -172.72 235.14 -173.85 233.58 C-172.45 228.84 -169.87 225.42 -165.85 222.58 C-161.4 222.36 -158.35 225.06 -154.85 227.58 C-156.27 224.02 -157.49 223.23 -160.85 221.58 C-162.35 220.47 -163.83 219.32 -165.29 218.14 C-168.36 215.71 -171.39 213.48 -174.85 211.58 C-174.93 212.2 -175.02 212.83 -175.1 213.47 C-175.85 215.58 -175.85 215.58 -177.62 216.66 C-178.69 217.03 -178.69 217.03 -179.79 217.39 C-180.5 217.65 -181.21 217.9 -181.94 218.16 C-183.85 218.58 -183.85 218.58 -185.85 217.58 C-185.15 214.43 -184.09 211.56 -182.85 208.58 C-184.39 209.17 -184.39 209.17 -185.97 209.77 C-190.52 210.72 -192.01 210.01 -195.85 207.58 C-195.85 206.92 -195.85 206.26 -195.85 205.58 C-196.51 205.58 -197.17 205.58 -197.85 205.58 C-199.17 201.38 -200.48 197.17 -201.79 192.96 C-202.16 191.77 -202.53 190.58 -202.92 189.35 C-203.27 188.2 -203.63 187.04 -204 185.86 C-204.49 184.27 -204.49 184.27 -205 182.65 C-207.08 175.13 -207.03 167.75 -207.03 160.01 C-207.04 157.85 -207.05 155.7 -207.07 153.54 C-207.11 144.02 -206.94 134.89 -202.41 126.27 C-200.43 122.21 -199.32 118.52 -198.47 114.08 C-196.57 105 -192.22 98.17 -184.85 92.58 C-183.86 91.59 -183.86 91.59 -182.85 90.58 C-183.17 87.98 -183.17 87.98 -183.85 85.58 C-181.21 85.25 -178.57 84.92 -175.85 84.58 C-176.18 82.27 -176.51 79.96 -176.85 77.58 C-173.88 76.59 -173.88 76.59 -170.85 75.58 C-171.03 74.65 -171.22 73.73 -171.41 72.77 C-171.85 69.58 -171.85 69.58 -170.85 66.58 C-168.37 65.67 -166.51 65.58 -163.85 65.58 C-164.18 63.6 -164.51 61.62 -164.85 59.58 C-161.45 57.49 -158.79 57.4 -154.85 57.58 C-155.05 56.65 -155.26 55.73 -155.47 54.77 C-155.85 51.58 -155.85 51.58 -153.85 48.58 C-151.79 47.84 -151.79 47.84 -149.41 47.27 C-145.38 46.1 -145.38 46.1 -143.1 42.46 C-142.69 41.51 -142.27 40.56 -141.85 39.58 C-139.29 38.64 -139.29 38.64 -136.85 38.58 C-136.19 38.91 -135.53 39.24 -134.85 39.58 C-134.74 38.65 -134.64 37.73 -134.54 36.77 C-133.84 33.54 -133.55 32.38 -130.85 30.58 C-129.53 30.58 -128.21 30.58 -126.85 30.58 C-126.04 32.27 -126.04 32.27 -125.85 34.58 C-127.91 36.89 -127.91 36.89 -130.85 39.58 C-131.95 40.8 -133.03 42.03 -134.1 43.27 C-134.85 44.14 -134.85 44.14 -135.61 45.03 C-136.93 46.58 -136.93 46.58 -137.85 48.58 C-139.5 48.58 -141.15 48.58 -142.85 48.58 C-143.18 49.9 -143.51 51.22 -143.85 52.58 C-143.06 52.83 -142.28 53.08 -141.47 53.33 C-138.52 54.74 -137.95 55.59 -136.85 58.58 C-131.8 56.06 -127.16 52.15 -123.85 47.58 C-123.86 45.39 -123.86 45.39 -124.85 43.58 C-125.51 43.25 -126.17 42.92 -126.85 42.58 C-125.37 37.91 -125.37 37.91 -122.72 36.27 C-122.1 36.04 -121.49 35.82 -120.85 35.58 C-117.85 39.33 -117.85 39.33 -117.85 41.58 C-118.51 41.58 -119.17 41.58 -119.85 41.58 C-119.52 42.24 -119.19 42.9 -118.85 43.58 C-115.94 43.47 -115.94 43.47 -112.85 42.58 C-110.93 40.14 -110.93 40.14 -109.85 37.58 C-111.5 37.25 -113.15 36.92 -114.85 36.58 C-114.85 35.92 -114.85 35.26 -114.85 34.58 C-115.51 34.58 -116.17 34.58 -116.85 34.58 C-118.55 32.96 -120.22 31.29 -121.85 29.58 C-121.19 28.26 -120.53 26.94 -119.85 25.58 C-116.72 26.21 -114.37 27.28 -111.66 28.96 C-110.97 29.38 -110.27 29.8 -109.55 30.23 C-107.85 31.58 -107.85 31.58 -106.85 34.58 C-105.53 34.25 -104.21 33.92 -102.85 33.58 C-102.85 32.26 -102.85 30.94 -102.85 29.58 C-104.33 28.59 -104.33 28.59 -105.85 27.58 C-105.85 26.92 -105.85 26.26 -105.85 25.58 C-107.17 24.92 -108.49 24.26 -109.85 23.58 C-109.54 21.64 -109.54 21.64 -108.85 19.58 C-107.86 19.25 -106.87 18.92 -105.85 18.58 C-105.23 19.41 -104.61 20.23 -103.97 21.08 C-103.27 21.91 -102.57 22.73 -101.85 23.58 C-101.19 23.58 -100.53 23.58 -99.85 23.58 C-100.16 22.84 -100.47 22.1 -100.79 21.33 C-101.66 19.07 -102.29 16.93 -102.85 14.58 C-90.59 8.32 -79.46 2.89 -65.81 0.37 C-60.52 -0.64 -55.37 -2.1 -50.19 -3.55 C-36.41 -7.13 -12.13 -9.31 0 0 Z " fill="#A46932" transform="translate(231.84765625,92.41796875)"/>
<path d="M0 0 C0.9 -0 1.8 -0 2.72 -0 C4.6 -0 6.49 -0 8.37 0 C11.27 0.01 14.17 0 17.06 -0 C18.9 -0 20.73 -0 22.56 0 C23.87 -0 23.87 -0 25.2 -0.01 C31.27 0.02 31.27 0.02 32.38 1.13 C33.54 1.13 34.69 1.13 35.88 1.13 C37.04 1.13 38.19 1.13 39.38 1.13 C39.71 1.46 40.04 1.79 40.38 2.13 C41.56 2.22 42.73 2.3 43.95 2.38 C64.65 4.58 82.01 15.33 95.58 30.61 C104.3 41.75 116.38 60.62 116.38 75.13 C101.11 82.32 85.83 89.5 70.51 96.57 C69.51 97.04 68.5 97.5 67.47 97.98 C66.56 98.4 65.64 98.82 64.7 99.25 C63.52 99.8 63.52 99.8 62.31 100.36 C60.38 101.13 60.38 101.13 58.38 101.13 C58.19 100.54 58 99.95 57.8 99.34 C56.69 95.97 55.58 92.62 54.26 89.32 C53.43 87.26 52.92 85.29 52.38 83.13 C49.35 73.57 44.98 67.36 36.09 62.45 C24.7 56.93 13.99 54.61 1.38 55.13 C0.57 55.16 -0.23 55.19 -1.07 55.22 C-12.79 56.06 -24.99 63.42 -32.62 72.13 C-33.06 72.57 -33.5 73.01 -33.96 73.47 C-45.46 85.52 -50.58 103.17 -53.62 119.13 C-53.87 120.3 -53.87 120.3 -54.12 121.49 C-55.98 131.12 -56.06 140.68 -56.05 150.45 C-56.06 151.33 -56.06 152.22 -56.06 153.13 C-56.03 167.31 -54.97 180.54 -50.62 194.13 C-50.38 194.89 -50.15 195.66 -49.9 196.44 C-47.06 205.44 -43.24 213.49 -37.62 221.13 C-37.12 221.85 -36.62 222.56 -36.11 223.3 C-29.43 231.98 -17.6 237.7 -7.31 240.84 C3.84 242.06 16.92 241.23 27.38 237.13 C28.07 236.88 28.75 236.62 29.46 236.36 C38.27 232.57 46.48 224.92 50.38 216.13 C51.77 212.29 53.06 208.43 54.27 204.52 C55.99 199.28 55.99 199.28 57.38 197.13 C61.41 195.79 62.56 196.91 66.32 198.78 C66.9 199.07 67.49 199.36 68.09 199.65 C69.35 200.27 70.61 200.9 71.86 201.53 C75.14 203.17 78.43 204.78 81.72 206.39 C82.7 206.87 82.7 206.87 83.7 207.37 C91.56 211.22 99.54 214.79 107.55 218.3 C109.52 219.2 111.45 220.15 113.38 221.13 C113.38 221.79 113.38 222.45 113.38 223.13 C114.7 223.46 116.02 223.79 117.38 224.13 C109.76 249.34 93.16 271.64 69.89 284.22 C58.71 290.02 46.86 293.52 34.38 295.13 C33.45 295.32 32.53 295.5 31.57 295.7 C29.38 296.13 29.38 296.13 27.38 296.13 C24.79 296.41 22.19 296.71 19.6 297.01 C18.87 297.05 18.14 297.09 17.38 297.13 C17.05 296.8 16.72 296.47 16.38 296.13 C14.84 296.15 13.31 296.24 11.77 296.36 C-2.15 297.27 -14.9 296.66 -28.62 294.13 C-29.11 292.65 -29.11 292.65 -29.62 291.13 C-29.95 291.79 -30.28 292.45 -30.62 293.13 C-34.49 292.26 -34.49 292.26 -35.62 291.13 C-36.21 291.3 -36.8 291.47 -37.41 291.64 C-40.06 292.23 -41.34 291.83 -43.89 290.95 C-44.71 290.66 -45.53 290.38 -46.37 290.09 C-47.23 289.77 -48.1 289.46 -48.99 289.13 C-50.33 288.65 -50.33 288.65 -51.7 288.16 C-81.36 277.24 -104.41 255.94 -117.99 227.38 C-120.04 222.76 -121.69 218.14 -122.98 213.25 C-123.56 211.09 -123.56 211.09 -124.66 209.07 C-126.08 206.2 -126.23 203.29 -126.62 200.13 C-127.25 194.73 -127.25 194.73 -129.62 190.13 C-129.66 188.13 -129.66 186.13 -129.62 184.13 C-129.95 184.13 -130.28 184.13 -130.62 184.13 C-130.62 181.82 -130.62 179.51 -130.62 177.13 C-130.95 177.13 -131.28 177.13 -131.62 177.13 C-132.71 168.22 -132.86 159.35 -132.87 150.38 C-132.87 149.61 -132.87 148.83 -132.87 148.04 C-132.81 105.14 -120.4 64.96 -89.62 34.13 C-65.83 12.45 -32.08 -0.08 0 0 Z M-9.62 1.13 C-5.62 2.13 -5.62 2.13 -5.62 2.13 Z M2.38 52.13 C2.38 52.46 2.38 52.79 2.38 53.13 C5.68 53.13 8.98 53.13 12.38 53.13 C12.38 52.8 12.38 52.47 12.38 52.13 C9.08 52.13 5.78 52.13 2.38 52.13 Z M-52.62 102.13 C-51.62 104.13 -51.62 104.13 -51.62 104.13 Z M-54.62 109.13 C-53.62 111.13 -53.62 111.13 -53.62 111.13 Z M-128.62 110.13 C-127.62 112.13 -127.62 112.13 -127.62 112.13 Z M-55.62 112.13 C-54.62 115.13 -54.62 115.13 -54.62 115.13 Z M-129.62 116.13 C-128.62 118.13 -128.62 118.13 -128.62 118.13 Z M-56.62 118.13 C-55.62 121.13 -55.62 121.13 -55.62 121.13 Z M-130.62 122.13 C-129.62 126.13 -129.62 126.13 -129.62 126.13 Z M-57.62 123.13 C-57.62 124.78 -57.62 126.43 -57.62 128.13 C-57.29 128.13 -56.96 128.13 -56.62 128.13 C-56.62 126.48 -56.62 124.83 -56.62 123.13 C-56.95 123.13 -57.28 123.13 -57.62 123.13 Z M-58.62 131.13 C-58.62 143.67 -58.62 156.21 -58.62 169.13 C-58.29 169.13 -57.96 169.13 -57.62 169.13 C-57.62 156.59 -57.62 144.05 -57.62 131.13 C-57.95 131.13 -58.28 131.13 -58.62 131.13 Z M-131.62 132.13 C-131.62 134.77 -131.62 137.41 -131.62 140.13 C-131.29 140.13 -130.96 140.13 -130.62 140.13 C-130.62 137.49 -130.62 134.85 -130.62 132.13 C-130.95 132.13 -131.28 132.13 -131.62 132.13 Z M-131.62 159.13 C-131.62 161.77 -131.62 164.41 -131.62 167.13 C-131.29 167.13 -130.96 167.13 -130.62 167.13 C-130.62 164.49 -130.62 161.85 -130.62 159.13 C-130.95 159.13 -131.28 159.13 -131.62 159.13 Z M-57.62 173.13 C-56.62 176.13 -56.62 176.13 -56.62 176.13 Z M-56.62 179.13 C-55.62 182.13 -55.62 182.13 -55.62 182.13 Z M-0.62 242.13 C-0.62 242.46 -0.62 242.79 -0.62 243.13 C3.67 243.13 7.96 243.13 12.38 243.13 C12.38 242.8 12.38 242.47 12.38 242.13 C8.09 242.13 3.8 242.13 -0.62 242.13 Z M-12.62 294.13 C-12.62 294.46 -12.62 294.79 -12.62 295.13 C-9.32 295.46 -6.02 295.79 -2.62 296.13 C-2.62 295.47 -2.62 294.81 -2.62 294.13 C-5.92 294.13 -9.22 294.13 -12.62 294.13 Z M17.38 294.13 C17.38 294.46 17.38 294.79 17.38 295.13 C20.02 295.13 22.66 295.13 25.38 295.13 C25.38 294.8 25.38 294.47 25.38 294.13 C22.74 294.13 20.1 294.13 17.38 294.13 Z " fill="#F9FBFB" transform="translate(810.6171875,92.8671875)"/>
<path d="M0 0 C0.92 -0 1.84 -0 2.79 -0 C4.72 -0 6.65 -0 8.58 0 C11.55 0.01 14.52 0 17.49 -0 C19.37 -0 21.25 -0 23.12 0 C24.46 -0 24.46 -0 25.83 -0.01 C32.05 0.02 32.05 0.02 33.16 1.13 C34.15 1.13 35.14 1.13 36.16 1.13 C37.15 1.13 38.14 1.13 39.16 1.13 C39.49 1.46 39.82 1.79 40.16 2.13 C41.5 2.3 42.83 2.42 44.17 2.53 C49.05 3.03 53.42 4.23 58.04 5.82 C59.21 6.22 59.21 6.22 60.41 6.63 C71.06 10.38 79.67 15.72 88.16 23.13 C88.78 23.65 89.39 24.17 90.03 24.71 C99.25 33.12 104.78 44.96 110.16 56.01 C110.65 56.98 111.13 57.96 111.62 58.96 C112.07 59.9 112.52 60.84 112.98 61.81 C113.37 62.65 113.77 63.48 114.18 64.34 C115.45 67.95 115.79 71.32 116.16 75.13 C111.03 77.57 105.89 80 100.75 82.44 C99.01 83.26 97.27 84.09 95.53 84.91 C94.69 85.31 93.85 85.71 92.99 86.12 C92.15 86.52 91.32 86.91 90.46 87.32 C87.96 88.51 85.45 89.69 82.94 90.87 C79.87 92.32 76.8 93.79 73.75 95.28 C73.06 95.61 72.38 95.94 71.68 96.28 C69.86 97.16 68.05 98.05 66.23 98.93 C63.25 100.1 61.32 100.41 58.16 100.13 C58.16 99.14 58.16 98.15 58.16 97.13 C57.5 97.13 56.84 97.13 56.16 97.13 C56.06 96.14 55.96 95.15 55.85 94.13 C55.22 89.88 53.86 86.06 52.16 82.13 C51.76 81.17 51.36 80.2 50.95 79.2 C46.19 68.64 39.64 63.76 29.16 59.26 C24.74 57.6 20.25 56.23 15.72 54.93 C13.16 54.13 13.16 54.13 12.16 53.13 C10.48 53.06 8.79 53.05 7.1 53.07 C6.18 53.08 5.26 53.09 4.32 53.1 C3.61 53.11 2.9 53.12 2.16 53.13 C1.83 53.79 1.5 54.45 1.16 55.13 C-1.07 55.76 -3.32 56.31 -5.59 56.82 C-20.69 60.58 -31.54 68.2 -40.02 81.26 C-52.2 102.16 -56.26 126.32 -56.04 150.28 C-56.02 152.33 -56.02 154.38 -56.02 156.44 C-56 164.38 -55.61 172.23 -54.84 180.13 C-54.84 180.46 -54.84 180.79 -54.84 181.13 C-46.17 211.17 -46.17 211.17 -24.96 232.95 C-9.14 241.57 6.9 243.42 24.41 238.45 C34.51 234.82 43.65 228.31 48.73 218.7 C50.23 215.51 51.49 212.28 52.66 208.97 C52.92 208.24 53.18 207.52 53.45 206.77 C53.96 205.32 54.46 203.86 54.93 202.4 C56.64 197.49 56.64 197.49 58.91 195.96 C62.42 196.23 65.19 197.86 68.23 199.51 C69.67 200.26 71.11 201.01 72.55 201.76 C73.31 202.15 74.06 202.54 74.84 202.95 C78.67 204.9 82.58 206.69 86.48 208.51 C93.29 211.72 100.07 214.99 106.79 218.38 C107.61 218.78 108.44 219.18 109.29 219.6 C114.75 222.41 114.75 222.41 116.43 225.37 C116.01 229.72 114.22 233.24 112.29 237.13 C111.88 237.98 111.47 238.82 111.04 239.69 C99.07 263.7 79.71 282.35 54.16 291.13 C51.45 291.7 48.93 291.93 46.16 292.13 C44.49 292.77 42.82 293.44 41.16 294.13 C39.17 294.5 37.17 294.82 35.16 295.13 C34.01 295.32 32.85 295.51 31.66 295.7 C30.46 295.89 29.27 296.07 28.04 296.26 C26.84 296.45 25.64 296.63 24.41 296.83 C21.42 297.11 19.96 296.88 17.16 296.13 C14.97 296.22 12.78 296.37 10.6 296.57 C-21.35 299.12 -57.42 292.1 -82.9 271.57 C-84.56 270.1 -86.2 268.63 -87.84 267.13 C-88.67 266.44 -89.51 265.74 -90.37 265.03 C-99.85 256.99 -108.48 246.4 -113.84 235.13 C-113.84 234.14 -113.84 233.15 -113.84 232.13 C-114.5 232.13 -115.16 232.13 -115.84 232.13 C-118.07 227.11 -120 222.02 -121.86 216.84 C-122.71 214.49 -123.61 212.15 -124.52 209.82 C-125.7 206.53 -126.51 203.61 -126.84 200.13 C-126.34 199.14 -126.34 199.14 -125.84 198.13 C-126.5 198.13 -127.16 198.13 -127.84 198.13 C-128.17 195.16 -128.5 192.19 -128.84 189.13 C-129.17 189.13 -129.5 189.13 -129.84 189.13 C-130.17 184.51 -130.5 179.89 -130.84 175.13 C-131.17 175.13 -131.5 175.13 -131.84 175.13 C-131.94 168.13 -132.01 161.13 -132.06 154.12 C-132.08 151.75 -132.1 149.38 -132.14 147.01 C-132.66 110.83 -124.3 74.7 -100.84 46.13 C-100.41 45.62 -99.99 45.1 -99.56 44.57 C-75.75 15.93 -36.9 -0.08 0 0 Z M-126.84 101.13 C-125.84 103.13 -125.84 103.13 -125.84 103.13 Z M-53.84 106.13 C-52.84 108.13 -52.84 108.13 -52.84 108.13 Z M-54.84 109.13 C-53.84 112.13 -53.84 112.13 -53.84 112.13 Z M-128.84 110.13 C-127.84 113.13 -127.84 113.13 -127.84 113.13 Z M-55.84 113.13 C-54.84 117.13 -54.84 117.13 -54.84 117.13 Z M-56.84 120.13 C-55.84 124.13 -55.84 124.13 -55.84 124.13 Z M-130.84 123.13 C-130.84 124.78 -130.84 126.43 -130.84 128.13 C-130.51 128.13 -130.18 128.13 -129.84 128.13 C-129.84 126.48 -129.84 124.83 -129.84 123.13 C-130.17 123.13 -130.5 123.13 -130.84 123.13 Z M-57.84 125.13 C-57.84 127.77 -57.84 130.41 -57.84 133.13 C-57.51 133.13 -57.18 133.13 -56.84 133.13 C-56.84 130.49 -56.84 127.85 -56.84 125.13 C-57.17 125.13 -57.5 125.13 -57.84 125.13 Z M-58.84 136.13 C-58.84 146.03 -58.84 155.93 -58.84 166.13 C-58.51 166.13 -58.18 166.13 -57.84 166.13 C-57.84 156.23 -57.84 146.33 -57.84 136.13 C-58.17 136.13 -58.5 136.13 -58.84 136.13 Z M-57.84 170.13 C-57.84 172.11 -57.84 174.09 -57.84 176.13 C-57.51 176.13 -57.18 176.13 -56.84 176.13 C-56.84 174.15 -56.84 172.17 -56.84 170.13 C-57.17 170.13 -57.5 170.13 -57.84 170.13 Z M0.16 242.13 C0.16 242.46 0.16 242.79 0.16 243.13 C4.45 243.13 8.74 243.13 13.16 243.13 C13.16 242.8 13.16 242.47 13.16 242.13 C8.87 242.13 4.58 242.13 0.16 242.13 Z M28.16 293.13 C28.16 293.46 28.16 293.79 28.16 294.13 C29.81 294.13 31.46 294.13 33.16 294.13 C33.16 293.8 33.16 293.47 33.16 293.13 C31.51 293.13 29.86 293.13 28.16 293.13 Z M-12.84 294.13 C-12.84 294.46 -12.84 294.79 -12.84 295.13 C-9.87 295.46 -6.9 295.79 -3.84 296.13 C-3.84 295.47 -3.84 294.81 -3.84 294.13 C-6.81 294.13 -9.78 294.13 -12.84 294.13 Z M18.16 294.13 C18.16 294.46 18.16 294.79 18.16 295.13 C20.8 295.13 23.44 295.13 26.16 295.13 C26.16 294.8 26.16 294.47 26.16 294.13 C23.52 294.13 20.88 294.13 18.16 294.13 Z " fill="#F9FBFA" transform="translate(1058.8359375,92.8671875)"/>
<path d="M0 0 C22.44 0 44.88 0 68 0 C68 93.39 68 186.78 68 283 C45.89 283 23.78 283 1 283 C-0.88 279.23 -1.25 278.1 -1.23 274.15 C-1.23 273.17 -1.23 272.19 -1.23 271.18 C-1.22 270.11 -1.21 269.03 -1.2 267.93 C-1.2 266.78 -1.2 265.64 -1.2 264.46 C-1.19 261.29 -1.17 258.12 -1.15 254.95 C-1.13 251.53 -1.12 248.11 -1.11 244.69 C-1.09 238.76 -1.06 232.83 -1.03 226.91 C-0.98 218.34 -0.94 209.77 -0.91 201.2 C-0.86 187.3 -0.79 173.4 -0.72 159.5 C-0.66 145.99 -0.59 132.49 -0.54 118.98 C-0.53 118.15 -0.53 117.32 -0.53 116.46 C-0.51 112.28 -0.49 108.11 -0.47 103.93 C-0.33 69.29 -0.17 34.64 0 0 Z M1 280 C1 280.33 1 280.66 1 281 C5.62 281 10.24 281 15 281 C15 280.67 15 280.34 15 280 C10.38 280 5.76 280 1 280 Z M17 280 C17 280.33 17 280.66 17 281 C19.31 281 21.62 281 24 281 C24 280.67 24 280.34 24 280 C21.69 280 19.38 280 17 280 Z M27 280 C27 280.33 27 280.66 27 281 C30.96 281 34.92 281 39 281 C39 280.67 39 280.34 39 280 C35.04 280 31.08 280 27 280 Z M42 280 C46 281 46 281 46 281 Z M47 280 C51 281 51 281 51 281 Z " fill="#F9FBFB" transform="translate(1208,101)"/>
<path d="M0 0 C1.32 0 2.64 0 4 0 C5.47 2.33 6.06 3.54 5.69 6.31 C5.46 7.2 5.23 8.09 5 9 C4.66 11.33 4.32 13.66 4 16 C5.07 15.96 6.15 15.92 7.25 15.88 C10.91 16 11.95 16.34 15 18 C16.2 18.26 17.4 18.52 18.63 18.78 C23.31 19.92 26.98 22.03 31 24.62 C31.7 25.07 32.4 25.52 33.12 25.98 C41.04 31.16 46.74 37.34 52.36 44.92 C54 47.09 54 47.09 56.16 49.14 C58.2 51.2 58.66 52.16 59 55 C58.92 55.85 58.83 56.69 58.75 57.56 C58.83 58.37 58.92 59.17 59 60 C61.41 61.66 61.41 61.66 64 63 C65 66 65 66 64 68.38 C62.8 71.53 63.25 72.76 64 76 C64.3 82.01 63.51 87.19 62 93 C66.63 96.34 66.63 96.34 72 98 C72 98.66 72 99.32 72 100 C72.66 100 73.32 100 74 100 C74 101.65 74 103.3 74 105 C70.13 104.43 67.92 102.51 65 100 C63.02 100.99 63.02 100.99 61 102 C61.5 105.47 61.5 105.47 62 109 C60.51 109.5 60.51 109.5 59 110 C59 111.98 59 113.96 59 116 C59.91 116.27 60.81 116.54 61.75 116.81 C66.84 118.67 66.84 118.67 69 121 C69.25 124.19 69.25 124.19 69 127 C64.77 126.53 62.9 126.03 60 123 C58.68 123 57.36 123 56 123 C56.35 123.56 56.7 124.11 57.06 124.69 C58.22 127.54 57.81 129.09 57 132 C56.01 132 55.02 132 54 132 C53.34 133.65 52.68 135.3 52 137 C50.68 136.67 49.36 136.34 48 136 C47.79 136.66 47.58 137.32 47.37 138 C45.49 142.12 42.84 145.44 40.06 149 C39.48 149.75 38.9 150.5 38.3 151.27 C36.54 153.52 34.78 155.76 33 158 C32.51 158.62 32.01 159.24 31.51 159.88 C18.92 175.6 3.13 189.95 -15 199 C-19.73 201.22 -19.73 201.22 -23 205 C-25.32 206.09 -27.62 207.1 -30 208.06 C-34.31 209.55 -34.31 209.55 -38 212 C-40.33 212.35 -42.67 212.68 -45 213 C-45.99 213.33 -46.98 213.66 -48 214 C-48.99 213.34 -49.98 212.68 -51 212 C-51.31 209.44 -51.42 207.11 -51.4 204.55 C-51.41 203.77 -51.41 202.99 -51.42 202.19 C-51.44 199.57 -51.43 196.95 -51.43 194.33 C-51.44 192.46 -51.45 190.59 -51.46 188.71 C-51.49 183.62 -51.5 178.53 -51.51 173.43 C-51.52 168.11 -51.54 162.79 -51.57 157.47 C-51.61 147.39 -51.64 137.31 -51.66 127.23 C-51.69 115.76 -51.73 104.29 -51.78 92.82 C-51.87 69.21 -51.94 45.61 -52 22 C-51.43 21.73 -50.87 21.47 -50.29 21.2 C-49.55 20.84 -48.82 20.49 -48.06 20.12 C-47.33 19.78 -46.6 19.43 -45.85 19.07 C-43.84 18.13 -43.84 18.13 -43 16 C-39.7 16.33 -36.4 16.66 -33 17 C-33 15.68 -33 14.36 -33 13 C-32.7 11.66 -32.38 10.32 -32 9 C-30.68 9.33 -29.36 9.66 -28 10 C-27.67 11.65 -27.34 13.3 -27 15 C-25.02 15 -23.04 15 -21 15 C-20.67 14.34 -20.34 13.68 -20 13 C-17.44 12.97 -14.88 12.95 -12.31 12.94 C-11.23 12.92 -11.23 12.92 -10.13 12.91 C-6.28 12.89 -2.73 13.06 1 14 C0.53 9.94 0.12 6.53 -2 3 C-1.34 2.01 -0.68 1.02 0 0 Z " fill="#D2A178" transform="translate(219,103)"/>
<path d="M0 0 C0.33 0 0.66 0 1 0 C1.03 0.66 1.05 1.31 1.08 1.99 C1.19 4.95 1.31 7.91 1.44 10.88 C1.48 11.91 1.52 12.94 1.56 14 C1.62 15.48 1.62 15.48 1.68 16.99 C1.72 17.9 1.76 18.81 1.79 19.75 C1.87 22.03 1.87 22.03 3 24 C4.02 23.8 5.03 23.59 6.08 23.38 C14.37 21.74 22.53 20.34 31 20 C31.65 19.97 32.29 19.95 32.96 19.92 C63.45 18.8 91 28.71 114 49 C114.62 49.53 115.25 50.06 115.89 50.6 C131.43 64.76 141.09 88.57 144 109 C144.11 111.58 144.19 114.13 144.2 116.71 C144.21 117.45 144.21 118.18 144.22 118.94 C144.23 120.48 144.24 122.03 144.24 123.58 C144.25 125.9 144.28 128.22 144.31 130.53 C144.38 140.43 143.36 149.35 141 159 C140.69 160.37 140.69 160.37 140.37 161.77 C134.08 188.39 121.09 211.61 102 231 C101.1 231.93 101.1 231.93 100.18 232.88 C93.36 239.91 86.51 246.7 78.79 252.77 C76.13 254.9 73.57 257.12 71.02 259.38 C52.04 276.07 27.75 290.2 3 296 C1.97 296.25 0.95 296.5 -0.11 296.76 C-6.59 298.2 -6.59 298.2 -9 297 C-9.33 297.66 -9.66 298.32 -10 299 C-12.07 299.41 -12.07 299.41 -14.69 299.62 C-15.59 299.7 -16.48 299.77 -17.41 299.85 C-20.28 300.02 -23.13 300.08 -26 300 C-26 300.33 -26 300.66 -26 301 C-29.77 301.06 -33.54 301.09 -37.31 301.12 C-38.38 301.14 -39.46 301.16 -40.56 301.18 C-41.59 301.18 -42.62 301.19 -43.68 301.2 C-44.62 301.21 -45.57 301.22 -46.55 301.23 C-49 301 -49 301 -52 299 C-54.42 298.5 -56.81 298.07 -59.25 297.69 C-66.41 296.47 -73.05 294.51 -79.89 292.09 C-82.83 291.01 -82.83 291.01 -85.23 290.45 C-88.03 289.74 -90.45 288.33 -93 287 C-95.01 285.94 -95.01 285.94 -97.31 285.19 C-100.35 283.85 -102.42 282.09 -105 280 C-106.72 278.76 -108.45 277.53 -110.19 276.31 C-127.33 263.83 -141.69 244.96 -147 224 C-147 223.01 -147 222.02 -147 221 C-147.66 221 -148.32 221 -149 221 C-148.5 219.02 -148.5 219.02 -148 217 C-148.66 216.67 -149.32 216.34 -150 216 C-150.41 213.93 -150.41 213.93 -150.62 211.44 C-150.7 210.61 -150.77 209.78 -150.85 208.93 C-150.9 208.3 -150.95 207.66 -151 207 C-151.33 207 -151.66 207 -152 207 C-152.53 183.12 -149.7 162.93 -140 141 C-139.34 141 -138.68 141 -138 141 C-137.88 140.05 -137.75 139.1 -137.62 138.12 C-137 135 -137 135 -135 133 C-133.89 130.99 -133 129.01 -132.22 126.84 C-127.51 115.88 -119.81 105.89 -112 97 C-110.8 95.6 -110.8 95.6 -109.58 94.18 C-103.55 87.27 -103.55 87.27 -99 85 C-97.24 83.43 -95.54 81.8 -93.88 80.12 C-93.01 79.26 -92.14 78.4 -91.24 77.51 C-89.27 75.3 -88.28 73.6 -87 71 C-77.86 61.07 -60.3 45.55 -46.99 42.55 C-44.49 41.86 -43.04 40.58 -41 39 C-39.35 38.09 -37.69 37.21 -36 36.38 C-34.73 35.74 -34.73 35.74 -33.44 35.09 C-31 34 -31 34 -28.88 33.48 C-26.69 33.03 -26.69 33.03 -24 31 C-22 30.15 -19.97 29.34 -17.94 28.56 C-16.87 28.15 -15.81 27.74 -14.71 27.32 C-10.2 25.72 -5.59 24.38 -1 23 C-0.67 15.41 -0.34 7.82 0 0 Z M2.86 33.08 C-0 34 -2.65 34.44 -5.62 34.81 C-17.26 36.68 -27.62 42.67 -38 48 C-37.26 51.14 -36.24 54.02 -35 57 C-37.88 55.71 -39.87 54.34 -42 52 C-42.99 52.66 -43.98 53.32 -45 54 C-44.73 55.98 -44.73 55.98 -44 58 C-42.52 58.5 -42.52 58.5 -41 59 C-40.5 60.48 -40.5 60.48 -40 62 C-39.34 62.66 -38.68 63.32 -38 64 C-38 64.99 -38 65.98 -38 67 C-39.32 67.33 -40.64 67.66 -42 68 C-42.35 67.26 -42.7 66.52 -43.06 65.75 C-45.67 62.05 -47.88 60.88 -52 59 C-54.34 58.87 -54.34 58.87 -56 60 C-56.33 60.99 -56.66 61.98 -57 63 C-55.38 64.71 -53.71 66.37 -52 68 C-51.34 68 -50.68 68 -50 68 C-50 68.66 -50 69.32 -50 70 C-48.35 70.33 -46.7 70.66 -45 71 C-46.12 73.44 -46.12 73.44 -48 76 C-51.19 76.81 -51.19 76.81 -54 77 C-54.33 76.34 -54.66 75.68 -55 75 C-54.34 75 -53.68 75 -53 75 C-53.99 72.53 -53.99 72.53 -55 70 C-56.32 70 -57.64 70 -59 70 C-61.46 72.6 -61.46 72.6 -62 76 C-60.54 77.63 -60.54 77.63 -59 79 C-60.46 82.37 -62.34 84.61 -64.94 87.19 C-65.63 87.88 -66.32 88.58 -67.03 89.29 C-69 91 -69 91 -72 92 C-72.41 91.2 -72.83 90.39 -73.25 89.56 C-74.73 86.86 -74.73 86.86 -77.19 86.19 C-78.08 86.09 -78.08 86.09 -79 86 C-78.67 84.68 -78.34 83.36 -78 82 C-77.24 82.08 -76.48 82.15 -75.69 82.23 C-72.95 82.28 -72.95 82.28 -71.34 80.43 C-70.88 79.73 -70.41 79.03 -69.94 78.31 C-69.44 77.59 -68.93 76.86 -68.42 76.11 C-67.72 75.07 -67.72 75.07 -67 74 C-63.28 69.14 -63.28 69.14 -61 68 C-61.5 66.02 -61.5 66.02 -62 64 C-64.94 64.18 -64.94 64.18 -68 65 C-70.17 67.86 -70 69.28 -70 73 C-71.98 72.67 -73.96 72.34 -76 72 C-76.45 72.76 -76.91 73.53 -77.38 74.31 C-80.99 80.3 -80.99 80.3 -85.62 81.69 C-86.44 81.94 -87.26 82.19 -88.1 82.45 C-88.73 82.63 -89.35 82.81 -90 83 C-90.6 85.76 -91 88.16 -91 91 C-93.64 91.33 -96.28 91.66 -99 92 C-99.98 95.05 -99.98 96.95 -99 100 C-99.9 99.72 -99.9 99.72 -100.81 99.44 C-103.16 98.78 -103.16 98.78 -106 100 C-106.93 104.53 -106.93 104.53 -106 109 C-108.97 109.99 -108.97 109.99 -112 111 C-112.15 114.63 -112.15 114.63 -111 118 C-113.64 118.33 -116.28 118.66 -119 119 C-118.67 120.98 -118.34 122.96 -118 125 C-118.85 125.45 -119.69 125.91 -120.56 126.38 C-128.38 131.56 -132.36 140.74 -134.31 149.56 C-135.63 155.05 -137.56 160 -139.91 165.11 C-145.95 181.17 -143.55 207.11 -138 223 C-137.53 224.5 -137.07 226 -136.62 227.5 C-135.45 231.35 -134.24 235.18 -133 239 C-132.34 239 -131.68 239 -131 239 C-131 239.66 -131 240.32 -131 241 C-126.02 243.72 -126.02 243.72 -120.56 243.19 C-119.72 242.8 -118.87 242.4 -118 242 C-118.31 242.72 -118.62 243.44 -118.94 244.19 C-119.93 246.8 -120.53 249.25 -121 252 C-115.19 250.74 -115.19 250.74 -110 248 C-109.67 247.01 -109.34 246.02 -109 245 C-108.56 245.36 -108.11 245.73 -107.65 246.1 C-105.65 247.74 -103.64 249.37 -101.62 251 C-100.93 251.57 -100.23 252.14 -99.51 252.73 C-98.84 253.28 -98.17 253.82 -97.48 254.38 C-96.86 254.88 -96.24 255.38 -95.6 255.9 C-94.05 257.19 -94.05 257.19 -92 257 C-91.67 257.99 -91.34 258.98 -91 260 C-93.49 258.8 -95.68 257.55 -98 256 C-102.05 256.41 -104.03 258.55 -106.74 261.37 C-108.38 263.49 -108.84 265.34 -109 268 C-106.12 270.35 -106.12 270.35 -102.56 269.81 C-99.16 269.04 -97.52 268.32 -95 266 C-96.33 267.43 -97.67 268.86 -99 270.3 C-100.43 272.27 -100.43 272.27 -99 276 C-96.03 276.33 -93.06 276.66 -90 277 C-88.35 274.36 -86.7 271.72 -85 269 C-84.01 269.99 -84.01 269.99 -83 271 C-83.46 272.11 -83.46 272.11 -83.94 273.25 C-84.81 275.51 -85.48 277.65 -86 280 C-81.87 280.45 -81.87 280.45 -79.25 277.5 C-78.51 276.68 -77.77 275.85 -77 275 C-77.33 278.3 -77.66 281.6 -78 285 C-74.26 286.4 -74.26 286.4 -72.04 285 C-70.15 283.41 -68.5 281.96 -67 280 C-66.88 276.69 -66.88 276.69 -68 274 C-66.02 274.99 -66.02 274.99 -64 276 C-64.88 280.75 -64.88 280.75 -66 283 C-66.04 285 -66.04 287 -66 289 C-64.02 288.67 -62.04 288.34 -60 288 C-59.01 289.49 -59.01 289.49 -58 291 C-55.28 291.56 -52.75 291.93 -50 292.19 C-49.23 292.27 -48.45 292.35 -47.66 292.43 C-42.08 292.97 -36.6 293.27 -31 293 C-29.47 292.96 -29.47 292.96 -27.92 292.91 C-12.12 292.49 -12.12 292.49 2 287 C3.18 287.05 4.37 287.1 5.59 287.16 C10.33 287.21 13.52 285.74 17.62 283.5 C18.31 283.14 18.99 282.79 19.69 282.42 C21.8 281.3 23.9 280.16 26 279 C26.68 278.63 27.36 278.25 28.06 277.87 C35.49 274.06 35.49 274.06 42 269 C41.7 262.34 41.7 262.34 38 257 C37.34 257 36.68 257 36 257 C35.88 256.24 35.75 255.47 35.62 254.69 C35.12 251.8 35.12 251.8 33 249 C32.01 249 31.02 249 30 249 C30 248.01 30 247.02 30 246 C30.55 245.9 31.1 245.79 31.66 245.68 C41.89 242.7 50.85 234.65 59 228 C59.59 227.52 60.17 227.05 60.78 226.56 C72.41 217.03 81.92 206.6 91 194.62 C91.99 193.32 91.99 193.32 93 191.99 C93.62 191.16 94.24 190.33 94.88 189.48 C95.71 188.36 95.71 188.36 96.55 187.23 C98.07 184.9 99.05 182.61 100 180 C101.32 180.33 102.64 180.66 104 181 C104.99 179.02 105.98 177.04 107 175 C107.99 175 108.98 175 110 175 C109.48 172.24 108.89 169.67 108 167 C110.9 167.4 112.7 167.77 115.06 169.56 C117.13 171.4 117.13 171.4 121 171 C121.67 168.21 121.67 168.21 121 165 C118.2 162.52 114.83 160 111 160 C111 158.02 111 156.04 111 154 C111.99 153.67 112.98 153.34 114 153 C113.67 150.69 113.34 148.38 113 146 C114.32 145.34 115.64 144.68 117 144 C118.46 145.3 119.93 146.6 121.39 147.91 C123.09 149.28 123.09 149.28 126 149 C126 147.35 126 145.7 126 144 C125.34 144 124.68 144 124 144 C124 143.34 124 142.68 124 142 C123.45 141.81 122.89 141.61 122.32 141.41 C121.6 141.15 120.87 140.89 120.12 140.62 C119.05 140.24 119.05 140.24 117.95 139.85 C116 139 116 139 114 137 C114.24 135.12 114.24 135.12 114.88 132.88 C116.26 127.33 116.49 122.48 115.38 116.81 C114.94 113.57 115.55 111.89 117 109 C114.28 106.13 114.28 106.13 111 104 C111.06 102.95 111.12 101.9 111.19 100.81 C110.99 96.72 110.49 95.18 108 92 C107.26 91.42 106.51 90.84 105.75 90.25 C103.2 88.16 101.63 86.31 99.69 83.69 C93.22 75.19 84.89 69.71 76 64 C88.76 67.88 88.76 67.88 94 72 C94.95 72.68 95.9 73.36 96.88 74.06 C100.7 77.25 103.25 81.45 105.97 85.57 C108.21 88.25 109.66 89.13 113 90 C115.74 89.59 115.74 89.59 118 88 C119.12 85.66 119.12 85.66 120 83 C121.08 81.76 121.08 81.76 122.19 80.5 C124.32 78.13 124.32 78.13 123.75 75.19 C123.5 74.47 123.25 73.74 123 73 C122.01 73 121.02 73 120 73 C119.57 73.5 119.13 73.99 118.69 74.5 C117 76 117 76 113.81 76.19 C112.42 76.09 112.42 76.09 111 76 C111.35 75.47 111.7 74.94 112.06 74.39 C112.51 73.68 112.97 72.98 113.44 72.25 C114.12 71.21 114.12 71.21 114.81 70.14 C115.96 68.07 116.55 66.31 117 64 C114.07 64.42 113.11 64.88 111.06 67.12 C110.38 67.74 109.7 68.36 109 69 C106.25 68.75 106.25 68.75 104 68 C104.44 67.49 104.89 66.98 105.35 66.46 C109.14 62.06 109.14 62.06 109.88 56.5 C109.44 55.26 109.44 55.26 109 54 C108.01 53.67 107.02 53.34 106 53 C105.7 53.64 105.39 54.28 105.08 54.93 C104.66 55.76 104.24 56.59 103.81 57.44 C103.41 58.26 103 59.08 102.58 59.93 C101 62 101 62 98.45 62.79 C96 63 96 63 94 63 C94.6 61.73 95.2 60.46 95.81 59.19 C96.15 58.48 96.49 57.77 96.83 57.04 C98 55 98 55 99.64 53.36 C100.09 52.91 100.54 52.46 101 52 C100.84 49.48 100.16 48.22 98.69 46.19 C97.07 44.78 97.07 44.78 95 45.14 C92.81 45.83 92.81 45.83 91.95 48.07 C91.61 49.3 91.61 49.3 91.25 50.56 C91.01 51.39 90.77 52.22 90.52 53.07 C90.35 53.7 90.18 54.34 90 55 C88.02 55 86.04 55 84 55 C84.74 53.45 84.74 53.45 85.5 51.88 C86.96 48.46 87.44 45.75 87 42 C86.01 41.01 86.01 41.01 85 40 C82.89 40.32 82.89 40.32 81 41 C80.67 43.31 80.34 45.62 80 48 C77.92 48.55 76.16 49 74 49 C74 46.69 74 44.38 74 42 C71 41.67 71 41.67 69.31 43.5 C68.88 44 68.45 44.49 68 45 C67.92 44.18 67.85 43.36 67.77 42.52 C67.21 39 66.58 36.21 65 33 C61.2 30.67 57.36 29.8 53 29 C51.83 28.74 51.83 28.74 50.63 28.48 C34.92 25.61 17.84 27.92 2.86 33.08 Z M-142 148 C-141 150 -141 150 -141 150 Z M-144 153 C-143 155 -143 155 -143 155 Z M-145 156 C-144 158 -144 158 -144 158 Z M-146 159 C-145 161 -145 161 -145 161 Z M-147 162 C-146 165 -146 165 -146 165 Z M-148 166 C-147 169 -147 169 -147 169 Z M-149 171 C-148 173 -148 173 -148 173 Z M-150 174 C-149 178 -149 178 -149 178 Z M-151 181 C-151 182.65 -151 184.3 -151 186 C-150.67 186 -150.34 186 -150 186 C-150 184.35 -150 182.7 -150 181 C-150.33 181 -150.66 181 -151 181 Z " fill="#29262C" transform="translate(167,59)"/>
<path d="M0 0 C1.57 0.02 3.13 0.04 4.75 0.06 C4.42 4.02 4.09 7.98 3.75 12.06 C1.77 12.72 -0.21 13.38 -2.25 14.06 C-1.83 14.58 -1.41 15.1 -0.97 15.64 C4.47 22.56 4.47 22.56 4.75 27.06 C3.1 27.39 1.45 27.72 -0.25 28.06 C-0.68 26.92 -0.68 26.92 -1.12 25.75 C-2.21 22.91 -2.21 22.91 -4.25 20.06 C-4.25 19.4 -4.25 18.74 -4.25 18.06 C-5.57 18.06 -6.89 18.06 -8.25 18.06 C-7.5 23.61 -7.5 23.61 -4.12 27.56 C-3.51 27.73 -2.89 27.89 -2.25 28.06 C-2.25 28.72 -2.25 29.38 -2.25 30.06 C-4.56 31.05 -6.87 32.04 -9.25 33.06 C-10.06 32.11 -10.06 32.11 -10.89 31.13 C-11.61 30.3 -12.33 29.48 -13.06 28.62 C-13.77 27.8 -14.48 26.98 -15.21 26.13 C-17.16 23.84 -17.16 23.84 -20.25 23.06 C-19.26 26.53 -19.26 26.53 -18.25 30.06 C-21.19 29.25 -21.19 29.25 -24.25 28.06 C-24.75 26.58 -24.75 26.58 -25.25 25.06 C-26.57 25.39 -27.89 25.72 -29.25 26.06 C-28.57 29.16 -28.57 29.16 -26.25 30.31 C-23.34 32.86 -23.53 35.33 -23.25 39.06 C-25.69 41.09 -27.9 42.36 -30.81 43.69 C-36.65 46.55 -41.35 50.85 -46.25 55.06 C-47.44 56.08 -48.63 57.09 -49.82 58.11 C-52.74 60.6 -55.65 63.09 -58.55 65.6 C-59.73 66.62 -60.92 67.62 -62.11 68.62 C-65.21 71.24 -68.13 73.82 -70.75 76.94 C-71.33 77.62 -71.91 78.3 -72.5 79 C-73.08 79.68 -73.66 80.36 -74.25 81.06 C-75.4 82.33 -76.54 83.6 -77.69 84.88 C-83.01 90.97 -88.52 97.36 -91.25 105.06 C-94.72 105.56 -94.72 105.56 -98.25 106.06 C-97.78 106.47 -97.3 106.89 -96.81 107.31 C-95.04 109.3 -94.42 110.41 -94.25 113.06 C-95.44 114.88 -95.44 114.88 -97.25 116.06 C-97.89 115.9 -98.53 115.73 -99.19 115.56 C-101.37 114.78 -101.37 114.78 -103.5 116.38 C-104.08 116.93 -104.66 117.49 -105.25 118.06 C-105.25 118.72 -105.25 119.38 -105.25 120.06 C-103.27 120.06 -101.29 120.06 -99.25 120.06 C-98.62 122.38 -98.62 122.38 -98.25 125.06 C-98.91 126.05 -99.57 127.04 -100.25 128.06 C-101.9 127.4 -103.55 126.74 -105.25 126.06 C-105.25 125.4 -105.25 124.74 -105.25 124.06 C-105.87 124.56 -106.49 125.05 -107.12 125.56 C-109.25 127.06 -109.25 127.06 -111.25 127.06 C-109.21 129.58 -107.72 130.28 -104.62 131.56 C-102.95 132.31 -102.95 132.31 -101.25 133.06 C-100.25 136.06 -100.25 136.06 -101.25 139.06 C-104.88 139.06 -108.51 139.06 -112.25 139.06 C-111.92 140.05 -111.59 141.04 -111.25 142.06 C-108.61 142.39 -105.97 142.72 -103.25 143.06 C-102.62 144.88 -102.62 144.88 -102.25 147.06 C-102.91 148.05 -103.57 149.04 -104.25 150.06 C-110 149.19 -110 149.19 -112.25 148.06 C-112.91 150.04 -113.57 152.02 -114.25 154.06 C-115.9 154.06 -117.55 154.06 -119.25 154.06 C-119.25 151.42 -119.25 148.78 -119.25 146.06 C-119.91 146.06 -120.57 146.06 -121.25 146.06 C-121.27 147.36 -121.29 148.66 -121.31 150 C-121.32 150.73 -121.34 151.46 -121.35 152.21 C-121.46 154.08 -121.46 154.08 -120.25 155.06 C-118.05 154.81 -115.87 154.48 -113.69 154.12 C-112.49 153.93 -111.29 153.74 -110.06 153.54 C-108.67 153.3 -108.67 153.3 -107.25 153.06 C-105.69 154.87 -105.69 154.87 -104.25 157.06 C-104.58 158.05 -104.91 159.04 -105.25 160.06 C-107.56 159.73 -109.87 159.4 -112.25 159.06 C-113.24 160.71 -114.23 162.36 -115.25 164.06 C-116.9 163.73 -118.55 163.4 -120.25 163.06 C-120.25 162.4 -120.25 161.74 -120.25 161.06 C-120.91 161.06 -121.57 161.06 -122.25 161.06 C-122.25 163.04 -122.25 165.02 -122.25 167.06 C-121.38 166.9 -120.52 166.73 -119.62 166.56 C-116.43 166.09 -113.47 166.06 -110.25 166.06 C-108.58 165.77 -106.9 165.45 -105.25 165.06 C-103.9 167.77 -104.18 170.07 -104.25 173.06 C-105.24 173.06 -106.23 173.06 -107.25 173.06 C-107.25 173.72 -107.25 174.38 -107.25 175.06 C-105.6 175.06 -103.95 175.06 -102.25 175.06 C-101.87 177.05 -101.54 179.06 -101.25 181.06 C-102.88 182.69 -104.96 182.65 -107.19 183.06 C-110.84 183.71 -110.84 183.71 -114.25 185.06 C-115.93 184.78 -117.6 184.45 -119.25 184.06 C-118.92 187.03 -118.59 190 -118.25 193.06 C-117.26 193.39 -116.27 193.72 -115.25 194.06 C-115.25 194.72 -115.25 195.38 -115.25 196.06 C-114.59 196.39 -113.93 196.72 -113.25 197.06 C-113.25 199.37 -113.25 201.68 -113.25 204.06 C-112.71 203.79 -112.16 203.51 -111.61 203.22 C-110.89 202.86 -110.17 202.5 -109.44 202.12 C-108.38 201.59 -108.38 201.59 -107.29 201.04 C-105.25 200.06 -105.25 200.06 -102.25 199.06 C-100.86 197.44 -99.52 195.78 -98.25 194.06 C-96.6 194.39 -94.95 194.72 -93.25 195.06 C-92.59 197.04 -91.93 199.02 -91.25 201.06 C-90.59 201.06 -89.93 201.06 -89.25 201.06 C-88.86 201.76 -88.47 202.47 -88.06 203.19 C-84.65 208.6 -79.67 211.84 -74.25 215.06 C-73.7 215.7 -73.15 216.33 -72.58 216.99 C-69.6 219.65 -66.45 220.55 -62.69 221.62 C-54.21 224.09 -54.21 224.09 -52.25 227.06 C-52.55 229.07 -52.88 231.07 -53.25 233.06 C-52.43 235.38 -52.43 235.38 -51.25 237.06 C-51.15 235.8 -51.04 234.55 -50.94 233.25 C-50.6 230.46 -50.45 229.32 -48.69 227.06 C-48.21 226.73 -47.74 226.4 -47.25 226.06 C-47.58 225.07 -47.91 224.08 -48.25 223.06 C-44.23 221.45 -41.25 222.85 -37.25 224.06 C-35.93 224.06 -34.61 224.06 -33.25 224.06 C-33.25 224.72 -33.25 225.38 -33.25 226.06 C-32.59 226.06 -31.93 226.06 -31.25 226.06 C-32.25 229.06 -32.25 229.06 -34.25 231.06 C-33.59 231.06 -32.93 231.06 -32.25 231.06 C-32.25 233.7 -32.25 236.34 -32.25 239.06 C-31.26 239.06 -30.27 239.06 -29.25 239.06 C-29.25 236.75 -29.25 234.44 -29.25 232.06 C-26.94 232.39 -24.63 232.72 -22.25 233.06 C-22.53 234.42 -22.53 234.42 -22.81 235.81 C-23.21 238.75 -23.2 240.33 -22.25 243.06 C-21.26 242.73 -20.27 242.4 -19.25 242.06 C-18.59 238.76 -17.93 235.46 -17.25 232.06 C-15.6 231.73 -13.95 231.4 -12.25 231.06 C-9.86 234.65 -10.43 236.02 -11.09 240.12 C-11.29 242.6 -10.68 244.05 -9.25 246.06 C-8.26 246.06 -7.27 246.06 -6.25 246.06 C-6.56 245.44 -6.87 244.82 -7.19 244.19 C-8.65 239.87 -8.92 235.59 -9.25 231.06 C-8.26 231.06 -7.27 231.06 -6.25 231.06 C-6.44 229.11 -6.44 229.11 -7.25 227.06 C-9.23 225.78 -9.23 225.78 -11.25 225.06 C-7.85 224.08 -4.53 223.77 -1 223.5 C0.08 223.42 1.16 223.33 2.27 223.25 C3.09 223.19 3.91 223.12 4.75 223.06 C4.75 223.72 4.75 224.38 4.75 225.06 C3.1 225.39 1.45 225.72 -0.25 226.06 C0.38 233.07 1.04 240.07 1.75 247.06 C2.41 247.06 3.07 247.06 3.75 247.06 C3.75 249.04 3.75 251.02 3.75 253.06 C-6.93 255.67 -17.21 257.74 -28.25 258.06 C-29.07 258.1 -29.89 258.14 -30.74 258.18 C-36.25 258.34 -41.71 257.82 -47.19 257.25 C-48.31 257.14 -48.31 257.14 -49.45 257.04 C-53.43 256.58 -55.67 256.18 -58.25 253.06 C-60.9 253.29 -60.9 253.29 -63.25 254.06 C-63.44 249.97 -63.05 247.67 -61.25 244.06 C-61.32 241.88 -61.32 241.88 -62.25 240.06 C-63.24 239.73 -64.23 239.4 -65.25 239.06 C-64.79 240.36 -64.79 240.36 -64.31 241.69 C-64.25 245.06 -64.25 245.06 -65.6 246.83 C-67.45 248.51 -69.03 249.92 -71.25 251.06 C-72.57 250.73 -73.89 250.4 -75.25 250.06 C-74.92 246.76 -74.59 243.46 -74.25 240.06 C-74.99 240.89 -75.73 241.71 -76.5 242.56 C-79.25 245.06 -79.25 245.06 -83.25 245.06 C-82.46 241.65 -81.38 238.37 -80.25 235.06 C-80.91 234.73 -81.57 234.4 -82.25 234.06 C-83.9 236.7 -85.55 239.34 -87.25 242.06 C-90.22 241.73 -93.19 241.4 -96.25 241.06 C-97.25 237.06 -97.25 237.06 -96.25 235.14 C-95.78 234.54 -95.3 233.93 -94.81 233.31 C-94.1 232.39 -94.1 232.39 -93.38 231.45 C-93.01 230.99 -92.63 230.54 -92.25 230.06 C-93.3 231.02 -93.3 231.02 -94.38 232 C-97.53 234.26 -99.39 234.98 -103.25 235.06 C-105.12 233.62 -105.12 233.62 -106.25 232.06 C-104.86 227.32 -102.27 223.9 -98.25 221.06 C-93.81 220.84 -90.75 223.54 -87.25 226.06 C-88.68 222.5 -89.89 221.71 -93.25 220.06 C-94.75 218.95 -96.23 217.8 -97.69 216.62 C-100.77 214.19 -103.8 211.96 -107.25 210.06 C-107.33 210.69 -107.42 211.31 -107.5 211.95 C-108.25 214.06 -108.25 214.06 -110.03 215.14 C-111.1 215.51 -111.1 215.51 -112.19 215.88 C-112.9 216.13 -113.61 216.38 -114.34 216.64 C-116.25 217.06 -116.25 217.06 -118.25 216.06 C-117.55 212.92 -116.49 210.04 -115.25 207.06 C-116.8 207.65 -116.8 207.65 -118.38 208.25 C-122.92 209.2 -124.41 208.5 -128.25 206.06 C-128.25 205.4 -128.25 204.74 -128.25 204.06 C-128.91 204.06 -129.57 204.06 -130.25 204.06 C-131.57 199.86 -132.88 195.65 -134.19 191.44 C-134.56 190.25 -134.93 189.06 -135.32 187.83 C-135.68 186.68 -136.03 185.52 -136.4 184.34 C-136.9 182.75 -136.9 182.75 -137.4 181.13 C-139.48 173.61 -139.44 166.23 -139.44 158.49 C-139.44 156.33 -139.46 154.18 -139.47 152.02 C-139.51 142.5 -139.34 133.37 -134.81 124.75 C-132.84 120.69 -131.72 117 -130.88 112.56 C-128.97 103.48 -124.62 96.65 -117.25 91.06 C-116.26 90.07 -116.26 90.07 -115.25 89.06 C-115.57 86.46 -115.57 86.46 -116.25 84.06 C-113.61 83.73 -110.97 83.4 -108.25 83.06 C-108.58 80.75 -108.91 78.44 -109.25 76.06 C-106.28 75.07 -106.28 75.07 -103.25 74.06 C-103.44 73.13 -103.62 72.21 -103.81 71.25 C-104.25 68.06 -104.25 68.06 -103.25 65.06 C-100.77 64.15 -98.91 64.06 -96.25 64.06 C-96.75 61.09 -96.75 61.09 -97.25 58.06 C-93.85 55.97 -91.2 55.88 -87.25 56.06 C-87.46 55.13 -87.66 54.21 -87.88 53.25 C-88.25 50.06 -88.25 50.06 -86.25 47.06 C-84.19 46.32 -84.19 46.32 -81.81 45.75 C-77.79 44.58 -77.79 44.58 -75.5 40.94 C-75.09 39.99 -74.67 39.04 -74.25 38.06 C-71.69 37.12 -71.69 37.12 -69.25 37.06 C-68.59 37.39 -67.93 37.72 -67.25 38.06 C-67.15 37.13 -67.04 36.21 -66.94 35.25 C-66.24 32.02 -65.95 30.87 -63.25 29.06 C-61.93 29.06 -60.61 29.06 -59.25 29.06 C-58.44 30.75 -58.44 30.75 -58.25 33.06 C-60.31 35.38 -60.31 35.38 -63.25 38.06 C-64.35 39.28 -65.43 40.51 -66.5 41.75 C-67.25 42.62 -67.25 42.62 -68.02 43.51 C-69.33 45.06 -69.33 45.06 -70.25 47.06 C-71.9 47.06 -73.55 47.06 -75.25 47.06 C-75.58 48.38 -75.91 49.7 -76.25 51.06 C-75.47 51.31 -74.68 51.56 -73.88 51.81 C-70.93 53.22 -70.35 54.07 -69.25 57.06 C-64.21 54.54 -59.56 50.63 -56.25 46.06 C-56.27 43.87 -56.27 43.87 -57.25 42.06 C-57.91 41.73 -58.57 41.4 -59.25 41.06 C-57.77 36.39 -57.77 36.39 -55.12 34.75 C-54.51 34.52 -53.89 34.3 -53.25 34.06 C-50.25 37.81 -50.25 37.81 -50.25 40.06 C-50.91 40.06 -51.57 40.06 -52.25 40.06 C-51.92 40.72 -51.59 41.38 -51.25 42.06 C-48.35 41.95 -48.35 41.95 -45.25 41.06 C-43.33 38.62 -43.33 38.62 -42.25 36.06 C-43.9 35.73 -45.55 35.4 -47.25 35.06 C-47.25 34.4 -47.25 33.74 -47.25 33.06 C-47.91 33.06 -48.57 33.06 -49.25 33.06 C-50.96 31.44 -52.63 29.77 -54.25 28.06 C-53.59 26.74 -52.93 25.42 -52.25 24.06 C-49.12 24.7 -46.77 25.76 -44.06 27.44 C-43.37 27.86 -42.67 28.28 -41.96 28.71 C-40.25 30.06 -40.25 30.06 -39.25 33.06 C-37.93 32.73 -36.61 32.4 -35.25 32.06 C-35.25 30.74 -35.25 29.42 -35.25 28.06 C-36.24 27.4 -37.23 26.74 -38.25 26.06 C-38.25 25.4 -38.25 24.74 -38.25 24.06 C-39.57 23.4 -40.89 22.74 -42.25 22.06 C-41.94 20.13 -41.94 20.13 -41.25 18.06 C-40.26 17.73 -39.27 17.4 -38.25 17.06 C-37.63 17.89 -37.01 18.71 -36.38 19.56 C-35.67 20.39 -34.97 21.21 -34.25 22.06 C-33.59 22.06 -32.93 22.06 -32.25 22.06 C-32.56 21.32 -32.87 20.58 -33.19 19.81 C-34.06 17.55 -34.69 15.41 -35.25 13.06 C-9.45 -0.12 -9.45 -0.12 0 0 Z " fill="#D5A97E" transform="translate(164.25,93.9375)"/>
<path d="M0 0 C1.04 0 2.08 0 3.16 0 C11.56 0.13 22.13 0.45 29.1 5.79 C30.98 8.38 30.92 11.26 31.25 14.38 C31.75 15.86 31.75 15.86 32.25 17.38 C33.9 16.06 35.55 14.73 37.25 13.38 C38.25 14.38 38.25 14.38 38.31 17.94 C38.29 19.07 38.27 20.21 38.25 21.38 C39.92 21.42 41.58 21.42 43.25 21.38 C45.22 19.41 44.91 16.03 45.25 13.38 C47.12 12.75 47.12 12.75 49.25 12.38 C51.25 14.37 51.25 14.37 51.3 16.4 C51.2 17.17 51.1 17.95 51 18.75 C50.91 19.52 50.82 20.29 50.73 21.09 C50.23 23.45 49.42 25.27 48.25 27.38 C50.23 27.38 52.21 27.38 54.25 27.38 C54.42 26.74 54.59 26.1 54.77 25.44 C55.01 24.62 55.25 23.79 55.5 22.94 C55.73 22.11 55.96 21.29 56.2 20.44 C57.25 18.38 57.25 18.38 59.21 17.48 C61.25 17.38 61.25 17.38 63.56 19.06 C65.25 21.38 65.25 21.38 65.01 23.3 C64.2 25.52 63.19 27.06 61.75 28.94 C60.01 31.2 59.18 32.6 58.25 35.38 C61.04 36.05 61.04 36.05 64.25 35.38 C66.84 32.38 68.49 28.9 70.25 25.38 C71.74 25.87 71.74 25.87 73.25 26.38 C74.12 28.88 74.12 28.88 74.25 32.38 C72.55 35.3 70.48 37.83 68.25 40.38 C70.45 41.33 70.45 41.33 73.25 41.38 C75.48 39.92 77.27 38.18 79.25 36.38 C79.91 36.38 80.57 36.38 81.25 36.38 C80.62 39.59 79.47 41.88 77.69 44.62 C77.23 45.33 76.78 46.04 76.31 46.77 C75.96 47.3 75.61 47.83 75.25 48.38 C79.19 48.74 80.82 48.68 84.12 46.38 C84.83 45.72 85.53 45.06 86.25 44.38 C88.25 47.38 88.25 47.38 88.03 49.34 C87.19 51.53 86.18 53.09 84.75 54.94 C83.01 57.2 82.18 58.6 81.25 61.38 C78.56 62.19 78.56 62.19 75.25 62.38 C71.69 59.24 68.87 55.69 66 51.94 C58.53 42.78 49.45 37.8 37.7 35.98 C36.2 35.83 34.71 35.7 33.21 35.59 C30.4 35.28 27.9 34.34 25.25 33.38 C23.59 33.02 21.92 32.69 20.25 32.38 C20.25 27.04 20.25 21.71 20.25 16.38 C18.27 16.64 18.27 16.64 16.25 17.38 C15.75 18.86 15.75 18.86 15.25 20.38 C15.75 21.32 16.24 22.27 16.75 23.25 C18.39 26.67 18.39 27.86 17.25 31.38 C16.66 31.3 16.06 31.23 15.45 31.16 C9.07 30.44 2.67 29.98 -3.75 30.38 C-4.25 30.87 -4.25 30.87 -4.75 31.38 C-6.75 31.42 -8.75 31.42 -10.75 31.38 C-11.41 29.72 -12.07 28.08 -12.75 26.38 C-13.74 26.38 -14.73 26.38 -15.75 26.38 C-16.08 27.36 -16.41 28.36 -16.75 29.38 C-16.09 29.7 -15.43 30.03 -14.75 30.38 C-15.41 31.69 -16.07 33.02 -16.75 34.38 C-20.05 33.72 -23.35 33.06 -26.75 32.38 C-27.08 33.37 -27.41 34.35 -27.75 35.38 C-31.72 38.15 -35.85 39.99 -40.75 39.38 C-40.75 38.06 -40.75 36.73 -40.75 35.38 C-42.4 34.72 -44.05 34.06 -45.75 33.38 C-46.08 30.73 -46.41 28.09 -46.75 25.38 C-45.43 25.05 -44.11 24.72 -42.75 24.38 C-42.5 25.1 -42.25 25.82 -42 26.56 C-40.63 29.65 -39.03 31.89 -36.75 34.38 C-36.09 34.38 -35.43 34.38 -34.75 34.38 C-35.53 28.94 -37.68 25.05 -41.75 21.38 C-39.1 19.91 -37.86 19.38 -34.75 19.38 C-34.72 17.58 -34.7 15.79 -34.69 14 C-34.68 13 -34.66 12 -34.65 10.98 C-34.57 8.39 -34.57 8.39 -35.75 6.38 C-33.82 5.74 -31.88 5.12 -29.94 4.5 C-28.86 4.15 -27.78 3.8 -26.67 3.45 C-17.86 0.9 -9.15 -0.01 0 0 Z " fill="#A46932" transform="translate(202.75,86.625)"/>
<path d="M0 0 C8.22 1.16 8.22 1.16 11.12 4.31 C12.12 7.35 11.95 8.98 11 12 C11.66 12 12.32 12 13 12 C12.99 12.96 12.98 13.93 12.96 14.92 C12.96 16.19 12.95 17.45 12.94 18.75 C12.93 20 12.91 21.26 12.9 22.55 C12.86 25.77 12.86 25.77 13.5 27.88 C15.54 36.5 13.73 46.39 12.69 55.06 C12.57 56.18 12.45 57.29 12.33 58.44 C12.14 60.03 12.14 60.03 11.95 61.66 C11.84 62.62 11.73 63.57 11.62 64.55 C10.92 67.3 10.16 68.24 8 70 C4.21 73.32 2.78 76.37 1 81 C-6.61 79.96 -6.61 79.96 -9 78 C-10.83 73.6 -11.44 69.62 -10 65 C-10.66 65 -11.32 65 -12 65 C-14.19 28.31 -14.19 28.31 -7 13 C-5.69 12.29 -4.36 11.62 -3 11 C-2.13 9.16 -2.13 9.16 -1.81 7.06 C-1.32 4.6 -0.8 2.4 0 0 Z " fill="#D8AB80" transform="translate(220,210)"/>
<path d="M0 0 C3.22 1.61 4.32 4.94 6 8 C6.99 9.67 7.99 11.34 9 13 C7.68 13.66 6.36 14.32 5 15 C5 16.32 5 17.64 5 19 C2.03 19 -0.94 19 -4 19 C-2.12 22.77 -1.31 23.79 2 26 C1.34 27.32 0.68 28.64 0 30 C-0.66 30 -1.32 30 -2 30 C-2 29.34 -2 28.68 -2 28 C-4.97 27.01 -7.94 26.02 -11 25 C-9.79 29.55 -8.73 31.27 -5 34 C-5 35.32 -5 36.64 -5 38 C-6.32 38 -7.64 38 -9 38 C-9 37.34 -9 36.68 -9 36 C-9.66 36 -10.32 36 -11 36 C-11.66 34.68 -12.32 33.36 -13 32 C-14.98 32.27 -14.98 32.27 -17 33 C-17.33 33.99 -17.66 34.98 -18 36 C-17.2 36.74 -16.39 37.49 -15.56 38.25 C-13.23 40.75 -12.36 41.72 -12 45 C-13.98 45.5 -13.98 45.5 -16 46 C-16 45.34 -16 44.68 -16 44 C-17.98 43.27 -19.98 42.61 -22 42 C-22.99 42.5 -22.99 42.5 -24 43 C-23.66 47.49 -23.66 47.49 -20.94 50.88 C-20.3 51.25 -19.66 51.62 -19 52 C-20.75 52.69 -20.75 52.69 -23 53 C-24.34 52.01 -25.67 51.01 -27 50 C-29.67 49.75 -29.67 49.75 -32 50 C-32 51.65 -32 53.3 -32 55 C-31.07 55.43 -31.07 55.43 -30.12 55.88 C-28 57 -28 57 -26 59 C-26.66 59.99 -27.32 60.98 -28 62 C-30.88 61.81 -30.88 61.81 -34 61 C-35.38 58.44 -35.38 58.44 -36 56 C-37.65 56 -39.3 56 -41 56 C-40.58 58.93 -40.12 59.89 -37.88 61.94 C-37.26 62.62 -36.64 63.3 -36 64 C-36.25 66.75 -36.25 66.75 -37 69 C-38.65 68.67 -40.3 68.34 -42 68 C-42.99 64.53 -42.99 64.53 -44 61 C-46.47 61.96 -47.73 62.46 -48.94 64.88 C-49.02 67.77 -47.75 68.76 -46 71 C-46 72.32 -46 73.64 -46 75 C-48.87 73.71 -50.98 72.43 -53 70 C-53 69.34 -53 68.68 -53 68 C-53.66 68 -54.32 68 -55 68 C-54.78 69.05 -54.78 69.05 -54.56 70.12 C-53.99 73.08 -53.48 76.03 -53 79 C-55.44 77.75 -55.44 77.75 -58 76 C-58.62 73.88 -58.62 73.88 -59 72 C-59.99 71.67 -60.98 71.34 -62 71 C-63.12 68.12 -63.12 68.12 -64 65 C-64.33 64.01 -64.66 63.02 -65 62 C-62.35 58.92 -59.02 57.27 -55.5 55.38 C-48.69 51.6 -42.84 47.16 -37 42 C-36.08 41.2 -35.15 40.4 -34.2 39.57 C-29.44 35.47 -29.44 35.47 -25.34 30.74 C-24.68 29.88 -24.68 29.88 -24 29 C-23.34 29 -22.68 29 -22 29 C-21.72 27.98 -21.72 27.98 -21.44 26.94 C-18.96 21.88 -14.58 18.42 -10.44 14.69 C-7.51 11.46 -5.48 7.99 -3.33 4.21 C-2 2 -2 2 0 0 Z " fill="#A46831" transform="translate(269,245)"/>
<path d="M0 0 C0.5 0.99 0.5 0.99 1 2 C1.99 2 2.98 2 4 2 C6.11 4.89 7 6.38 7 10 C7.99 10.33 8.98 10.66 10 11 C12.23 14.64 13.9 17.71 13 22 C9.71 24.94 6.24 27.11 2.37 29.2 C1.31 29.77 0.26 30.34 -0.82 30.92 C-1.91 31.51 -3 32.09 -4.12 32.69 C-5.22 33.28 -6.32 33.87 -7.45 34.49 C-17.97 40.15 -17.97 40.15 -23.19 40.06 C-24.45 40.04 -25.7 40.02 -27 40 C-27.33 38.35 -27.66 36.7 -28 35 C-28.66 35 -29.32 35 -30 35 C-30.51 32.63 -31.01 30.25 -31.5 27.88 C-31.64 27.21 -31.79 26.54 -31.93 25.86 C-32.76 21.84 -33.15 18.1 -33 14 C-26.38 12 -26.38 12 -23 12 C-22.67 11.01 -22.34 10.02 -22 9 C-20.95 8.9 -19.9 8.79 -18.81 8.69 C-15 8 -13.18 7.07 -10 5 C-3.56 2 -3.56 2 0 2 C0 1.34 0 0.68 0 0 Z " fill="#A56932" transform="translate(196,306)"/>
<path d="M0 0 C0.66 0 1.32 0 2 0 C3.73 2.96 4.21 4.69 3.69 8.06 C3.2 11.54 2.8 15 2.5 18.5 C2.36 19.89 2.36 19.89 2.23 21.32 C2.09 22.97 1.99 24.62 1.96 26.28 C1.71 32.47 -0.84 36.48 -4.09 41.67 C-6.84 46.46 -8.65 51.47 -10.54 56.65 C-11.98 59.96 -13.62 62.31 -16 65 C-20.41 63.65 -22.43 61.81 -25 58 C-25 57.34 -25 56.68 -25 56 C-26.32 56.66 -27.64 57.32 -29 58 C-30.02 54.11 -30.17 52.39 -28.56 48.62 C-28.05 47.76 -27.53 46.89 -27 46 C-26.01 46 -25.02 46 -24 46 C-24.33 43.36 -24.66 40.72 -25 38 C-23.31 37.25 -23.31 37.25 -21 37 C-19.29 38.28 -17.63 39.62 -16 41 C-13.82 41.78 -13.82 41.78 -12 42 C-11.79 39.16 -11.79 39.16 -13 36 C-15.82 33.94 -18.83 32.45 -22 31 C-22 29.02 -22 27.04 -22 25 C-19.64 23.52 -18.31 22.98 -15.5 23.12 C-12.47 24.18 -11.02 25.53 -9 28 C-9 28.66 -9 29.32 -9 30 C-7.68 30.33 -6.36 30.66 -5 31 C-5 29.93 -5 28.85 -5 27.75 C-5 25.17 -5 22.58 -5 20 C-4.34 19.67 -3.68 19.34 -3 19 C-2.77 14.21 -2.77 14.21 -5 10 C-6.18 9.53 -7.35 9.05 -8.56 8.56 C-9.7 8.05 -10.83 7.53 -12 7 C-12.33 5.68 -12.66 4.36 -13 3 C-7.56 3.5 -7.56 3.5 -2 4 C-1.34 2.68 -0.68 1.36 0 0 Z " fill="#A36831" transform="translate(300,188)"/>
<path d="M0 0 C2.26 0.06 2.26 0.06 4.56 0.12 C4.23 4.08 3.9 8.05 3.56 12.12 C1.58 12.78 -0.4 13.44 -2.44 14.12 C-2.02 14.64 -1.59 15.16 -1.16 15.7 C4.28 22.63 4.28 22.63 4.56 27.12 C2.91 27.45 1.26 27.78 -0.44 28.12 C-0.73 27.36 -1.01 26.6 -1.31 25.81 C-2.4 22.97 -2.4 22.97 -4.44 20.12 C-4.44 19.47 -4.44 18.81 -4.44 18.12 C-5.76 18.12 -7.08 18.12 -8.44 18.12 C-7.69 23.67 -7.69 23.67 -4.31 27.62 C-3.69 27.79 -3.07 27.95 -2.44 28.12 C-2.44 28.78 -2.44 29.44 -2.44 30.12 C-4.75 31.11 -7.06 32.11 -9.44 33.12 C-9.98 32.49 -10.52 31.85 -11.08 31.19 C-12.16 29.95 -12.16 29.95 -13.25 28.69 C-13.96 27.86 -14.67 27.04 -15.39 26.19 C-17.35 23.9 -17.35 23.9 -20.44 23.12 C-19.78 25.44 -19.12 27.75 -18.44 30.12 C-21.38 29.31 -21.38 29.31 -24.44 28.12 C-24.77 27.14 -25.1 26.14 -25.44 25.12 C-27.75 25.45 -30.06 25.78 -32.44 26.12 C-33.44 23.12 -33.44 23.12 -32.44 20.12 C-32.93 19.49 -33.43 18.85 -33.94 18.19 C-35.44 16.12 -35.44 16.12 -35.32 14.15 C-34.08 11.3 -32.59 10.86 -29.77 9.62 C-28.82 9.19 -27.86 8.76 -26.87 8.32 C-25.86 7.88 -24.85 7.45 -23.81 7 C-22.83 6.56 -21.84 6.12 -20.82 5.66 C-7.55 -0.21 -7.55 -0.21 0 0 Z " fill="#D7AA7F" transform="translate(164.4375,93.875)"/>
<path d="M0 0 C3.37 0.25 4.22 1.23 6.62 3.75 C8.74 6.31 9.8 8.92 11 12 C10.42 12.39 9.83 12.78 9.23 13.19 C-24.41 35.84 -57.87 59.84 -75 98 C-78.41 98 -81.63 97.51 -85 97 C-85.33 96.01 -85.66 95.02 -86 94 C-81.69 90.92 -81.69 90.92 -78.19 91.31 C-77.47 91.54 -76.74 91.77 -76 92 C-75.03 89 -74.78 86.96 -76 84 C-76.99 83.67 -77.98 83.34 -79 83 C-76.24 82.4 -73.84 82 -71 82 C-70.81 81.22 -70.63 80.43 -70.44 79.62 C-67.14 71.31 -60.98 64.53 -55 58 C-54.09 56.98 -53.18 55.95 -52.28 54.93 C-46.83 48.84 -41.31 43.31 -34.86 38.25 C-32.19 36.15 -29.62 33.98 -27.06 31.76 C-19.88 25.57 -12.64 19.99 -4 16 C-4.29 10.64 -4.29 10.64 -7.56 6.56 C-8.37 6.05 -9.17 5.53 -10 5 C-9.67 4.01 -9.34 3.02 -9 2 C-5 2 -5 2 -3.44 3.44 C-2.96 3.95 -2.49 4.47 -2 5 C-1.01 5.33 -0.02 5.66 1 6 C0.5 3.03 0.5 3.03 0 0 Z " fill="#2D282D" transform="translate(144,117)"/>
<path d="M0 0 C3.15 2.84 4.47 5.1 6 9 C15.43 25.66 29.52 35.5 46.73 42.91 C47.51 43.25 48.3 43.6 49.11 43.96 C49.81 44.26 50.51 44.55 51.24 44.86 C53.41 46.27 54.04 47.63 55 50 C54.01 50.66 53.02 51.32 52 52 C51.5 53.93 51.5 53.93 51.44 56.06 C51.29 57.36 51.15 58.66 51 60 C50.01 60.5 50.01 60.5 49 61 C46.51 56.32 47.14 53.06 48 48 C47.31 47.83 46.62 47.66 45.91 47.48 C29.72 43.31 29.72 43.31 24 37 C23.05 36.38 22.1 35.76 21.12 35.12 C17.53 32.68 14.89 30.24 12 27 C12 26.01 12 25.02 12 24 C11.34 24 10.68 24 10 24 C9.01 22.02 8.02 20.04 7 18 C4.6 18.2 4.6 18.2 2 19 C1.55 19.62 1.09 20.24 0.62 20.88 C-2.33 24.74 -7.33 26.07 -12 27 C-12.09 25.45 -12.09 25.45 -12.19 23.88 C-12.95 20.22 -13.19 19.43 -15.5 16.88 C-17.98 14.02 -18.79 12.71 -19 9 C-18.67 8.34 -18.34 7.68 -18 7 C-16.61 7.06 -16.61 7.06 -15.19 7.12 C-11.84 7.27 -11.84 7.27 -9 5 C-6.96 4.59 -6.96 4.59 -4.81 4.38 C-3.55 4.25 -2.3 4.13 -1 4 C-0.67 2.68 -0.34 1.36 0 0 Z " fill="#27242B" transform="translate(63,271)"/>
<path d="M0 0 C2.89 5.08 4.09 9.96 5.19 15.62 C5.36 16.51 5.54 17.39 5.72 18.3 C6.95 24.9 7.49 31.27 7 38 C6.01 38.5 6.01 38.5 5 39 C5 38.34 5 37.68 5 37 C2.69 37 0.38 37 -2 37 C-1.67 39.97 -1.34 42.94 -1 46 C-1.33 45.34 -1.66 44.68 -2 44 C-2.99 44 -3.98 44 -5 44 C-6.72 40.55 -5.95 36.64 -5.84 32.85 C-5.77 29.8 -5.77 29.8 -8 27 C-9.33 26.66 -10.66 26.32 -12 26 C-13.56 24.56 -13.56 24.56 -15 23 C-15.99 22.34 -16.98 21.68 -18 21 C-18.12 17.56 -18.12 17.56 -18 14 C-18.33 13.01 -18.66 12.02 -19 11 C-17.76 10.59 -16.52 10.18 -15.25 9.75 C-11.63 8.4 -9.57 6.93 -7 4 C-2.33 0 -2.33 0 0 0 Z " fill="#A46831" transform="translate(295,142)"/>
<path d="M0 0 C0.17 0.68 0.34 1.35 0.52 2.05 C1.93 7.24 3 10.28 7 14 C6.75 16.25 6.75 16.25 6 18 C5.01 18 4.02 18 3 18 C2.77 18.63 2.55 19.26 2.31 19.91 C1 22 1 22 -1.31 22.9 C-2.2 23.06 -3.09 23.21 -4 23.38 C-4.89 23.55 -5.77 23.72 -6.69 23.9 C-7.83 23.95 -7.83 23.95 -9 24 C-9.66 23.34 -10.32 22.68 -11 22 C-10.62 19.88 -10.62 19.88 -10 18 C-6.53 17.5 -6.53 17.5 -3 17 C-3 15.35 -3 13.7 -3 12 C-4.32 12 -5.64 12 -7 12 C-7.33 13.65 -7.66 15.3 -8 17 C-9.32 16.67 -10.64 16.34 -12 16 C-12 14.68 -12 13.36 -12 12 C-14.31 12.33 -16.62 12.66 -19 13 C-18.67 17.95 -18.34 22.9 -18 28 C-19.32 27.34 -20.64 26.68 -22 26 C-22.83 23.39 -22.83 23.39 -23.25 20.25 C-23.4 19.22 -23.55 18.2 -23.7 17.14 C-23.99 14.07 -24.06 11.08 -24 8 C-17.38 6 -17.38 6 -14 6 C-13.67 5.01 -13.34 4.02 -13 3 C-11.91 2.88 -10.81 2.75 -9.69 2.62 C-5.83 1.97 -3.84 0 0 0 Z " fill="#2B262B" transform="translate(187,312)"/>
<path d="M0 0 C3.08 2.06 5.42 4.35 8 7 C7.34 7.99 6.68 8.98 6 10 C2.92 10.27 0.33 10.07 -2.69 9.44 C-5.15 8.78 -5.15 8.78 -8 10 C-7.48 10.72 -6.97 11.44 -6.44 12.19 C-4.79 15.42 -4.94 16.62 -6 20 C-8.31 19.67 -10.62 19.34 -13 19 C-13.79 20.75 -13.79 20.75 -14 23 C-12.65 25.73 -12.65 25.73 -11 28 C-13.64 27.67 -16.28 27.34 -19 27 C-20.32 29.16 -20.32 29.16 -21 32 C-19.94 35.2 -19.94 35.2 -18.12 38.31 C-17.26 39.92 -17.26 39.92 -16.38 41.55 C-15.93 42.36 -15.47 43.17 -15 44 C-17.31 44 -19.62 44 -22 44 C-22.14 44.6 -22.29 45.2 -22.44 45.81 C-22.89 47.56 -23.43 49.29 -24 51 C-25.32 50.67 -26.64 50.34 -28 50 C-28 46.11 -26.5 43.68 -24.78 40.25 C-23.6 36.85 -24.57 34.9 -26.06 31.75 C-26.37 31.17 -26.68 30.59 -27 30 C-26.1 29.97 -26.1 29.97 -25.19 29.94 C-22.63 29.13 -22.63 29.13 -21.5 25.81 C-21.26 25.18 -21.03 24.55 -20.79 23.91 C-19.59 21.01 -17.77 18.57 -16 16 C-15.69 15.24 -15.38 14.47 -15.06 13.69 C-14.71 13.13 -14.36 12.57 -14 12 C-13.17 11.86 -12.35 11.71 -11.5 11.56 C-10.67 11.38 -9.85 11.19 -9 11 C-8.71 10.28 -8.42 9.56 -8.12 8.81 C-6.49 4.72 -3.42 2.66 0 0 Z " fill="#29252B" transform="translate(85,149)"/>
<path d="M0 0 C0.42 0.41 0.85 0.82 1.29 1.24 C5.41 5.03 8.51 6.88 14 8 C12.25 19.63 12.25 19.63 8 24 C4.25 24.38 4.25 24.38 1 24 C1 24.99 1 25.98 1 27 C3.95 29.37 3.95 29.37 8 29 C7.67 30.65 7.34 32.3 7 34 C2.33 34.32 -0.14 34.43 -4.38 32.31 C-7.07 29.93 -8.05 28.42 -9 25 C-7.68 23.68 -6.36 22.36 -5 21 C-4.67 21.33 -4.34 21.66 -4 22 C-4.33 19.36 -4.66 16.72 -5 14 C-3.31 13.25 -3.31 13.25 -1 13 C0.71 14.28 2.37 15.62 4 17 C6.18 17.78 6.18 17.78 8 18 C8.21 15.16 8.21 15.16 7 12 C4.18 9.94 1.17 8.45 -2 7 C-2 5.02 -2 3.04 -2 1 C-1.34 0.67 -0.68 0.34 0 0 Z " fill="#27242B" transform="translate(280,212)"/>
<path d="M0 0 C5.29 2.38 9.86 5.6 13.5 10.12 C13.61 14.58 11.03 17.61 8.5 21.12 C5.53 20.8 2.56 20.46 -0.5 20.12 C-1.5 16.12 -1.5 16.12 -0.5 14.2 C-0.03 13.6 0.45 13 0.94 12.38 C1.65 11.45 1.65 11.45 2.37 10.52 C2.74 10.06 3.12 9.6 3.5 9.12 C2.8 9.76 2.1 10.4 1.38 11.06 C-1.78 13.32 -3.64 14.04 -7.5 14.12 C-9.38 12.69 -9.38 12.69 -10.5 11.12 C-9.03 6.14 -5.64 0.28 0 0 Z " fill="#D8AB80" transform="translate(68.5,314.875)"/>
<path d="M0 0 C0.66 0 1.32 0 2 0 C2.33 2.31 2.66 4.62 3 7 C3.99 7 4.98 7 6 7 C6.99 5.02 7.98 3.04 9 1 C11.64 1.99 14.28 2.98 17 4 C17.33 3.01 17.66 2.02 18 1 C18.66 1.33 19.32 1.66 20 2 C20 11.57 20 21.14 20 31 C19.67 30.34 19.34 29.68 19 29 C17.35 29 15.7 29 14 29 C14 28.34 14 27.68 14 27 C14.99 27 15.98 27 17 27 C16.67 24.36 16.34 21.72 16 19 C15.32 19.33 14.64 19.66 13.94 20 C10.47 21.18 7.64 21.07 4 21 C2.32 21.29 0.65 21.6 -1 22 C-2.04 18.87 -1.93 18.01 -1 15 C-0.34 15 0.32 15 1 15 C1 15.66 1 16.32 1 17 C3.37 17.42 3.37 17.42 6 17 C7.86 14.59 7.86 14.59 9 12 C11.31 12.33 13.62 12.66 16 13 C15.34 11.35 14.68 9.7 14 8 C13.44 8.16 12.88 8.33 12.3 8.5 C9.87 9.03 7.73 9.1 5.25 9.06 C4.45 9.05 3.65 9.04 2.83 9.04 C2.22 9.02 1.62 9.01 1 9 C0.67 9.99 0.34 10.98 0 12 C-0.76 7.68 -1.16 4.26 0 0 Z " fill="#27242A" transform="translate(43,240)"/>
<path d="M0 0 C0.33 0 0.66 0 1 0 C1 92.07 1 184.14 1 279 C0.67 279 0.34 279 0 279 C0 186.93 0 94.86 0 0 Z " fill="#D2D0CE" transform="translate(1206,101)"/>
<path d="M0 0 C1.94 0.75 1.94 0.75 4 2 C4.75 4.12 4.75 4.12 5 6 C4.01 6.5 4.01 6.5 3 7 C3.72 14.04 3.72 14.04 5 21 C3.68 21.33 2.36 21.66 1 22 C-1.62 17.22 -0.83 13.16 0 8 C-2.08 7.45 -3.84 7 -6 7 C-6.33 10.3 -6.66 13.6 -7 17 C-8.32 17.33 -9.64 17.66 -11 18 C-12.37 15.74 -13.08 14.54 -12.69 11.88 C-12 10 -12 10 -11 8 C-13.31 7.67 -15.62 7.34 -18 7 C-18 9.31 -18 11.62 -18 14 C-18.99 14 -19.98 14 -21 14 C-21.12 12.89 -21.25 11.77 -21.38 10.62 C-21.65 6.97 -21.65 6.97 -24 5 C-22.61 3.01 -22.61 3.01 -20 1 C-16.76 0.51 -13.58 0.67 -10.31 0.81 C-8.58 0.86 -6.85 0.91 -5.11 0.96 C-3.97 1 -3.97 1 -2.79 1.05 C-0.98 1.2 -0.98 1.2 0 0 Z " fill="#27242A" transform="translate(153,319)"/>
<path d="M0 0 C2.47 1.48 4 2.89 6 5 C5.52 5.4 5.04 5.8 4.54 6.21 C2.64 8.42 2.55 9.69 2.38 12.56 C2.08 16.84 2.08 16.84 1 19 C-0.65 18.67 -2.3 18.34 -4 18 C-4 12.67 -4 7.33 -4 2 C-5.98 2.27 -5.98 2.27 -8 3 C-8.33 3.99 -8.66 4.98 -9 6 C-8.5 6.95 -8.01 7.9 -7.5 8.88 C-5.86 12.29 -5.86 13.48 -7 17 C-9.25 17 -9.25 17 -12 16 C-14.31 12.61 -15.71 8.88 -17 5 C-16.34 4.67 -15.68 4.34 -15 4 C-15 2.02 -15 0.04 -15 -2 C-10.65 -4.17 -4.41 -1.42 0 0 Z " fill="#27242A" transform="translate(227,101)"/>
<path d="M0 0 C2.35 2.35 3 4.26 4.12 7.38 C4.48 8.33 4.83 9.29 5.2 10.27 C6 13 6 13 6 17 C4.02 17 2.04 17 0 17 C-0.66 15.35 -1.32 13.7 -2 12 C-2.99 12 -3.98 12 -5 12 C-5.33 12.99 -5.66 13.98 -6 15 C-5.34 15.33 -4.68 15.66 -4 16 C-4.66 17.32 -5.32 18.64 -6 20 C-8.64 19.67 -11.28 19.34 -14 19 C-13.01 17.52 -13.01 17.52 -12 16 C-12.02 14.82 -12.04 13.65 -12.06 12.44 C-12.04 11.3 -12.02 10.17 -12 9 C-11.01 8.34 -10.02 7.68 -9 7 C-10.32 6.67 -11.64 6.34 -13 6 C-13 5.01 -13 4.02 -13 3 C-4.13 -0.61 -4.13 -0.61 0 0 Z " fill="#27242A" transform="translate(192,101)"/>
<path d="M0 0 C3.6 2.96 5.87 5.77 6.38 10.44 C6.25 11.28 6.13 12.13 6 13 C6.66 13 7.32 13 8 13 C7 16 7 16 5.33 17.17 C-1.57 20.55 -1.57 20.55 -6 20 C-6 18.68 -6 17.36 -6 16 C-8.47 15.01 -8.47 15.01 -11 14 C-11.33 11.36 -11.66 8.72 -12 6 C-10.68 5.67 -9.36 5.34 -8 5 C-7.75 5.72 -7.5 6.44 -7.25 7.19 C-5.88 10.28 -4.28 12.51 -2 15 C-1.34 15 -0.68 15 0 15 C-0.78 9.57 -2.93 5.68 -7 2 C-4.35 0.54 -3.11 0 0 0 Z " fill="#28242B" transform="translate(168,106)"/>
<path d="M0 0 C62.7 0 125.4 0 190 0 C190 0.33 190 0.66 190 1 C127.3 1 64.6 1 0 1 C0 0.67 0 0.34 0 0 Z " fill="#8C6531" transform="translate(170,0)"/>
<path d="M0 0 C0.66 0 1.32 0 2 0 C2 0.66 2 1.32 2 2 C3.42 1.86 4.83 1.71 6.25 1.56 C7.04 1.48 7.83 1.4 8.64 1.32 C10.82 1.02 12.88 0.58 15 0 C15.74 1.71 16.47 3.42 17.2 5.13 C17.84 6.62 18.51 8.09 19.19 9.56 C20.16 12.47 20.14 14.95 20 18 C17 18 17 18 14 16 C14.33 14.35 14.66 12.7 15 11 C13.25 10.21 13.25 10.21 11 10 C8.27 11.35 8.27 11.35 6 13 C5.57 12.55 5.13 12.09 4.69 11.62 C2.89 9.8 2.89 9.8 0 8 C-0.41 5.29 -0.13 2.76 0 0 Z " fill="#27242B" transform="translate(277,155)"/>
<path d="M0 0 C1.02 0.98 2.02 1.98 3 3 C3.66 3.33 4.32 3.66 5 4 C5.33 3.01 5.66 2.02 6 1 C6.99 1 7.98 1 9 1 C8.88 3.04 8.76 5.08 8.62 7.12 C8.56 8.26 8.49 9.4 8.41 10.57 C8.01 13.95 7.19 16.82 6 20 C2.04 19.67 -1.92 19.34 -6 19 C-6.33 17.68 -6.66 16.36 -7 15 C-2.98 14.16 0.02 13.95 4 15 C4 13.35 4 11.7 4 10 C0.7 8.35 -2.6 6.7 -6 5 C-6 4.34 -6 3.68 -6 3 C-2.54 0 -2.54 0 0 0 Z " fill="#27242A" transform="translate(59,218)"/>
<path d="M0 0 C2.43 2.25 2.43 4.27 2.62 7.5 C2.29 8.49 1.97 9.48 1.62 10.5 C2.62 11.98 2.62 11.98 3.62 13.5 C3.75 16.19 3.75 16.19 3.62 18.5 C0.66 18.5 -2.31 18.5 -5.38 18.5 C-5.41 17.75 -5.45 17 -5.49 16.23 C-5.55 15.25 -5.62 14.26 -5.69 13.25 C-5.75 12.28 -5.8 11.3 -5.86 10.3 C-6.43 7.22 -7.42 5.87 -9.38 3.5 C-9.38 2.84 -9.38 2.18 -9.38 1.5 C-3.13 -0.66 -3.13 -0.66 0 0 Z " fill="#27242A" transform="translate(206.375,98.5)"/>
<path d="M0 0 C2.53 1.13 4.41 2.09 6.38 4.06 C6.38 5.38 6.38 6.7 6.38 8.06 C4.19 9.62 4.19 9.62 1.38 11.06 C0.55 11.64 -0.28 12.22 -1.12 12.81 C-3.62 14.06 -3.62 14.06 -6.31 13.88 C-8.62 13.06 -8.62 13.06 -10.62 11.06 C-9.14 6.01 -5.73 0.14 0 0 Z " fill="#D2A77D" transform="translate(68.625,314.9375)"/>
<path d="M0 0 C0.46 0.34 0.92 0.68 1.39 1.02 C5.19 3.81 5.19 3.81 9.31 6.06 C11.67 7.37 12.22 8.43 13 11 C12.62 14.25 12.62 14.25 12 17 C10.12 16.75 10.12 16.75 8 16 C7.69 15.36 7.38 14.72 7.06 14.06 C6.14 11.78 6.14 11.78 3.62 10.81 C1.43 10.13 -0.75 9.5 -3 9 C-3.19 6.19 -3.19 6.19 -3 3 C-1.49 1.3 -1.49 1.3 0 0 Z " fill="#27242B" transform="translate(283,202)"/>
<path d="M0 0 C3.22 1.26 3.81 3.56 5.2 6.58 C6.34 9.67 6.74 12.51 7.01 15.79 C5.03 16.78 5.03 16.78 3.01 17.79 C-0.4 15.51 -1.07 14.08 -2.74 10.41 C-3.19 9.46 -3.64 8.5 -4.1 7.52 C-5.02 4.68 -5.2 3.49 -3.99 0.79 C-1.99 -0.21 -1.99 -0.21 0 0 Z " fill="#27242A" transform="translate(194.98828125,308.2109375)"/>
<path d="M0 0 C2.62 0.38 2.62 0.38 5 1 C5.33 2.32 5.66 3.64 6 5 C0.25 8 0.25 8 -2 8 C-2.33 8.99 -2.66 9.98 -3 11 C-4.98 11 -6.96 11 -9 11 C-9.88 4.85 -9.88 4.85 -10 3 C-9.67 2.67 -9.34 2.34 -9 2 C-7.87 2.02 -6.73 2.04 -5.56 2.06 C-1.95 2.41 -1.95 2.41 0 0 Z " fill="#D7AA7F" transform="translate(60,279)"/>
<path d="M0 0 C2.3 0.2 2.3 0.2 5 1 C6.77 3.18 6.77 3.18 8.25 5.88 C9 7.2 9 7.2 9.77 8.55 C11 11 11 11 12 14 C9.69 14 7.38 14 5 14 C4.78 14.9 4.78 14.9 4.56 15.81 C4.11 17.56 3.57 19.29 3 21 C1.68 20.67 0.36 20.34 -1 20 C-1 16.11 0.5 13.68 2.22 10.25 C3.4 6.85 2.43 4.9 0.94 1.75 C0.63 1.17 0.32 0.59 0 0 Z " fill="#27242B" transform="translate(58,179)"/>
<path d="M0 0 C0.78 0.04 1.57 0.08 2.38 0.12 C2.76 2.12 3.09 4.12 3.38 6.12 C1.74 7.76 -0.33 7.72 -2.56 8.12 C-6.21 8.78 -6.21 8.78 -9.62 10.12 C-11.3 9.85 -12.97 9.52 -14.62 9.12 C-13.75 4.38 -13.75 4.38 -12.62 2.12 C-11.35 2.17 -10.07 2.21 -8.75 2.25 C-6.61 2.37 -6.61 2.37 -4.62 2.12 C-2.62 0.12 -2.62 0.12 0 0 Z " fill="#D8AB80" transform="translate(59.625,268.875)"/>
<path d="M0 0 C2.99 0.5 4.39 1.26 7 3 C7.04 5 7.04 7 7 9 C7.91 11.79 7.91 11.79 9 14 C2.95 14.2 2.95 14.2 1 14 C-1 12 -1 12 -1.23 9.43 C-1.22 8.44 -1.2 7.46 -1.19 6.44 C-1.18 5.45 -1.17 4.45 -1.17 3.43 C-1 1 -1 1 0 0 Z " fill="#27242B" transform="translate(233,108)"/>
<path d="M0 0 C1.32 1.32 2.64 2.64 4 4 C3.01 5.49 3.01 5.49 2 7 C1.34 7 0.68 7 0 7 C-0.33 8.65 -0.66 10.3 -1 12 C-2.69 12.69 -2.69 12.69 -5 13 C-7.75 11.56 -7.75 11.56 -10 10 C-8.07 5.09 -4.26 2.84 0 0 Z " fill="#D8AB80" transform="translate(58,307)"/>
<path d="M0 0 C0 12.21 0 24.42 0 37 C-0.99 36.67 -1.98 36.34 -3 36 C-3 24.45 -3 12.9 -3 1 C-1 0 -1 0 0 0 Z " fill="#E1E1DF" transform="translate(681,224)"/>
<path d="M0 0 C0.66 0.33 1.32 0.66 2 1 C1.72 1.58 1.45 2.16 1.16 2.76 C-1.18 7.81 -3 12.33 -3 18 C-3.99 18.66 -4.98 19.32 -6 20 C-6.66 20.99 -7.32 21.98 -8 23 C-8.38 20.67 -8.71 18.34 -9 16 C-8.67 15.67 -8.34 15.34 -8 15 C-7.5 12.52 -7.1 10.04 -6.7 7.54 C-5.92 4.72 -4.99 3.13 -3 1 C-2.01 0.67 -1.02 0.34 0 0 Z " fill="#28242A" transform="translate(55,203)"/>
<path d="M0 0 C2.44 0.81 2.44 0.81 5 2 C5.33 2.99 5.66 3.98 6 5 C3.24 6.8 2.11 7.01 -1.25 6.62 C-2.16 6.42 -3.06 6.21 -4 6 C-4.33 7.32 -4.66 8.64 -5 10 C-6.32 9.34 -7.64 8.68 -9 8 C-9 6.35 -9 4.7 -9 3 C-6.24 2.4 -3.84 2 -1 2 C-0.67 1.34 -0.34 0.68 0 0 Z " fill="#27242B" transform="translate(51,265)"/>
<path d="M0 0 C0.33 0 0.66 0 1 0 C0.51 6.4 0.51 6.4 -2.06 9.44 C-2.7 9.95 -3.34 10.47 -4 11 C-4.33 10.67 -4.66 10.34 -5 10 C-7.33 9.63 -9.66 9.3 -12 9 C-12.33 8.01 -12.66 7.02 -13 6 C-8.69 2.92 -8.69 2.92 -5.19 3.31 C-4.1 3.65 -4.1 3.65 -3 4 C-2.67 3.34 -2.34 2.68 -2 2 C-1.34 2 -0.68 2 0 2 C0 1.34 0 0.68 0 0 Z " fill="#2B262B" transform="translate(71,205)"/>
<path d="M0 0 C7.38 2.18 7.38 2.18 10 5 C10.25 8.19 10.25 8.19 10 11 C6.59 10.69 4.44 10.31 1.62 8.31 C-0.44 5.38 -0.32 3.51 0 0 Z " fill="#A56932" transform="translate(278,219)"/>
<path d="M0 0 C0.66 0 1.32 0 2 0 C3.08 3.37 2.93 4.3 2 8 C-1.96 7.67 -5.92 7.34 -10 7 C-10.33 5.68 -10.66 4.36 -11 3 C-6.98 2.16 -3.98 1.95 0 3 C0 2.01 0 1.02 0 0 Z " fill="#2E282B" transform="translate(63,230)"/>
<path d="M0 0 C21.78 0 43.56 0 66 0 C66 0.33 66 0.66 66 1 C44.22 1 22.44 1 0 1 C0 0.67 0 0.34 0 0 Z " fill="#D5D3D1" transform="translate(1208,99)"/>
<path d="M0 0 C21.45 0 42.9 0 65 0 C65 0.33 65 0.66 65 1 C43.55 1 22.1 1 0 1 C0 0.67 0 0.34 0 0 Z " fill="#DCDBD9" transform="translate(583,99)"/>
<path d="M0 0 C20.46 0 40.92 0 62 0 C62 0.33 62 0.66 62 1 C41.54 1 21.08 1 0 1 C0 0.67 0 0.34 0 0 Z " fill="#D5D4D2" transform="translate(401,99)"/>
<path d="M0 0 C0.99 0.33 1.98 0.66 3 1 C3.33 2.33 3.67 3.67 4 5 C5.28 6.71 6.61 8.38 8 10 C7.34 10 6.68 10 6 10 C6 10.66 6 11.32 6 12 C0.41 10.54 0.41 10.54 -1.38 8.19 C-2.09 5.7 -2.14 3.58 -2 1 C-1.34 0.67 -0.68 0.34 0 0 Z " fill="#2C272C" transform="translate(158,111)"/>
<path d="M0 0 C1.32 0 2.64 0 4 0 C5.49 2.36 6.06 3.56 5.69 6.38 C5.46 7.24 5.23 8.11 5 9 C4.66 11 4.33 13 4 15 C2 14 2 14 1.18 12 C0.94 11.2 0.69 10.39 0.44 9.56 C-0.6 6.21 -0.6 6.21 -2 3 C-1.34 2.01 -0.68 1.02 0 0 Z " fill="#A56932" transform="translate(219,103)"/>
<path d="M0 0 C0.66 0 1.32 0 2 0 C2.06 0.59 2.12 1.18 2.18 1.79 C2.62 5.91 3.09 9.96 4 14 C2.68 14.33 1.36 14.66 0 15 C-2.5 10.3 -1.91 7.07 -1 2 C-0.67 1.34 -0.34 0.68 0 0 Z " fill="#2A262B" transform="translate(154,326)"/>
<path d="M0 0 C0.33 1.98 0.66 3.96 1 6 C-2 7 -2 7 -5.19 5.56 C-6.12 5.05 -7.04 4.53 -8 4 C-5.98 -0.48 -4.8 -1.44 0 0 Z " fill="#28242A" transform="translate(126,320)"/>
<path d="M0 0 C2.97 0.5 2.97 0.5 6 1 C6 1.66 6 2.32 6 3 C6.66 3 7.32 3 8 3 C8 4.65 8 6.3 8 8 C3.75 7.53 1.8 5.03 -1 2 C-0.67 1.34 -0.34 0.68 0 0 Z " fill="#A56932" transform="translate(285,200)"/>
<path d="M0 0 C1.95 2.92 2.45 4.63 3 8 C0.39 8.93 -0.64 9.15 -3.25 8.06 C-3.83 7.71 -4.41 7.36 -5 7 C-4.6 4.11 -4.21 3.18 -1.94 1.25 C-1.3 0.84 -0.66 0.43 0 0 Z " fill="#D3A77D" transform="translate(100,136)"/>
<path d="M0 0 C0.99 0.33 1.98 0.66 3 1 C3.29 7.05 3.29 7.05 3 9 C2.01 9.66 1.02 10.32 0 11 C0 10.34 0 9.68 0 9 C-0.66 9 -1.32 9 -2 9 C-1.12 1.12 -1.12 1.12 0 0 Z " fill="#27242B" transform="translate(120,328)"/>
<path d="M0 0 C1.05 0.08 1.05 0.08 2.13 0.16 C3.86 0.29 5.58 0.42 7.31 0.56 C3.63 3.02 0.87 2.79 -3.38 2.69 C-4.43 2.67 -4.43 2.67 -5.5 2.66 C-7.23 2.64 -8.96 2.6 -10.69 2.56 C-10.69 1.9 -10.69 1.24 -10.69 0.56 C-6.99 -0.67 -3.81 -0.31 0 0 Z " fill="#C0BCB9" transform="translate(401.6875,486.4375)"/>
<path d="M0 0 C0.99 0.66 1.98 1.32 3 2 C2.67 4.31 2.34 6.62 2 9 C1.34 9 0.68 9 0 9 C-2 6 -2 6 -1.69 3.38 C-1 1 -1 1 0 0 Z " fill="#27242B" transform="translate(45,227)"/>
<path d="M0 0 C1.09 0.29 1.09 0.29 2.2 0.59 C2.75 0.75 3.3 0.9 3.88 1.06 C3.55 1.72 3.22 2.38 2.88 3.06 C1.21 3.41 -0.46 3.74 -2.12 4.06 C-3.11 4.72 -4.11 5.38 -5.12 6.06 C-5.45 4.08 -5.78 2.1 -6.12 0.06 C-3.58 -1.21 -2.7 -0.74 0 0 Z " fill="#D3A279" transform="translate(122.125,316.9375)"/>
<path d="M0 0 C2.97 0.5 2.97 0.5 6 1 C5.67 2.32 5.34 3.64 5 5 C2.56 4.62 2.56 4.62 0 4 C-0.33 3.34 -0.66 2.68 -1 2 C-0.67 1.34 -0.34 0.68 0 0 Z " fill="#27242B" transform="translate(141,338)"/>
<path d="M0 0 C0.66 0.33 1.32 0.66 2 1 C-2.19 4.58 -6.48 7.84 -11 11 C-9.06 5.78 -4.48 2.98 0 0 Z " fill="#433D3F" transform="translate(68,144)"/>
<path d="M0 0 C0.66 0 1.32 0 2 0 C2.33 2.97 2.66 5.94 3 9 C2.34 9 1.68 9 1 9 C0.67 9.99 0.34 10.98 0 12 C-0.76 7.68 -1.16 4.26 0 0 Z " fill="#29252A" transform="translate(43,240)"/>
<path d="M0 0 C0.66 0.33 1.32 0.66 2 1 C-1.33 5 -4.67 9 -8 13 C-8.66 12.67 -9.32 12.34 -10 12 C-6.77 7.9 -3.41 3.94 0 0 Z " fill="#423938" transform="translate(84,126)"/>
<path d="M0 0 C0.66 0.33 1.32 0.66 2 1 C-1.63 4.63 -5.26 8.26 -9 12 C-9 9 -9 9 -7.03 6.74 C-5.78 5.54 -5.78 5.54 -4.5 4.31 C-3.66 3.5 -2.83 2.7 -1.97 1.86 C-1.32 1.25 -0.67 0.63 0 0 Z " fill="#27242B" transform="translate(75,134)"/>
<path d="M0 0 C3.3 0 6.6 0 10 0 C10.33 0.66 10.66 1.32 11 2 C7.37 2 3.74 2 0 2 C0 1.34 0 0.68 0 0 Z " fill="#DEDEDC" transform="translate(1061,146)"/>
<path d="M0 0 C6.93 0 13.86 0 21 0 C21 0.33 21 0.66 21 1 C14.07 1 7.14 1 0 1 C0 0.67 0 0.34 0 0 Z " fill="#FBFDFD" transform="translate(1060,92)"/>
<path d="M0 0 C0.33 0 0.66 0 1 0 C1 6.6 1 13.2 1 20 C0.67 20 0.34 20 0 20 C0 13.4 0 6.8 0 0 Z " fill="#FBFDFD" transform="translate(926,232)"/>
<path d="M0 0 C6.6 0 13.2 0 20 0 C20 0.33 20 0.66 20 1 C13.4 1 6.8 1 0 1 C0 0.67 0 0.34 0 0 Z " fill="#FBFDFD" transform="translate(812,92)"/>
<path d="M0 0 C4 1 4 1 4 1 Z " fill="#CECCCA" transform="translate(111,358)"/>
<path d="M0 0 C1 4 1 4 1 4 Z " fill="#27242B" transform="translate(14,251)"/>
<path d="" fill="#FBFDFD" transform="translate(0,0)"/>
<path d="M0 0 C3 1 3 1 3 1 Z " fill="#A09FA0" transform="translate(105,357)"/>
<path d="M0 0 C3 1 3 1 3 1 Z " fill="#D3D1CF" transform="translate(101,356)"/>
<path d="M0 0 C3 1 3 1 3 1 Z " fill="#939392" transform="translate(90,353)"/>
<path d="M0 0 C3 1 3 1 3 1 Z " fill="#939392" transform="translate(87,352)"/>
<path d="M0 0 C2 1 2 1 2 1 Z " fill="#C0BCB9" transform="translate(403,484)"/>
<path d="" fill="#C0BCB9" transform="translate(0,0)"/>
<path d="M0 0 C2 1 2 1 2 1 Z " fill="#FBFDFD" transform="translate(97,355)"/>
<path d="M0 0 C2 1 2 1 2 1 Z " fill="#919094" transform="translate(94,354)"/>
<path d="M0 0 C2 1 2 1 2 1 Z " fill="#7D7F7E" transform="translate(85,351)"/>
<path d="" fill="#27242B" transform="translate(0,0)"/>
<path d="" fill="#27242B" transform="translate(0,0)"/>
<path d="" fill="#27242B" transform="translate(0,0)"/>
<path d="M0 0 C2 1 2 1 2 1 Z " fill="#27242B" transform="translate(120,101)"/>
<path d="M0 0 C2 1 2 1 2 1 Z " fill="#27242B" transform="translate(138,92)"/>
<path d="" fill="#C0BCB9" transform="translate(0,0)"/>
<path d="" fill="#C0BCB9" transform="translate(0,0)"/>
<path d="" fill="#654229" transform="translate(0,0)"/>
<path d="" fill="#FBFDFD" transform="translate(0,0)"/>
<path d="" fill="#8C6531" transform="translate(0,0)"/>
<path d="" fill="#C0BCB9" transform="translate(0,0)"/>
<path d="" fill="#000100" transform="translate(0,0)"/>
<path d="" fill="#FBFDFD" transform="translate(0,0)"/>
<path d="" fill="#27242B" transform="translate(0,0)"/>
<path d="" fill="#C0BCB9" transform="translate(0,0)"/>
<path d="" fill="#27242B" transform="translate(0,0)"/>
<path d="" fill="#FBFDFD" transform="translate(0,0)"/>
<path d="" fill="#C0BCB9" transform="translate(0,0)"/>
</svg>
