<?xml version="1.0" standalone="no"?>
<!DOCTYPE svg PUBLIC "-//W3C//DTD SVG 20010904//EN"
 "http://www.w3.org/TR/2001/REC-SVG-20010904/DTD/svg10.dtd">
<svg version="1.0" xmlns="http://www.w3.org/2000/svg"
 width="512.000000pt" height="512.000000pt" viewBox="0 0 512.000000 512.000000"
 preserveAspectRatio="xMidYMid meet">

<g transform="translate(0.000000,512.000000) scale(0.100000,-0.100000)"
fill="#000000" stroke="none">
<path d="M3372 5095 c-36 -30 -47 -70 -32 -110 6 -16 96 -115 200 -220 l189
-191 -627 -627 -627 -627 -580 580 c-319 319 -595 587 -613 596 -26 12 -40 13
-65 5 -44 -15 -1203 -1174 -1213 -1214 -14 -61 35 -117 103 -117 36 0 56 19
585 547 l548 548 708 -707 c487 -486 715 -707 732 -710 71 -10 120 30 120 99
0 42 -4 48 -90 136 l-89 93 627 627 627 627 278 -278 277 -277 -505 -505
c-278 -278 -512 -520 -521 -538 -20 -43 -11 -85 28 -117 33 -28 66 -32 106
-11 15 8 254 242 532 520 l504 505 191 -189 c105 -104 204 -194 220 -200 40
-15 80 -4 110 32 l25 30 -2 830 -3 830 -33 29 -32 29 -824 0 -824 0 -30 -25z
m1548 -795 c0 -341 -1 -620 -3 -620 -1 0 -281 279 -622 620 l-620 620 623 0
622 0 0 -620z"/>
<path d="M1440 3333 c-8 -3 -333 -323 -723 -712 -564 -564 -708 -712 -713
-737 -11 -60 36 -113 101 -114 39 0 47 7 587 547 l548 547 283 -282 c282 -281
284 -282 326 -282 60 0 101 41 101 101 0 42 -1 44 -282 325 l-282 283 92 95
c81 84 92 99 92 131 0 47 -14 71 -50 90 -29 15 -53 18 -80 8z"/>
<path d="M2233 2640 c-37 -22 -36 -20 -112 -323 -27 -109 -51 -200 -53 -201
-1 -2 -32 -14 -68 -29 -36 -14 -124 -50 -197 -80 l-131 -55 -209 125 c-154 93
-219 127 -251 131 l-42 5 -211 -209 c-206 -204 -239 -243 -239 -282 0 -11 58
-117 130 -237 71 -119 130 -219 130 -222 0 -2 -37 -94 -82 -203 l-82 -198
-230 -58 c-244 -60 -279 -73 -296 -103 -6 -12 -10 -114 -10 -259 l0 -240 -111
-4 -111 -3 -29 -33 c-38 -42 -38 -82 0 -124 l29 -33 2496 -3 2496 -2 32 29
c27 24 33 36 33 71 0 35 -6 47 -33 71 -31 28 -36 29 -137 29 l-105 0 0 241 c0
146 -4 248 -10 260 -17 30 -52 43 -296 103 l-230 58 -82 198 c-45 109 -82 201
-82 203 0 3 59 103 130 222 72 120 130 226 130 237 0 39 -33 78 -239 282
l-211 209 -42 -5 c-32 -4 -97 -38 -251 -131 l-209 -125 -131 55 c-73 30 -162
67 -200 81 -61 24 -68 31 -77 62 -5 19 -32 127 -60 239 -28 112 -55 212 -61
222 -24 45 -51 49 -361 49 -273 0 -295 -1 -325 -20z m577 -401 c30 -122 62
-234 71 -249 13 -21 67 -47 275 -134 143 -59 274 -110 291 -113 29 -5 59 10
236 116 111 66 207 121 213 121 5 0 70 -60 143 -134 l134 -135 -121 -203 c-88
-146 -122 -213 -122 -236 0 -17 43 -136 96 -264 113 -272 128 -304 152 -317
11 -6 102 -31 203 -56 101 -25 201 -50 222 -56 l37 -10 0 -184 0 -185 -509 0
-509 0 4 42 c3 24 7 54 9 68 2 14 -1 79 -6 145 -29 387 -249 711 -601 887
-106 53 -149 54 -191 8 -25 -28 -28 -39 -24 -72 7 -52 21 -66 97 -101 318
-144 523 -454 523 -792 0 -55 -4 -119 -8 -143 l-7 -42 -858 0 -858 0 -8 43
c-4 23 -7 87 -7 142 1 339 205 648 524 793 74 33 99 61 99 110 0 46 -16 71
-56 88 -42 18 -67 12 -169 -38 -272 -135 -474 -377 -559 -672 -26 -88 -49
-294 -40 -361 2 -19 6 -51 8 -70 l5 -35 -510 0 -509 0 0 185 0 184 38 10 c20
6 120 31 221 56 101 25 192 50 202 56 25 13 37 37 150 312 55 132 99 253 99
270 0 22 -36 92 -122 235 l-121 203 134 135 c73 74 138 134 143 134 6 0 102
-55 213 -121 177 -106 207 -121 236 -116 17 3 148 54 291 113 208 87 262 113
275 134 9 15 41 127 71 249 l54 221 196 0 196 0 54 -221z"/>
<path d="M2509 1435 c-53 -29 -62 -111 -16 -153 31 -28 62 -35 101 -22 41 13
66 48 66 90 0 42 -15 67 -50 85 -36 19 -67 19 -101 0z"/>
<path d="M3182 2615 c-56 -47 -44 -133 23 -161 100 -42 183 80 106 157 -38 38
-87 39 -129 4z"/>
</g>
</svg>
